<svg width="129" height="278" viewBox="0 0 129 278" fill="none" xmlns="http://www.w3.org/2000/svg">
<path d="M90.3478 57.3099L98.3179 60.2851C98.9129 59.8343 95.9106 32.7868 95.9106 32.7868L100.743 32.0745C100.743 32.0745 108.911 60.1679 106.153 65.8479C102.546 73.2048 86.6243 65.8479 86.6243 65.8479L90.3478 57.3099Z" fill="#B97964"/>
<path d="M64.1298 63.8915C64.6064 63.8439 65.0866 63.8439 65.5633 63.8915C69.0405 64.2842 72.4908 64.8864 75.8954 65.6946C83.631 67.3265 92.124 69.5174 92.124 69.5174L95.9106 58.482C95.9106 58.482 70.9638 44.0566 66.9157 45.2377C66.9157 45.2377 60.1448 64.4955 64.1298 63.8915Z" fill="#263238"/>
<path d="M6.87899 75.1162C6.87899 75.1162 0.189243 82.8248 0.946574 92.7422C1.70391 102.66 26.8852 117.987 26.8852 117.987L30.0948 113.028C30.0948 113.028 10.0345 96.1231 9.58375 92.7422C9.13296 89.3613 13.7491 81.9232 13.7491 81.9232L6.87899 75.1162Z" fill="#B97964"/>
<path d="M29.1934 111.297C29.1934 111.297 25.0912 116.797 25.2895 117.5C25.4879 118.203 28.8057 120.268 28.8057 120.268C28.8057 120.268 28.2467 123.549 28.2467 124.144C28.2467 125.614 30.8703 127.453 31.5465 127.002C33.9718 125.38 34.8553 120.989 35.3061 118.978C35.7569 116.968 30.3744 110.693 29.1934 111.297Z" fill="#00B0FF"/>
<path opacity="0.7" d="M29.1934 111.297C29.1934 111.297 25.0912 116.797 25.2895 117.5C25.4879 118.203 28.8057 120.268 28.8057 120.268C28.8057 120.268 28.2467 123.549 28.2467 124.144C28.2467 125.614 30.8703 127.453 31.5465 127.002C33.9718 125.38 34.8553 120.989 35.3061 118.978C35.7569 116.968 30.3744 110.693 29.1934 111.297Z" fill="#231F20"/>
<path d="M65.7255 271.283L73.0373 272.05L74.4077 256.281L67.0959 255.505L65.7255 271.283Z" fill="#B97964"/>
<path d="M29.2294 270.751H36.3158L36.9019 254.333H29.8064L29.2294 270.751Z" fill="#B97964"/>
<path d="M37.3076 269.931H28.6975C28.5561 269.93 28.4187 269.978 28.3086 270.067C28.1985 270.155 28.1225 270.279 28.0934 270.418L26.6959 276.729C26.6669 276.882 26.6718 277.039 26.7104 277.19C26.7489 277.341 26.8201 277.482 26.919 277.602C27.0179 277.723 27.1421 277.82 27.2827 277.887C27.4233 277.954 27.5769 277.99 27.7328 277.991C30.5187 277.946 32.5472 277.775 36.0454 277.775C38.2002 277.775 44.7006 278 47.6758 278C50.651 278 51.0387 275.061 49.8216 274.79C44.358 273.6 40.2468 271.95 38.4977 270.382C38.1741 270.083 37.7476 269.922 37.3076 269.931V269.931Z" fill="#263238"/>
<path d="M39.6428 271.175C40.1242 271.211 40.6039 271.084 41.0042 270.814C41.1336 270.706 41.2336 270.566 41.295 270.408C41.3565 270.251 41.3773 270.08 41.3558 269.913C41.3594 269.815 41.3339 269.718 41.2826 269.635C41.2312 269.551 41.1563 269.485 41.0673 269.444C40.2829 269.038 37.9929 270.445 37.7404 270.607C37.7104 270.621 37.6859 270.644 37.6711 270.674C37.6564 270.703 37.6522 270.737 37.6593 270.769C37.6635 270.803 37.6778 270.835 37.7003 270.861C37.7228 270.886 37.7525 270.905 37.7855 270.914C38.3931 271.069 39.0159 271.156 39.6428 271.175ZM40.6976 269.705C40.7727 269.697 40.8484 269.713 40.914 269.75C40.9591 269.75 41.0132 269.814 41.0222 269.949C41.0363 270.06 41.0231 270.173 40.9839 270.279C40.9446 270.384 40.8804 270.478 40.7968 270.553C40.0017 270.913 39.0994 270.958 38.2724 270.679C39.0098 270.2 39.8336 269.869 40.6976 269.705V269.705Z" fill="#00B0FF"/>
<path d="M37.8305 270.923H37.9116C38.6419 270.526 40.0574 268.966 39.9132 268.218C39.8881 268.093 39.8205 267.981 39.7218 267.9C39.6231 267.819 39.4996 267.776 39.3722 267.776C39.2449 267.759 39.1155 267.77 38.9927 267.807C38.8699 267.845 38.7564 267.908 38.6599 267.992C37.8395 268.66 37.6682 270.697 37.6592 270.796C37.6588 270.827 37.6659 270.857 37.6801 270.883C37.6943 270.91 37.715 270.933 37.7403 270.95C37.7725 270.95 37.804 270.941 37.8305 270.923V270.923ZM39.255 268.046H39.3361C39.5525 268.046 39.5705 268.173 39.5796 268.218C39.6697 268.678 38.7681 269.859 38.0378 270.409C38.0835 269.601 38.3762 268.827 38.8763 268.191C38.9796 268.096 39.115 268.045 39.255 268.046V268.046Z" fill="#00B0FF"/>
<path d="M73.8128 269.705H65.2026C65.0613 269.704 64.9239 269.752 64.8138 269.841C64.7037 269.93 64.6277 270.054 64.5986 270.192L63.2011 276.503C63.1721 276.656 63.177 276.814 63.2155 276.965C63.2541 277.116 63.3254 277.257 63.4243 277.377C63.5232 277.497 63.6473 277.595 63.7879 277.662C63.9285 277.729 64.0821 277.764 64.2379 277.766C67.0238 277.72 69.0524 277.549 72.5506 277.549C74.7053 277.549 81.2058 277.775 84.181 277.775C87.1562 277.775 87.5439 274.835 86.3268 274.565C80.8632 273.375 76.7519 271.725 75.0029 270.156C74.6793 269.858 74.2528 269.696 73.8128 269.705Z" fill="#263238"/>
<path d="M76.1568 270.95C76.6383 270.986 77.1179 270.859 77.5182 270.589C77.6476 270.48 77.7476 270.341 77.8091 270.183C77.8705 270.026 77.8914 269.855 77.8698 269.687C77.8734 269.589 77.848 269.493 77.7966 269.409C77.7453 269.326 77.6704 269.259 77.5813 269.219C76.797 268.813 74.5069 270.219 74.2545 270.382C74.2244 270.395 74.2 270.419 74.1852 270.448C74.1704 270.478 74.1663 270.512 74.1734 270.544C74.1776 270.578 74.1919 270.61 74.2144 270.635C74.2369 270.661 74.2665 270.679 74.2996 270.688C74.9072 270.843 75.53 270.931 76.1568 270.95ZM77.2117 269.453C77.2868 269.445 77.3624 269.461 77.4281 269.498C77.4731 269.498 77.5272 269.561 77.5363 269.696C77.5503 269.808 77.5372 269.921 77.4979 270.026C77.4587 270.131 77.3945 270.226 77.3109 270.3C76.5158 270.661 75.6135 270.706 74.7864 270.427C75.5238 269.947 76.3476 269.617 77.2117 269.453Z" fill="#00B0FF"/>
<path d="M74.3447 270.697H74.4259C75.1562 270.3 76.5717 268.741 76.4274 267.992C76.4024 267.868 76.3347 267.755 76.2361 267.675C76.1374 267.594 76.0138 267.55 75.8865 267.551C75.7592 267.534 75.6298 267.545 75.507 267.582C75.3841 267.619 75.2707 267.682 75.1742 267.767C74.3538 268.434 74.1825 270.472 74.1734 270.571C74.173 270.601 74.1802 270.631 74.1944 270.658C74.2085 270.685 74.2293 270.708 74.2546 270.724C74.2867 270.725 74.3183 270.715 74.3447 270.697V270.697ZM75.7692 267.821H75.8504C76.0668 267.821 76.0848 267.947 76.0938 267.992C76.184 268.452 75.2824 269.633 74.5521 270.183C74.5978 269.376 74.8905 268.601 75.3906 267.965C75.4938 267.871 75.6293 267.819 75.7692 267.821V267.821Z" fill="#00B0FF"/>
<path opacity="0.2" d="M67.0959 255.505L74.4077 256.281L73.6955 264.413L66.3836 263.647L67.0959 255.505Z" fill="black"/>
<path opacity="0.2" d="M29.8064 254.342H36.9019L36.5953 262.808H29.4998L29.8064 254.342Z" fill="black"/>
<path d="M32.7365 110.323H70.3507C73.957 129.851 85.1187 198.967 77.0855 260.554L64.3551 258.977C64.3551 258.977 65.5362 177.221 54.2935 147C52.9952 163.174 51.4625 180.358 50.1281 189.536C46.8554 212.076 39.8501 261.339 39.8501 261.339H26.8853C26.8853 261.339 29.5359 214.186 30.7621 192.034C32.1054 167.989 32.6824 115.282 32.7365 110.323Z" fill="#00B0FF"/>
<path opacity="0.2" d="M54.2934 147C56.1444 152.298 57.5498 157.741 58.4948 163.273C59.5496 148.848 55.3392 133.611 55.3392 133.611L54.2934 147Z" fill="black"/>
<path d="M78.5462 263.521L62.7865 261.176L63.2643 256.813L79.6642 258.958L78.5462 263.521Z" fill="#00B0FF"/>
<path opacity="0.6" d="M78.5462 263.521L62.7865 261.176L63.2643 256.813L79.6642 258.958L78.5462 263.521Z" fill="white"/>
<path d="M41.4096 261.447H26.1188V256.876L41.9867 256.578L41.4096 261.447Z" fill="#00B0FF"/>
<path opacity="0.6" d="M41.4096 261.447H26.1188V256.876L41.9867 256.578L41.4096 261.447Z" fill="white"/>
<path d="M70.6662 110.774H32.7996V115.282L71.153 114.813L70.6662 110.774Z" fill="#263238"/>
<path d="M44.971 108.745H46.3234V116.751H44.971V108.745Z" fill="#00B0FF"/>
<path d="M64.1296 108.745H65.482V116.751H64.1296V108.745Z" fill="#00B0FF"/>
<path opacity="0.2" d="M65.5633 63.8915C69.0404 64.2842 72.4908 64.8864 75.8954 65.6946C74.498 59.654 67.0599 54.7133 67.0599 54.7133L65.5633 63.8915Z" fill="black"/>
<path d="M53.4008 109.99H60.4061V115.038H53.4008V109.99Z" fill="white"/>
<path d="M25.1633 48.6096C25.1633 48.6096 26.3083 54.3617 27.7058 62.7194C28.3369 66.5151 29.0221 70.8337 29.6803 75.4227C31.3752 87.2515 32.8719 100.712 32.7366 110.774H70.6663C70.6663 110.774 73.1276 68.4986 66.9157 45.2377C66.9157 45.2377 42.9876 44.1107 25.1633 48.6096Z" fill="#263238"/>
<path d="M38.7682 46.0852C42.2213 49.2227 50.6782 48.0596 50.6782 48.0596C50.6782 48.0596 55.9615 46.6171 54.8525 44.9672C51.742 44.4533 50.2364 43.0018 49.6143 41.1445C49.2736 39.9932 49.1664 38.7855 49.2987 37.5922C49.3504 36.9269 49.4377 36.2648 49.5602 35.6088L39.1108 27.8281C40.4722 32.9761 42.1492 42.3797 38.7682 46.0852Z" fill="#B97964"/>
<path opacity="0.2" d="M41.5182 32.7868C41.9329 39.0979 47.09 40.7929 49.6324 41.1445C49.2918 39.9932 49.1845 38.7855 49.3169 37.5922L41.5182 32.7868Z" fill="black"/>
<path d="M40.3098 42.1002L50.3085 46.6081L50.8945 43.0017L54.5639 44.291C55.2067 44.5137 55.7548 44.9481 56.1185 45.523C56.4821 46.098 56.6397 46.7794 56.5654 47.4556L56.1597 51.4225L51.0838 48.6457L48.5594 52.252L36.5503 46.4728L40.3098 42.1002Z" fill="#263238"/>
<path opacity="0.2" d="M40.3098 42.1002L50.3085 46.6081L50.8945 43.0017L54.5639 44.291C55.2067 44.5137 55.7548 44.9481 56.1185 45.523C56.4821 46.098 56.6397 46.7794 56.5654 47.4556L56.1597 51.4225L51.0838 48.6457L48.5594 52.252L36.5503 46.4728L40.3098 42.1002Z" fill="white"/>
<path d="M29.049 47.7351C29.049 47.7351 37.8936 77.4874 30.0859 82.8248C30.0859 82.8248 31.1678 107.294 32.7275 110.774C45.3645 111.46 58.0293 111.46 70.6662 110.774C71.6886 101.495 72.0892 92.1575 71.8653 82.8248C71.8653 82.8248 69.0163 79.2184 69.0163 76.5137C69.0163 73.8089 67.3664 52.1709 61.9569 44.9582H58.9456C58.9456 44.9582 63.3003 53.8208 62.7052 61.6375C62.7052 61.6375 49.479 63.8915 39.859 62.5391C39.859 62.5391 37.0101 52.0176 33.8545 46.7613L29.049 47.7351Z" fill="#00B0FF"/>
<path opacity="0.2" d="M64.1298 84.6279H41.8155C41.8155 84.6279 40.4632 102.957 55.8081 101.758C67.5378 100.856 64.1298 84.6279 64.1298 84.6279Z" fill="black"/>
<path d="M56.7097 11.329C56.7097 11.329 59.694 20.7506 55.159 25.2676C50.624 29.7845 47.7931 11.8249 47.7931 11.8249L56.7097 11.329Z" fill="#263238"/>
<path d="M40.1205 33.5441C40.5152 34.1677 40.9745 34.7479 41.4909 35.2751C42.8155 36.6945 44.5694 37.6397 46.4833 37.9655C48.3971 38.2912 50.365 37.9795 52.0846 37.0783C54.3275 35.9537 56.0608 34.0206 56.9351 31.6688C57.0592 31.3415 57.1645 31.0073 57.2506 30.668C57.4632 29.8375 57.6228 28.9944 57.7285 28.1436C58.5489 21.8956 57.1785 13.574 51.183 11.0135C50.0241 10.513 48.7779 10.2461 47.5157 10.2281C46.2535 10.2102 45.0002 10.4415 43.8276 10.9089C42.655 11.3763 41.5862 12.0705 40.6824 12.9517C39.7786 13.833 39.0576 14.8839 38.5608 16.0443C37.957 17.4317 37.6942 18.9434 37.7944 20.4531C38.0739 26.4306 38.0198 30.2984 40.1205 33.5441Z" fill="#B97964"/>
<path opacity="0.1" d="M40.1205 33.5441C40.5152 34.1677 40.9745 34.7479 41.4909 35.2751C42.8155 36.6945 44.5694 37.6397 46.4833 37.9655C48.3971 38.2912 50.365 37.9795 52.0845 37.0783C54.3275 35.9537 56.0607 34.0206 56.9351 31.6688C57.0591 31.3415 57.1645 31.0074 57.2506 30.668C57.4632 29.8375 57.6228 28.9944 57.7285 28.1436C56.6837 28.7606 55.5182 29.1449 54.3114 29.2706C53.4862 29.1869 52.6609 29.4296 52.0124 29.9468C49.7404 28.5854 46.08 28.5133 44.394 28.0895C42.708 27.6658 42.2663 21.1473 42.2663 21.1473L40.1205 23.5004C39.1919 27.7649 39.291 31.0738 40.1205 33.5441Z" fill="black"/>
<path d="M48.4333 22.5989C48.4333 23.1578 48.7218 23.6357 49.1004 23.6357C49.4791 23.6357 49.7857 23.1759 49.7947 22.6079C49.8037 22.0399 49.4971 21.571 49.1275 21.571C48.7578 21.571 48.4513 22.0128 48.4333 22.5989Z" fill="#263238"/>
<path d="M54.8975 22.68C54.8525 23.248 55.195 23.7168 55.5647 23.7168C55.9343 23.7168 56.2409 23.257 56.2589 22.689C56.2769 22.121 55.9614 21.6522 55.5917 21.6522C55.2221 21.6522 54.9065 22.139 54.8975 22.68Z" fill="#263238"/>
<path d="M52.842 22.9325C53.5115 24.6906 54.4218 26.3473 55.5468 27.8551C55.1504 28.1327 54.6976 28.3195 54.2207 28.4021C53.7438 28.4847 53.2546 28.4611 52.7879 28.333L52.842 22.9325Z" fill="#A24E3F"/>
<path d="M46.4588 20.4801C46.5191 20.4882 46.5805 20.4809 46.6373 20.4588C46.694 20.4367 46.7443 20.4006 46.7833 20.3539C47.0334 20.0147 47.3592 19.7385 47.7349 19.5476C48.1106 19.3566 48.5257 19.2561 48.9471 19.254C48.9912 19.259 49.0358 19.2548 49.0783 19.2419C49.1207 19.229 49.16 19.2075 49.1938 19.1787C49.2276 19.15 49.2551 19.1147 49.2748 19.0749C49.2944 19.0351 49.3056 18.9917 49.3078 18.9474C49.3153 18.8603 49.2884 18.7737 49.2328 18.7063C49.1771 18.6388 49.0972 18.5959 49.0103 18.5868V18.5868C48.4846 18.5825 47.9655 18.7028 47.4953 18.9379C47.0252 19.173 46.6174 19.5161 46.3055 19.9392C46.2494 20.0074 46.2227 20.095 46.2312 20.1829C46.2396 20.2708 46.2825 20.3517 46.3506 20.408V20.408C46.3828 20.4374 46.4193 20.4617 46.4588 20.4801Z" fill="#263238"/>
<path d="M51.7871 31.2811C50.9626 31.4028 50.1208 31.321 49.3351 31.0428C48.5493 30.7647 47.8436 30.2987 47.2792 29.6853C47.2481 29.6507 47.2321 29.6051 47.2346 29.5586C47.2372 29.5121 47.2581 29.4685 47.2927 29.4374C47.3274 29.4063 47.373 29.3903 47.4195 29.3928C47.466 29.3953 47.5096 29.4162 47.5407 29.4509V29.4509C48.0734 30.0018 48.7273 30.4207 49.4504 30.6742C50.1736 30.9278 50.9459 31.009 51.706 30.9115C51.7508 30.9081 51.7953 30.9207 51.8317 30.9472C51.868 30.9736 51.8938 31.0121 51.9043 31.0557V31.0557C51.9082 31.0783 51.9075 31.1013 51.9023 31.1236C51.8971 31.1458 51.8874 31.1668 51.874 31.1853C51.8606 31.2038 51.8436 31.2194 51.824 31.2312C51.8044 31.243 51.7827 31.2508 51.7601 31.2541L51.7871 31.2811Z" fill="#263238"/>
<path d="M57.7014 20.4891C57.7664 20.5068 57.8348 20.5068 57.8998 20.4891C57.9798 20.4518 58.0422 20.3849 58.0741 20.3026C58.106 20.2203 58.1049 20.1289 58.0711 20.0474V20.0474C57.8566 19.5587 57.5275 19.129 57.1116 18.7947C56.6956 18.4604 56.2052 18.2314 55.6819 18.127C55.5937 18.1166 55.5049 18.1409 55.4343 18.1947C55.3636 18.2486 55.3166 18.3277 55.3032 18.4155C55.2951 18.5033 55.3202 18.5909 55.3736 18.6611C55.4271 18.7312 55.5049 18.7787 55.5917 18.7942V18.7942C56.0012 18.8885 56.383 19.077 56.707 19.3446C57.0309 19.6122 57.2881 19.9516 57.458 20.3359C57.4859 20.3768 57.5219 20.4115 57.5638 20.4378C57.6057 20.4642 57.6525 20.4817 57.7014 20.4891V20.4891Z" fill="#263238"/>
<path d="M43.0687 11.8069L43.5555 14.8813C43.0413 15.1501 42.6472 15.6028 42.4517 16.1491C42.2562 16.6955 42.2737 17.2954 42.5007 17.8295C43.5916 20.39 42.2482 24.4832 40.3098 26.1601C40.3098 26.1601 40.2106 25.0331 39.273 25.3307C38.3353 25.6282 38.7951 31.4885 40.7426 34.2293C40.7426 34.2293 37.8485 31.795 36.0543 25.6823C34.3954 20.0384 34.0438 15.296 35.1527 13.0601L43.0687 11.8069Z" fill="#263238"/>
<path d="M35.279 13.9437C35.279 13.9437 32.1505 9.11116 40.5714 6.56869C48.9922 4.02622 54.8525 7.64158 54.8525 7.64158C54.8525 7.64158 60.3341 14.1871 53.0493 15.26C45.8997 16.2968 35.279 13.9437 35.279 13.9437Z" fill="#263238"/>
<path d="M34.0348 26.3134C34.7935 27.9118 36.1553 29.1439 37.8214 29.7394C40.0303 30.5148 41.2835 28.5673 40.7966 26.4035C40.3549 24.4741 38.6779 21.6973 36.3879 21.8956C34.0979 22.094 33.1241 24.3389 34.0348 26.3134Z" fill="#B97964"/>
<path d="M38.7231 14.6198C38.7231 14.6198 41.1754 37.9619 53.0312 36.4202L51.6067 37.3849C51.6067 37.3849 40.95 38.9085 37.1813 14.8452L38.7231 14.6198Z" fill="#263238"/>
<path opacity="0.2" d="M38.7231 14.6198C38.7231 14.6198 41.1754 37.9619 53.0312 36.4202L51.6067 37.3849C51.6067 37.3849 40.95 38.9085 37.1813 14.8452L38.7231 14.6198Z" fill="black"/>
<path d="M33.016 16.5853C36.5142 15.6837 47.9012 17.586 53.2566 17.3516C58.612 17.1172 60.3521 16.2427 61.2266 15.4853C62.1012 14.728 58.8915 13.6822 58.8915 13.6822C58.8915 13.6822 58.4678 5.56791 51.8141 1.85338C49.7872 0.76435 47.5403 0.14791 45.2415 0.0502123C43.4976 -0.103287 41.7407 0.0960138 40.0754 0.636237C32.0333 3.34099 32.6464 14.16 32.6464 14.16C32.6464 14.16 29.5088 17.4418 33.016 16.5853Z" fill="#00B0FF"/>
<path opacity="0.2" d="M33.016 16.5853C36.5142 15.6837 47.9012 17.5861 53.2566 17.3516C58.612 17.1172 60.3521 16.2427 61.2266 15.4854C62.1012 14.728 58.8915 13.6822 58.8915 13.6822C58.8915 13.6822 55.5466 15.9722 52.1206 15.3231C48.6946 14.6739 38.8222 11.9782 32.6374 14.16C32.6374 14.2051 29.5088 17.4418 33.016 16.5853Z" fill="black"/>
<path opacity="0.2" d="M40.0666 0.645264C43.4836 1.19523 46.3777 4.33275 47.6759 7.28093C49.425 11.1848 55.5288 15.5485 54.7444 6.9203C54.654 5.9196 54.3447 4.95102 53.8384 4.08318C53.332 3.21535 52.6409 2.46949 51.8142 1.89847V1.89847C49.7874 0.809434 47.5405 0.192994 45.2417 0.0952968C43.4972 -0.0710533 41.7371 0.115996 40.0666 0.645264V0.645264Z" fill="black"/>
<path d="M89.266 70.419L95.1984 56.6247L97.777 58.509L92.9986 71.1402L89.266 70.419Z" fill="#263238"/>
<path opacity="0.2" d="M89.266 70.419L95.1984 56.6247L97.777 58.509L92.9986 71.1402L89.266 70.419Z" fill="white"/>
<path d="M99.9317 24.9813C99.9317 24.9813 100.265 27.5147 99.2195 27.7762C97.3495 28.3044 95.4457 28.705 93.5215 28.9753C92.6199 28.9753 92.0068 25.369 92.0068 24.9813C92.0068 24.5936 99.1473 22.3757 99.9317 24.9813Z" fill="#00B0FF"/>
<path opacity="0.7" d="M99.9317 24.9813C99.9317 24.9813 100.265 27.5147 99.2195 27.7762C97.3495 28.3044 95.4457 28.705 93.5215 28.9753C92.6199 28.9753 92.0068 25.369 92.0068 24.9813C92.0068 24.5936 99.1473 22.3757 99.9317 24.9813Z" fill="#184B63"/>
<path opacity="0.2" d="M27.7058 62.7194C28.3369 66.5151 29.0221 70.8337 29.6802 75.4228C32.6555 69.9501 30.2843 60.8441 30.2843 60.8441L27.7058 62.7194Z" fill="black"/>
<path d="M25.1633 48.6096C25.1633 48.6096 19.8349 50.3677 0.94671 81.3191L11.8378 88.0089C11.8378 88.0089 25.4698 69.301 29.0491 68.3994C29.0491 68.3994 33.53 52.9642 25.1633 48.6096Z" fill="#263238"/>
<path d="M1.46965 79.3717L13.7492 88.0089L11.3871 90.1546L5.9709e-05 82.8698L1.46965 79.3717Z" fill="#263238"/>
<path opacity="0.2" d="M1.46965 79.3717L13.7492 88.0089L11.3871 90.1546L5.9709e-05 82.8698L1.46965 79.3717Z" fill="white"/>
<path d="M123.503 24.0397L103.603 27.4693C99.273 27.9864 92.3257 28.7789 91.8248 28.7136C91.0467 28.5793 86.5576 26.1937 85.4888 25.4628C84.0399 24.6639 82.5436 23.9543 81.0083 23.3378L79.3957 34.3796L71.2785 32.4151L70.9738 33.883C70.9738 33.883 74.8494 40.3618 78.6682 41.1467C82.487 41.9316 86.3605 38.4319 87.6123 37.7296C88.8642 37.0273 92.8663 33.9403 102.323 33.2047L103.801 33.0627L107.516 32.6988L124.405 31.0051C124.88 30.9647 125.341 30.8284 125.762 30.6045C126.183 30.3806 126.553 30.0738 126.852 29.7026C127.151 29.3314 127.371 28.9035 127.5 28.4447C127.628 27.9859 127.663 27.5058 127.601 27.0334C127.539 26.561 127.381 26.1061 127.139 25.6961C126.896 25.2862 126.572 24.9297 126.188 24.6483C125.803 24.3668 125.366 24.1663 124.902 24.0587C124.437 23.9511 123.956 23.9387 123.487 24.0223L123.503 24.0397Z" fill="#455A64"/>
<path d="M80.2301 28.4478L72.1827 27.0935L72.3808 26.078C72.3808 26.078 77.326 23.3194 80.8646 24.102L80.2301 28.4478Z" fill="#455A64"/>
<path d="M87.6912 35.9315L87.7036 35.8019L87.7327 35.4429L87.8483 34.1002L88.2501 29.207L88.1371 29.2721C88.5214 29.5156 88.9194 29.737 89.329 29.935C89.7821 30.1773 90.2793 30.3262 90.791 30.3728C91.8095 30.3509 92.8693 30.2239 93.9885 30.1129C96.2108 29.8736 98.6388 29.5865 101.172 29.2641C101.492 29.193 101.825 29.2077 102.137 29.3065C102.356 29.3885 102.552 29.5222 102.709 29.6963C102.865 29.8703 102.977 30.0795 103.035 30.306C103.093 30.5326 103.096 30.7698 103.043 30.9976C102.99 31.2254 102.882 31.437 102.73 31.6144C102.533 31.8342 102.272 31.9872 101.983 32.052C101.691 32.1026 101.359 32.1314 101.06 32.1783L99.2253 32.4113L92.9339 33.2359C92.5022 33.2985 92.0819 33.4239 91.6865 33.6082C91.3122 33.7752 90.9741 33.9539 90.6533 34.1166C90.0212 34.4558 89.4869 34.7727 89.0582 35.0374C88.6296 35.3021 88.2965 35.5177 88.0735 35.658L87.8223 35.8338L87.7752 35.9185C87.7752 35.9185 87.7752 35.9185 87.8642 35.8657L88.1278 35.7138L89.1277 35.1272C89.5694 34.8697 90.103 34.5695 90.738 34.2404C91.0587 34.0777 91.4033 33.9027 91.7704 33.7487C92.1562 33.5682 92.5678 33.4489 92.9903 33.3952L99.2759 32.627L101.107 32.4006C101.419 32.3609 101.718 32.3306 102.034 32.2678C102.369 32.1851 102.671 32.0015 102.898 31.7419C103.072 31.5403 103.196 31.2995 103.257 31.04C103.318 30.7806 103.316 30.5101 103.251 30.2517C103.185 29.9932 103.058 29.7545 102.88 29.5557C102.702 29.357 102.479 29.2042 102.229 29.1104C101.886 29.0015 101.52 28.9832 101.167 29.0571C98.6454 29.36 96.195 29.7027 93.9835 29.9225C92.8745 30.0306 91.8009 30.167 90.8157 30.1904C90.3414 30.1486 89.8795 30.0162 89.455 29.8004C89.0481 29.608 88.6543 29.389 88.2762 29.1448L88.1654 29.0832L88.1567 29.2063L87.8462 34.1501L87.7746 35.4748L87.7564 35.8142L87.6912 35.9315Z" fill="#263238"/>
<g opacity="0.3">
<path opacity="0.3" d="M83.9442 34.9563L84.705 30.0155L82.3979 28.7666L81.674 33.779L83.9442 34.9563Z" fill="black"/>
</g>
<path d="M81.7755 29.5632C82.2296 30.0361 82.7749 30.4119 83.3784 30.6678C83.9209 31.0336 84.5316 31.2862 85.174 31.4106C84.7233 30.9338 84.1771 30.5574 83.5711 30.306C83.0286 29.9402 82.4179 29.6876 81.7755 29.5632V29.5632Z" fill="#263238"/>
<path d="M81.5398 31.0608C81.9945 31.5329 82.5413 31.9066 83.1463 32.1589C83.6867 32.5286 84.2982 32.7816 84.9418 32.9017C84.4881 32.4285 83.941 32.0546 83.3353 31.8036C82.7949 31.4339 82.1834 31.1809 81.5398 31.0608Z" fill="#263238"/>
<path d="M81.1736 32.4092C81.6271 32.8827 82.1725 33.2586 82.7764 33.5138C83.319 33.8796 83.9297 34.1322 84.572 34.2566C84.118 33.7837 83.5727 33.4079 82.9692 33.152C82.4267 32.7862 81.8159 32.5336 81.1736 32.4092V32.4092Z" fill="#263238"/>
<path d="M80.9777 23.3464L80.9566 23.5223L80.8811 24.026L80.5994 25.8819L79.7426 32.0228L78.8894 38.1572L78.6077 40.013L78.5221 40.5197C78.5104 40.6326 78.4945 40.692 78.488 40.6884L78.4989 40.5154L78.5513 40.0072L78.7439 38.1274C78.9538 36.5386 79.232 34.3824 79.5899 32.0061C79.9478 29.6298 80.2571 27.4482 80.5227 25.8819C80.657 25.1038 80.768 24.4748 80.8572 24.0383L80.9559 23.5389C80.9525 23.474 80.9598 23.4089 80.9777 23.3464V23.3464Z" fill="#263238"/>
</svg>
