<svg width="686" height="457" viewBox="0 0 686 457" fill="none" xmlns="http://www.w3.org/2000/svg">
<g clip-path="url(#clip0_602_3121)">
<path d="M615.854 127.275C615.854 127.275 626.501 131.305 614.839 153.963C603.177 176.621 595.1 187.827 595.1 187.827C595.1 187.827 593.033 193.092 597.469 193.923C601.906 194.755 611.683 193.229 613.641 198.667C615.671 204.306 611.564 209.635 603.25 214.205C594.936 218.775 577.1 229.643 575.49 230.657C573.88 231.672 572.325 234.066 575.252 235.117C578.179 236.168 600.159 238.554 598.412 248.891C596.664 259.229 571.383 268.341 568.639 269.383C565.895 270.425 565.237 271.595 565.456 273.094C565.676 274.593 573.139 274.703 579.359 275.635C585.579 276.567 592.631 278.724 591.122 284.62C589.612 290.515 574.658 302.836 538.29 306.272L521.36 306.757L512.213 292.48C494.46 260.627 496.133 241.296 500.14 236.726C504.146 232.156 509.917 236.726 514.207 241.296C518.497 245.866 522.814 251.981 524.177 251.35C525.54 250.719 526.125 249.476 525.43 246.625C524.735 243.773 517.921 217.797 525.43 210.494C532.94 203.191 547.382 219.945 549.907 221.764C552.431 223.583 553.565 220.85 553.456 219.022C553.346 217.194 552.166 196.327 551.27 186.858C550.373 177.389 552.422 171 558.221 169.492C563.81 168.03 568.09 176.941 571.292 180.122C574.493 183.303 577.694 178.614 577.694 178.614C577.694 178.614 582.368 165.626 594.442 143.178C606.515 120.73 616.083 127.43 616.083 127.43" fill="#76CADB"/>
<path d="M520.445 310.76C529.244 294.235 544.4 264.621 557.535 239.258C570.67 213.894 582.643 190.944 591.341 174.391C595.695 166.165 599.235 159.438 601.686 154.786C602.893 152.483 603.835 150.691 604.494 149.457C604.805 148.854 605.043 148.397 605.207 148.059C605.292 147.904 605.368 147.746 605.436 147.584C605.436 147.584 605.336 147.73 605.162 148.041L604.403 149.402L601.503 154.694C598.997 159.264 595.411 165.955 591.012 174.218C582.204 190.734 570.24 213.647 557.096 239.002C543.952 264.356 528.86 294.006 520.143 310.568" fill="#E0E0E0"/>
<path d="M600.021 201.345C599.616 201.417 599.217 201.527 598.832 201.674C598.082 201.912 597.003 202.286 595.686 202.762C593.042 203.731 589.42 205.147 585.451 206.783L575.325 211.015L572.252 212.277C571.863 212.404 571.489 212.573 571.136 212.779C571.541 212.724 571.937 212.62 572.316 212.468C573.066 212.231 574.145 211.847 575.463 211.363C578.097 210.375 581.701 208.904 585.67 207.268L595.841 203.109L598.924 201.866C599.308 201.735 599.676 201.56 600.021 201.345V201.345Z" fill="#E0E0E0"/>
<path d="M569.993 211.701C570.121 211.646 567.523 204.06 564.185 194.746C560.846 185.432 558.02 177.928 557.883 177.974C557.745 178.02 560.343 185.615 563.691 194.929C567.038 204.242 569.837 211.746 569.993 211.701Z" fill="#E0E0E0"/>
<path d="M551.544 251.551C551.356 251.176 551.126 250.823 550.858 250.5L548.855 247.758C547.181 245.436 544.867 242.219 542.452 238.572C540.037 234.925 537.943 231.562 536.452 229.112L534.687 226.206C534.487 225.838 534.254 225.49 533.992 225.164C534.114 225.566 534.289 225.95 534.513 226.306C534.879 227.019 535.428 228.043 536.132 229.295C537.54 231.8 539.58 235.209 542.013 238.865C544.446 242.521 546.797 245.711 548.562 248.005C549.477 249.129 550.172 250.043 550.693 250.655C550.944 250.983 551.229 251.284 551.544 251.551V251.551Z" fill="#E0E0E0"/>
<path d="M580.813 248.169C580.431 248.12 580.043 248.12 579.661 248.169L576.524 248.407C573.88 248.635 570.231 248.983 566.206 249.394C562.182 249.805 558.532 250.208 555.898 250.527L552.779 250.93C552.393 250.958 552.013 251.032 551.645 251.149C552.028 251.193 552.414 251.193 552.797 251.149L555.934 250.911C558.578 250.683 562.227 250.335 566.261 249.924C570.295 249.513 573.926 249.111 576.56 248.791L579.679 248.389C580.065 248.361 580.445 248.288 580.813 248.169V248.169Z" fill="#E0E0E0"/>
<path d="M569.023 285.406C568.533 285.362 568.041 285.362 567.551 285.406L563.526 285.698C560.142 285.963 555.459 286.374 550.291 286.85C545.123 287.325 540.449 287.764 537.065 288.157L533.059 288.614C532.565 288.648 532.075 288.728 531.595 288.851C532.088 288.899 532.584 288.899 533.077 288.851L537.101 288.559C540.486 288.294 545.169 287.883 550.337 287.398C555.504 286.914 560.178 286.484 563.563 286.091L567.569 285.643C568.06 285.609 568.547 285.529 569.023 285.406V285.406Z" fill="#E0E0E0"/>
<path d="M532.473 288.559C532.233 288.086 531.955 287.634 531.641 287.206L529.235 283.632C527.205 280.607 524.415 276.421 521.47 271.75C518.525 267.08 515.982 262.72 514.152 259.576C513.238 258.068 512.543 256.834 511.976 255.847C511.733 255.379 511.451 254.933 511.134 254.512C511.308 255.012 511.531 255.493 511.802 255.947C512.259 256.861 512.945 258.159 513.823 259.759C515.579 262.949 518.085 267.318 521.049 272.034C524.013 276.75 526.839 280.909 528.943 283.916C530.004 285.397 530.873 286.585 531.485 287.398C531.782 287.812 532.112 288.2 532.473 288.559Z" fill="#E0E0E0"/>
<path d="M206.98 341.671C231.383 325.74 237.768 294.957 237.685 267.107C237.685 262.464 238.335 257.583 236.258 253.443C234.182 249.303 229.096 246.35 224.88 248.178C221.377 249.696 219.749 253.662 217.709 256.916C214.994 261.26 211.103 264.746 206.486 266.97C203.486 268.414 199.791 269.237 196.919 267.537C192.985 265.206 192.684 259.658 192.857 255.033L193.772 229.222C193.946 224.597 194.111 219.89 192.803 215.457C191.495 211.024 188.458 206.856 184.095 205.495C179.732 204.133 174.226 206.491 173.119 210.979C172.671 212.807 172.991 214.817 172.808 216.728C172.625 218.638 171.655 220.731 169.817 221.215C167.979 221.7 166.158 220.301 164.814 218.93C160.186 214.123 157.14 208.017 154.295 201.948C151.451 195.879 148.707 189.673 144.545 184.454C140.383 179.235 134.483 175.013 127.898 174.4C121.312 173.788 114.114 177.682 112.239 184.116C110.364 190.551 113.958 197.305 117.928 202.707C123.823 210.713 130.844 217.828 138.773 223.829C140.2 224.908 141.737 226.078 142.24 227.805C143.155 230.913 140.136 233.883 137.063 234.797C133.587 235.839 129.855 235.364 126.242 235.711C122.629 236.059 118.669 237.539 117.196 240.857C115.157 245.519 118.952 250.582 122.739 253.946C130.326 260.682 139.017 266.062 148.432 269.849C151.789 271.193 155.338 272.399 158 274.867C160.661 277.335 162.198 281.549 160.433 284.748C158.667 287.947 154.396 288.861 150.856 288.093C147.316 287.325 144.188 285.287 140.795 283.907C134.52 281.311 126.306 281.494 122.062 286.85C119.273 290.378 118.888 295.387 120.105 299.728C121.321 304.07 123.947 307.853 126.755 311.354C136.56 323.611 149.292 333.619 163.872 339.185C178.451 344.752 192.053 346.552 206.861 341.662" fill="#76CADB"/>
<path d="M200.312 324.004C196.653 309.837 191.348 294.646 185.257 278.944C183.72 275.02 182.195 271.147 180.683 267.327C179.174 263.524 177.683 259.75 176 256.139C172.75 249.241 169.119 242.528 165.125 236.031C161.356 229.789 157.551 224.003 153.957 218.665C150.362 213.328 146.886 208.337 143.539 203.959C138.294 197.025 132.508 190.519 126.233 184.5C124.01 182.37 122.245 180.78 121.029 179.711L119.638 178.504C119.484 178.363 119.319 178.235 119.144 178.12C119.275 178.284 119.419 178.437 119.574 178.577L120.91 179.839C122.09 180.945 123.828 182.581 126.004 184.747C132.174 190.839 137.876 197.387 143.063 204.334C146.365 208.721 149.795 213.675 153.371 219.068C156.948 224.46 160.689 230.255 164.457 236.488C168.416 242.991 172.019 249.704 175.25 256.596C176.915 260.179 178.387 263.908 179.897 267.738C181.406 271.568 182.906 275.425 184.47 279.346C190.553 295.039 195.867 310.184 199.553 324.296" fill="#E0E0E0"/>
<path d="M175.817 256.103C176.052 255.469 176.224 254.814 176.33 254.147C176.613 252.876 176.961 251.03 177.354 248.736C178.15 244.166 179.037 237.768 179.979 230.785C180.921 223.802 181.9 217.441 182.769 212.889C183.189 210.604 183.555 208.767 183.82 207.496C184.007 206.847 184.115 206.178 184.141 205.504C183.862 206.12 183.647 206.763 183.5 207.423C183.134 208.666 182.677 210.494 182.183 212.761C181.159 217.331 180.089 223.647 179.137 230.666C178.186 237.686 177.391 243.855 176.759 248.645C176.455 250.814 176.201 252.642 176 254.129C175.864 254.777 175.802 255.44 175.817 256.103V256.103Z" fill="#E0E0E0"/>
<path d="M116.739 243.124C117.513 243.314 118.303 243.433 119.099 243.48C120.617 243.663 122.821 243.919 125.501 244.312C130.925 245.071 138.38 246.378 146.539 248.178C154.698 249.979 162.015 251.953 167.265 253.525C169.899 254.293 172.012 254.969 173.476 255.426C174.222 255.713 174.994 255.927 175.781 256.066C175.079 255.682 174.344 255.361 173.585 255.107C172.149 254.549 170.064 253.781 167.448 252.94C162.225 251.222 154.908 249.166 146.722 247.338C139.736 245.761 132.675 244.541 125.565 243.682C122.821 243.362 120.626 243.197 119.09 243.115C118.307 243.044 117.52 243.048 116.739 243.124V243.124Z" fill="#E0E0E0"/>
<path d="M199.644 322.889C199.823 322.674 199.968 322.434 200.074 322.176L201.154 320.065C202.068 318.237 203.367 315.495 204.904 312.158C207.986 305.45 211.947 296.045 216.172 285.652C220.398 275.26 224.276 265.773 227.212 259.009L230.706 251.003L231.621 248.818C231.745 248.569 231.837 248.305 231.895 248.032C231.717 248.247 231.572 248.487 231.466 248.745C231.173 249.312 230.816 250.016 230.377 250.856C229.462 252.684 228.173 255.426 226.636 258.753C223.554 265.471 219.593 274.876 215.358 285.323C211.123 295.77 207.264 305.194 204.327 311.957L200.861 319.9L199.946 322.084C199.806 322.336 199.704 322.607 199.644 322.889V322.889Z" fill="#E0E0E0"/>
<path d="M121.477 295.003C121.717 295.152 121.975 295.268 122.245 295.35L124.514 296.191L132.883 299.189C139.953 301.73 149.676 305.34 160.414 309.352C171.152 313.365 180.912 316.893 188.037 319.278C191.595 320.476 194.44 321.417 196.498 322.02L198.821 322.706C199.086 322.803 199.363 322.864 199.644 322.889C199.402 322.739 199.14 322.622 198.867 322.541L196.599 321.701L188.229 318.703C181.168 316.171 171.445 312.551 160.707 308.548C149.969 304.545 140.2 301.008 133.084 298.622C129.526 297.425 126.681 296.483 124.623 295.88L122.3 295.195C122.035 295.095 121.759 295.03 121.477 295.003V295.003Z" fill="#E0E0E0"/>
<path d="M226.142 204.361H523.82C531.181 204.361 537.147 210.324 537.147 217.678V405.368C537.147 412.723 531.181 418.685 523.82 418.685H226.142C218.782 418.685 212.815 412.723 212.815 405.368V217.678C212.815 210.324 218.782 204.361 226.142 204.361Z" fill="#455A64"/>
<path d="M549.824 404.847H198.437V407.333C198.437 411.648 200.152 415.786 203.206 418.837C206.259 421.888 210.4 423.602 214.718 423.602H533.543C537.861 423.602 542.003 421.888 545.056 418.837C548.109 415.786 549.824 411.648 549.824 407.333V404.847Z" fill="#455A64"/>
<path d="M222.429 212.88H528.44V393.87H222.429V212.88Z" fill="#263238"/>
<path d="M406.953 402.836L402.591 409.764H341.235L337.183 402.836H406.953Z" fill="#263238"/>
<path d="M231.091 219.004H519.147C520.798 219.004 522.137 220.342 522.137 221.992V390.296C522.137 391.947 520.798 393.285 519.147 393.285H231.091C229.439 393.285 228.1 391.947 228.1 390.296V221.992C228.1 220.342 229.439 219.004 231.091 219.004Z" fill="#EBEBEB"/>
<path d="M228.42 393.55H522.448L522.137 232.037H228.42V393.55Z" fill="#FAFAFA"/>
<path d="M498.027 225.758C498.027 226.223 498.165 226.677 498.424 227.064C498.682 227.45 499.05 227.752 499.48 227.929C499.91 228.107 500.383 228.153 500.84 228.061C501.296 227.97 501.715 227.745 502.043 227.416C502.371 227.086 502.595 226.667 502.684 226.211C502.774 225.754 502.726 225.282 502.547 224.853C502.367 224.424 502.065 224.057 501.677 223.8C501.289 223.543 500.834 223.407 500.368 223.409C500.06 223.409 499.755 223.47 499.47 223.588C499.186 223.706 498.927 223.879 498.709 224.098C498.492 224.316 498.32 224.575 498.202 224.86C498.085 225.145 498.026 225.45 498.027 225.758V225.758Z" fill="#263238"/>
<path d="M512.213 225.758C512.213 226.223 512.351 226.677 512.61 227.064C512.869 227.45 513.237 227.752 513.667 227.929C514.097 228.107 514.57 228.153 515.026 228.061C515.482 227.97 515.901 227.745 516.229 227.416C516.558 227.086 516.781 226.667 516.871 226.211C516.96 225.754 516.912 225.282 516.733 224.853C516.554 224.424 516.251 224.057 515.863 223.8C515.476 223.543 515.02 223.407 514.555 223.409C514.247 223.409 513.941 223.47 513.657 223.588C513.372 223.706 513.113 223.879 512.896 224.098C512.678 224.316 512.506 224.575 512.389 224.86C512.272 225.145 512.212 225.45 512.213 225.758V225.758Z" fill="#263238"/>
<path d="M505.427 225.758C505.427 226.223 505.565 226.677 505.823 227.064C506.082 227.45 506.45 227.752 506.88 227.929C507.31 228.107 507.783 228.153 508.239 228.061C508.695 227.97 509.114 227.745 509.443 227.416C509.771 227.086 509.994 226.667 510.084 226.211C510.174 225.754 510.126 225.282 509.946 224.853C509.767 224.424 509.464 224.057 509.077 223.8C508.689 223.543 508.233 223.407 507.768 223.409C507.146 223.411 506.551 223.66 506.112 224.1C505.673 224.541 505.427 225.137 505.427 225.758V225.758Z" fill="#263238"/>
<path d="M215.605 402.836C215.605 402.955 287.589 403.047 376.367 403.047C465.145 403.047 537.147 402.955 537.147 402.836C537.147 402.718 465.172 402.626 376.367 402.626C287.562 402.626 215.605 402.718 215.605 402.836Z" fill="#263238"/>
<path d="M337.585 362.026C337.585 362.154 355.22 362.264 376.971 362.264C398.722 362.264 416.356 362.154 416.356 362.026C416.356 361.898 398.722 361.789 376.971 361.789C355.22 361.789 337.585 361.944 337.585 362.026Z" fill="#E0E0E0"/>
<path d="M427.598 320.631H515.341V386.531H427.598V320.631Z" fill="#F5F5F5"/>
<path d="M515.305 386.576L484.7 345.583L465.693 371.194L452.824 357.484L427.561 386.494L515.305 386.576Z" fill="#E0E0E0"/>
<path d="M457.663 340.538C457.661 341.903 458.064 343.238 458.821 344.373C459.579 345.509 460.656 346.395 461.917 346.919C463.178 347.443 464.567 347.582 465.907 347.317C467.247 347.053 468.478 346.397 469.445 345.433C470.412 344.469 471.071 343.241 471.34 341.902C471.608 340.564 471.473 339.177 470.952 337.915C470.431 336.653 469.547 335.574 468.413 334.815C467.278 334.055 465.943 333.648 464.577 333.647C463.67 333.644 462.772 333.821 461.933 334.166C461.094 334.511 460.331 335.018 459.689 335.659C459.047 336.299 458.537 337.059 458.189 337.897C457.842 338.734 457.663 339.632 457.663 340.538V340.538Z" fill="#E0E0E0"/>
<path d="M238.271 320.732H326.015V386.631H238.271V320.732Z" fill="#F5F5F5"/>
<path d="M325.987 386.677L295.373 345.684L276.367 371.294L263.506 357.584L238.243 386.595L325.987 386.677Z" fill="#E0E0E0"/>
<path d="M268.336 340.639C268.334 342.006 268.738 343.343 269.497 344.48C270.255 345.618 271.335 346.505 272.598 347.029C273.861 347.553 275.252 347.692 276.594 347.426C277.936 347.16 279.169 346.503 280.137 345.537C281.105 344.571 281.764 343.34 282.032 341.999C282.3 340.659 282.163 339.269 281.64 338.006C281.117 336.743 280.231 335.663 279.093 334.903C277.956 334.143 276.619 333.738 275.251 333.738C273.418 333.738 271.661 334.465 270.364 335.759C269.068 337.052 268.338 338.808 268.336 340.639V340.639Z" fill="#E0E0E0"/>
<path d="M252.155 307.634C251.343 307.498 250.518 307.443 249.695 307.47C248.177 307.47 246.036 307.396 243.759 307.396H241.179L241.408 307.625C241.408 305.934 241.362 304.481 241.316 303.448C241.337 302.899 241.291 302.35 241.179 301.812C241.067 302.35 241.018 302.899 241.033 303.448C241.033 304.481 240.969 305.934 240.951 307.625V307.853H243.759C246.073 307.853 248.177 307.853 249.695 307.78C250.518 307.813 251.342 307.764 252.155 307.634Z" fill="#E0E0E0"/>
<path d="M274.107 307.634C270.455 307.317 266.783 307.317 263.131 307.634C266.783 307.951 270.455 307.951 274.107 307.634Z" fill="#E0E0E0"/>
<path d="M296.059 307.634C292.408 307.317 288.735 307.317 285.083 307.634C288.735 307.951 292.408 307.951 296.059 307.634Z" fill="#E0E0E0"/>
<path d="M318.011 307.634C314.36 307.317 310.687 307.317 307.035 307.634C310.687 307.951 314.36 307.951 318.011 307.634Z" fill="#E0E0E0"/>
<path d="M339.963 307.634C336.312 307.317 332.639 307.317 328.987 307.634C332.639 307.951 336.312 307.951 339.963 307.634Z" fill="#E0E0E0"/>
<path d="M361.915 307.634C358.263 307.317 354.591 307.317 350.939 307.634C354.591 307.951 358.263 307.951 361.915 307.634Z" fill="#E0E0E0"/>
<path d="M383.867 307.634C380.216 307.317 376.543 307.317 372.891 307.634C376.543 307.951 380.216 307.951 383.867 307.634Z" fill="#E0E0E0"/>
<path d="M405.819 307.634C402.168 307.317 398.495 307.317 394.843 307.634C398.495 307.951 402.168 307.951 405.819 307.634Z" fill="#E0E0E0"/>
<path d="M427.771 307.634C425.952 307.399 424.116 307.32 422.283 307.396C420.451 307.319 418.615 307.399 416.795 307.634C418.615 307.869 420.451 307.949 422.283 307.872C424.116 307.948 425.952 307.869 427.771 307.634V307.634Z" fill="#E0E0E0"/>
<path d="M449.723 307.634C447.904 307.399 446.068 307.32 444.235 307.396C442.403 307.319 440.567 307.399 438.747 307.634C440.567 307.869 442.403 307.949 444.235 307.872C446.068 307.948 447.904 307.869 449.723 307.634V307.634Z" fill="#E0E0E0"/>
<path d="M471.675 307.634C469.856 307.399 468.02 307.32 466.187 307.396C464.355 307.319 462.519 307.399 460.699 307.634C462.519 307.869 464.355 307.949 466.187 307.872C468.02 307.948 469.856 307.869 471.675 307.634V307.634Z" fill="#E0E0E0"/>
<path d="M493.627 307.634C491.808 307.399 489.972 307.32 488.139 307.396C486.307 307.319 484.471 307.399 482.651 307.634C484.471 307.869 486.307 307.949 488.139 307.872C489.972 307.948 491.808 307.869 493.627 307.634V307.634Z" fill="#E0E0E0"/>
<path d="M515.561 307.625C513.741 307.399 511.906 307.323 510.073 307.396C508.24 307.319 506.404 307.399 504.585 307.634C506.404 307.869 508.24 307.949 510.073 307.872C511.906 307.945 513.741 307.869 515.561 307.643V307.643V307.625Z" fill="#E0E0E0"/>
<path d="M515.561 285.689C515.244 289.338 515.244 293.008 515.561 296.657C515.878 293.008 515.878 289.338 515.561 285.689V285.689Z" fill="#E0E0E0"/>
<path d="M515.561 263.753C515.326 265.571 515.246 267.406 515.323 269.237C515.247 271.068 515.326 272.903 515.561 274.721C515.801 272.904 515.881 271.068 515.799 269.237C515.882 267.406 515.802 265.57 515.561 263.753V263.753Z" fill="#E0E0E0"/>
<path d="M515.561 241.817C515.326 243.635 515.246 245.47 515.323 247.301C515.247 249.132 515.326 250.967 515.561 252.785C515.801 250.968 515.881 249.132 515.799 247.301C515.882 245.47 515.802 243.634 515.561 241.817V241.817Z" fill="#E0E0E0"/>
<path d="M496.518 238.91C498.337 239.145 500.173 239.225 502.006 239.148C503.838 239.225 505.674 239.146 507.494 238.91C505.675 238.67 503.838 238.59 502.006 238.673C500.173 238.591 498.336 238.67 496.518 238.91Z" fill="#E0E0E0"/>
<path d="M474.566 238.91C476.385 239.145 478.221 239.225 480.054 239.148C481.886 239.225 483.722 239.146 485.542 238.91C483.723 238.67 481.886 238.59 480.054 238.673C478.221 238.591 476.384 238.67 474.566 238.91V238.91Z" fill="#E0E0E0"/>
<path d="M452.614 238.91C454.433 239.145 456.269 239.225 458.102 239.148C459.934 239.225 461.77 239.146 463.59 238.91C461.771 238.67 459.934 238.59 458.102 238.673C456.269 238.591 454.432 238.67 452.614 238.91Z" fill="#E0E0E0"/>
<path d="M430.662 238.91C432.481 239.145 434.317 239.225 436.15 239.148C437.982 239.225 439.818 239.146 441.638 238.91C439.819 238.67 437.982 238.59 436.15 238.673C434.317 238.591 432.48 238.67 430.662 238.91Z" fill="#E0E0E0"/>
<path d="M408.71 238.91C412.361 239.227 416.034 239.227 419.686 238.91C417.867 238.67 416.03 238.59 414.198 238.673C412.365 238.591 410.528 238.67 408.71 238.91Z" fill="#E0E0E0"/>
<path d="M386.758 238.91C390.409 239.227 394.082 239.227 397.734 238.91C394.082 238.594 390.409 238.594 386.758 238.91Z" fill="#E0E0E0"/>
<path d="M364.806 238.91C368.457 239.227 372.13 239.227 375.782 238.91C372.13 238.594 368.457 238.594 364.806 238.91Z" fill="#E0E0E0"/>
<path d="M342.854 238.91C346.505 239.227 350.178 239.227 353.83 238.91C350.178 238.594 346.505 238.594 342.854 238.91Z" fill="#E0E0E0"/>
<path d="M320.902 238.91C324.553 239.227 328.226 239.227 331.878 238.91C328.226 238.594 324.553 238.594 320.902 238.91Z" fill="#E0E0E0"/>
<path d="M298.95 238.91C302.601 239.227 306.274 239.227 309.926 238.91C306.274 238.594 302.601 238.594 298.95 238.91Z" fill="#E0E0E0"/>
<path d="M276.998 238.91C280.649 239.227 284.322 239.227 287.974 238.91C284.322 238.594 280.649 238.594 276.998 238.91Z" fill="#E0E0E0"/>
<path d="M255.046 238.91C258.697 239.227 262.37 239.227 266.022 238.91C262.37 238.594 258.697 238.594 255.046 238.91Z" fill="#E0E0E0"/>
<path d="M241.179 246.981C241.414 245.163 241.494 243.329 241.417 241.497C241.417 240.583 241.417 239.724 241.417 238.91L241.207 239.121C242.175 239.157 243.144 239.087 244.097 238.91C243.145 238.729 242.175 238.658 241.207 238.7H240.996V238.92C240.996 239.733 240.996 240.592 240.996 241.506C240.896 243.333 240.958 245.165 241.179 246.981V246.981Z" fill="#E0E0E0"/>
<path d="M241.179 268.917C241.414 267.099 241.494 265.265 241.417 263.433C241.494 261.602 241.414 259.767 241.179 257.949C240.939 259.767 240.859 261.602 240.942 263.433C240.859 265.265 240.939 267.1 241.179 268.917V268.917Z" fill="#E0E0E0"/>
<path d="M241.179 290.853C241.496 287.204 241.496 283.534 241.179 279.885C240.862 283.534 240.862 287.204 241.179 290.853V290.853Z" fill="#E0E0E0"/>
<path d="M337.585 384.246C337.585 384.383 355.22 384.483 376.971 384.483C398.722 384.483 416.356 384.383 416.356 384.246C416.356 384.108 398.722 384.008 376.971 384.008C355.22 384.008 337.585 384.118 337.585 384.246Z" fill="#E0E0E0"/>
<path d="M337.585 374.082C337.585 374.21 355.22 374.32 376.971 374.32C398.722 374.32 416.356 374.21 416.356 374.082C416.356 373.954 398.722 373.844 376.971 373.844C355.22 373.844 337.585 373.954 337.585 374.082Z" fill="#E0E0E0"/>
<path d="M578.838 295.706H583.576V423.42H578.838V295.706Z" fill="#263238"/>
<path d="M581.207 300.258C565.991 300.258 553.657 287.933 553.657 272.728C553.657 257.524 565.991 245.199 581.207 245.199C596.422 245.199 608.756 257.524 608.756 272.728C608.756 287.933 596.422 300.258 581.207 300.258Z" fill="#D52727"/>
<path d="M556.401 272.372C556.43 272.24 556.445 272.105 556.447 271.97C556.447 271.686 556.447 271.293 556.529 270.8C556.529 270.535 556.529 270.251 556.584 269.932C556.639 269.612 556.694 269.274 556.748 268.899C556.857 268.037 557.031 267.184 557.27 266.349C557.847 264.035 558.772 261.822 560.014 259.786C561.642 257.084 563.772 254.717 566.288 252.812C569.563 250.324 573.411 248.698 577.479 248.085C581.546 247.472 585.703 247.89 589.567 249.303C590.665 249.698 591.735 250.168 592.768 250.71C593.289 250.994 593.792 251.323 594.305 251.624C594.821 251.932 595.316 252.274 595.786 252.648C596.751 253.377 597.668 254.168 598.53 255.015C599.401 255.909 600.207 256.861 600.945 257.867C602.469 259.918 603.652 262.202 604.448 264.63C605.276 267.13 605.72 269.74 605.765 272.372C605.733 275.001 605.307 277.61 604.503 280.114C603.704 282.545 602.518 284.832 600.991 286.886C600.251 287.888 599.448 288.84 598.585 289.738C597.707 290.586 596.776 291.377 595.796 292.105C595.325 292.479 594.83 292.821 594.314 293.129C593.802 293.431 593.299 293.76 592.777 294.043C591.746 294.589 590.676 295.059 589.576 295.45C584.198 297.404 578.307 297.426 572.915 295.513C567.523 293.6 562.965 289.871 560.023 284.967C558.78 282.935 557.855 280.725 557.279 278.414C557.041 277.575 556.866 276.719 556.758 275.854C556.694 275.489 556.63 275.141 556.593 274.822C556.556 274.502 556.593 274.218 556.538 273.962C556.502 273.457 556.474 273.064 556.456 272.783C556.454 272.648 556.439 272.513 556.41 272.381C556.398 272.515 556.398 272.65 556.41 272.783C556.41 273.076 556.41 273.469 556.41 273.962C556.41 274.23 556.41 274.535 556.41 274.876C556.41 275.196 556.502 275.534 556.547 275.918C556.647 276.788 556.809 277.649 557.032 278.496C557.602 280.838 558.528 283.078 559.776 285.141C561.576 288.188 564.004 290.818 566.9 292.856C569.795 294.893 573.091 296.292 576.569 296.959C580.964 297.785 585.499 297.418 589.704 295.898C590.827 295.499 591.921 295.023 592.978 294.473C593.5 294.189 594.012 293.86 594.533 293.559C595.068 293.236 595.578 292.876 596.061 292.48C597.063 291.745 598.014 290.942 598.905 290.076C599.789 289.166 600.611 288.198 601.366 287.179C602.921 285.087 604.131 282.761 604.951 280.287C606.671 275.163 606.671 269.618 604.951 264.493C604.131 262.02 602.921 259.694 601.366 257.602C600.61 256.586 599.788 255.621 598.905 254.714C598.015 253.833 597.064 253.014 596.061 252.264C595.585 251.882 595.08 251.536 594.552 251.231C594.03 250.92 593.518 250.582 592.997 250.317C591.938 249.77 590.844 249.294 589.722 248.891C585.517 247.373 580.981 247.01 576.588 247.84C573.105 248.503 569.803 249.901 566.904 251.94C564.005 253.98 561.575 256.614 559.776 259.667C558.526 261.732 557.6 263.976 557.032 266.321C556.808 267.168 556.646 268.029 556.547 268.899C556.502 269.274 556.437 269.621 556.41 269.941C556.383 270.261 556.41 270.544 556.41 270.855C556.41 271.357 556.41 271.769 556.41 272.034C556.398 272.146 556.395 272.259 556.401 272.372Z" fill="white"/>
<path d="M566.856 269.292H595.549V275.269H566.856V269.292Z" fill="#FAFAFA"/>
<path d="M211.835 237.431L480.194 258.96L473.94 336.811L205.58 315.282L211.835 237.431Z" fill="white"/>
<path d="M205.562 315.248C205.654 314.124 207.931 286.466 211.965 237.412L211.809 237.549L480.145 259.183L479.935 258.927C477.776 285.799 475.672 311.939 473.678 336.772L473.925 336.562L282.12 321.271L205.562 315.248L206.87 315.367L210.748 315.696L225.795 316.93L281.946 321.5L473.898 337.038H474.127V336.8C476.13 311.985 478.233 285.826 480.392 258.955V258.717H480.154L211.837 237.247H211.681V237.393C207.821 286.457 205.644 314.124 205.562 315.248Z" fill="#263238"/>
<path d="M388.087 260.954L472.831 266.882L468.372 330.533L383.628 324.605L388.087 260.954Z" fill="#5483DE"/>
<path d="M282.797 315.22C284.603 315.607 286.439 315.84 288.285 315.915L288.541 315.696V315.431V315.156C288.541 314.964 288.541 314.791 288.541 314.608C288.541 314.261 288.596 313.922 288.614 313.584C288.614 312.981 288.678 312.405 288.715 311.839C288.792 311.305 288.792 310.763 288.715 310.23C288.537 310.739 288.435 311.272 288.413 311.811C288.349 312.369 288.285 312.944 288.211 313.548C288.211 313.877 288.147 314.224 288.12 314.571L288.065 315.111V315.394V315.65L288.321 315.431C286.489 315.205 284.641 315.135 282.797 315.22Z" fill="#E0E0E0"/>
<path d="M257.936 313.127C259.976 313.532 262.042 313.785 264.119 313.886C266.185 314.145 268.267 314.24 270.348 314.169C268.308 313.765 266.242 313.511 264.165 313.411C262.099 313.152 260.017 313.057 257.936 313.127V313.127Z" fill="#E0E0E0"/>
<path d="M233.148 311.034C235.188 311.439 237.255 311.692 239.332 311.793C241.398 312.046 243.48 312.141 245.561 312.076C243.521 311.672 241.454 311.418 239.377 311.318C237.312 311.058 235.229 310.964 233.148 311.034V311.034Z" fill="#E0E0E0"/>
<path d="M215.733 304.06C215.336 305.848 215.101 307.669 215.029 309.499C215.468 310.02 215.157 309.645 215.249 309.764H215.532H215.806H216.355L217.38 309.837L219.118 309.937C219.654 310.015 220.2 310.015 220.736 309.937C220.223 309.761 219.687 309.659 219.145 309.636L217.416 309.435L216.392 309.334L215.843 309.288H215.569H215.294C215.386 309.398 215.075 309.033 215.505 309.544C215.736 307.726 215.813 305.892 215.733 304.06V304.06Z" fill="#E0E0E0"/>
<path d="M217.462 283.596C216.835 286.969 216.529 290.393 216.547 293.824C216.925 292.151 217.149 290.446 217.215 288.733C217.451 287.031 217.534 285.312 217.462 283.596Z" fill="#E0E0E0"/>
<path d="M219.191 263.141C218.807 264.813 218.58 266.517 218.514 268.232C218.293 269.934 218.229 271.654 218.322 273.368C218.705 271.693 218.928 269.985 218.99 268.268C219.21 266.568 219.277 264.852 219.191 263.141V263.141Z" fill="#E0E0E0"/>
<path d="M225.987 247.904C224.18 247.518 222.344 247.286 220.499 247.21L220.243 247.429V247.694V247.968C220.243 248.16 220.243 248.334 220.243 248.517C220.243 248.864 220.197 249.202 220.169 249.54C220.169 250.144 220.105 250.719 220.078 251.286C219.998 251.819 219.998 252.361 220.078 252.895C220.256 252.385 220.358 251.852 220.38 251.313C220.444 250.756 220.508 250.18 220.581 249.577C220.581 249.248 220.645 248.9 220.682 248.553L220.727 248.014V247.731V247.475L220.462 247.694C222.294 247.919 224.142 247.989 225.987 247.904V247.904Z" fill="#E0E0E0"/>
<path d="M250.802 249.997C248.762 249.591 246.696 249.337 244.618 249.239C242.556 248.98 240.476 248.885 238.399 248.955C240.438 249.362 242.505 249.615 244.582 249.714C246.644 249.973 248.724 250.068 250.802 249.997V249.997Z" fill="#E0E0E0"/>
<path d="M275.626 252.09C273.586 251.684 271.52 251.431 269.442 251.332C267.377 251.078 265.294 250.983 263.214 251.048C265.256 251.453 267.326 251.707 269.406 251.807C271.468 252.066 273.548 252.161 275.626 252.09V252.09Z" fill="#E0E0E0"/>
<path d="M293.05 259.064C293.436 257.274 293.668 255.455 293.745 253.626C293.315 253.105 293.626 253.48 293.526 253.37H293.251H292.968L292.428 253.324L291.404 253.251L289.657 253.151C289.12 253.073 288.575 253.073 288.038 253.151C288.551 253.325 289.087 253.427 289.629 253.452L291.367 253.653L292.392 253.754L292.931 253.8H293.206H293.489L293.27 253.544C293.03 255.373 292.957 257.221 293.05 259.064V259.064Z" fill="#E0E0E0"/>
<path d="M291.321 279.529C291.698 277.852 291.922 276.145 291.989 274.428C292.215 272.729 292.28 271.012 292.181 269.301C291.803 270.974 291.58 272.678 291.513 274.392C291.287 276.094 291.223 277.814 291.321 279.529Z" fill="#E0E0E0"/>
<path d="M289.593 299.984C289.971 298.311 290.194 296.607 290.26 294.893C290.486 293.191 290.551 291.471 290.452 289.756C290.075 291.432 289.851 293.14 289.785 294.856C289.559 296.556 289.494 298.273 289.593 299.984V299.984Z" fill="#E0E0E0"/>
<path d="M468.602 329.506L441.885 287.947L421.835 311.336L410.374 297.251L384.069 323.501L468.602 329.506Z" fill="white"/>
<path d="M416.173 281.256C416.079 282.572 416.377 283.887 417.031 285.034C417.684 286.181 418.664 287.108 419.845 287.699C421.026 288.29 422.355 288.517 423.666 288.353C424.976 288.188 426.208 287.639 427.206 286.775C428.204 285.911 428.923 284.77 429.273 283.497C429.622 282.224 429.586 280.877 429.168 279.624C428.751 278.372 427.971 277.272 426.928 276.463C425.885 275.653 424.625 275.171 423.308 275.077C421.542 274.954 419.8 275.535 418.463 276.694C417.125 277.852 416.302 279.492 416.173 281.256V281.256Z" fill="#F5F5F5"/>
<g opacity="0.2">
<path opacity="0.2" d="M468.602 329.506L441.885 287.947L421.835 311.336L410.374 297.251L384.069 323.501L468.602 329.506Z" fill="black"/>
</g>
<g opacity="0.2">
<path opacity="0.2" d="M416.173 281.256C416.079 282.572 416.377 283.887 417.031 285.034C417.684 286.181 418.664 287.108 419.845 287.699C421.026 288.29 422.355 288.517 423.666 288.353C424.976 288.188 426.208 287.639 427.206 286.775C428.204 285.911 428.923 284.77 429.273 283.497C429.622 282.224 429.586 280.877 429.168 279.624C428.751 278.372 427.971 277.272 426.928 276.463C425.885 275.653 424.625 275.171 423.308 275.077C421.542 274.954 419.8 275.535 418.463 276.694C417.125 277.852 416.302 279.492 416.173 281.256V281.256Z" fill="black"/>
</g>
<path d="M300.459 270.946C300.459 271.083 316.877 272.701 337.155 274.602C357.433 276.503 373.888 277.883 373.907 277.746C373.925 277.609 357.443 276.001 337.201 274.09C316.959 272.18 300.468 270.818 300.459 270.946Z" fill="#263238"/>
<path d="M298.328 283.157C298.328 283.294 314.938 284.93 335.436 286.813C355.933 288.696 372.58 290.131 372.599 290.003C372.617 289.875 355.997 288.23 335.481 286.347C314.966 284.464 298.346 283.029 298.328 283.157Z" fill="#263238"/>
<path d="M296.206 295.377C296.206 295.505 312.99 297.16 333.707 299.033C354.424 300.907 371.208 302.388 371.208 302.26C371.208 302.132 354.433 300.477 333.707 298.558C312.981 296.639 296.215 295.222 296.206 295.377Z" fill="#263238"/>
<path d="M295.767 307.479C295.767 307.616 312.569 309.307 333.314 311.19C354.058 313.072 370.906 314.544 370.916 314.416C370.925 314.288 354.113 312.588 333.359 310.714C312.606 308.841 295.776 307.351 295.767 307.479Z" fill="#263238"/>
<path d="M336.894 262.885L375.561 265.987L375.315 269.049L336.648 265.947L336.894 262.885Z" fill="#5483DE"/>
<path d="M253.527 291.118C253.655 291.118 254.158 286.621 254.643 281.064C255.128 275.507 255.412 270.964 255.274 270.955C255.137 270.946 254.652 275.452 254.168 281.009C253.683 286.566 253.363 291.109 253.527 291.118Z" fill="#E0E0E0"/>
<path d="M245.076 280.543C245.076 280.671 249.411 281.055 254.771 281.393C260.131 281.731 264.494 281.905 264.494 281.777C261.279 281.326 258.043 281.039 254.799 280.918C249.439 280.598 245.085 280.415 245.076 280.543Z" fill="#E0E0E0"/>
<path d="M211.818 237.393C211.818 237.393 212.038 237.329 212.468 237.165L214.297 236.452L221.505 233.655L248.149 223.226L337.128 188.183H336.936L348.195 193.768L441.491 239.952L469.773 253.891L477.456 257.657L479.468 258.625C479.916 258.845 480.154 258.945 480.154 258.945L479.487 258.58L477.502 257.574L469.837 253.726L441.61 239.642L348.387 193.329L337.128 187.745H337.036H336.936L248.012 222.925L221.486 233.49L214.315 236.37L212.486 237.128L211.818 237.393Z" fill="#263238"/>
<path d="M266.461 109.68C266.943 108.616 267.721 107.712 268.702 107.076C269.682 106.439 270.825 106.097 271.994 106.09C273.163 106.082 274.31 106.409 275.299 107.032C276.288 107.656 277.077 108.549 277.574 109.607L287.132 110.393L277.473 129.432L271.418 118.299C270.753 118.237 270.103 118.06 269.497 117.778C268.766 117.446 268.107 116.972 267.559 116.386C267.01 115.799 266.583 115.11 266.301 114.358C266.019 113.606 265.888 112.805 265.915 112.003C265.943 111.2 266.128 110.411 266.461 109.68V109.68Z" fill="#263238"/>
<path d="M321.633 82.1138L315.395 79.454L330.442 75.6701C331.107 74.633 332.07 73.8208 333.205 73.34C334.34 72.8591 335.594 72.7321 336.802 72.9755C338.011 73.2188 339.118 73.8213 339.978 74.7038C340.838 75.5864 341.411 76.708 341.622 77.9216C341.833 79.1353 341.673 80.3844 341.162 81.5053C340.65 82.6263 339.812 83.5668 338.757 84.2037C337.702 84.8405 336.479 85.1441 335.248 85.0745C334.017 85.005 332.836 84.5655 331.859 83.8138L317.572 92.5517L321.633 82.1138Z" fill="#263238"/>
<path d="M201.227 268.99V268.862L304.483 76.5201L305.069 75.4324L321.332 82.845L243.466 287.91L243.42 288.038L197.047 361.697L196.132 361.56L195.062 361.405L194.22 361.277L203.815 346.04L198.208 331.608L183.363 337.092L176.823 358.708L176.046 358.599L175.058 358.453L174.143 358.325L201.227 268.99ZM194.55 300.149L213.081 295.396L202.333 274.419L194.55 300.149ZM214.718 294.975L237.512 289.126L203.87 273.807L214.718 294.975ZM206.111 265.398L229.792 258.854L220.078 239.377L206.111 265.398ZM231.411 258.415L252.256 252.657L221.569 238.682L231.411 258.415ZM222.968 233.984L244.792 226.38L237.008 207.825L222.968 233.984ZM246.347 225.84L265.555 219.159L238.399 206.802L246.347 225.84ZM240.1 202.076L259.957 193.503L254.076 176.027L240.1 202.076ZM261.476 192.854L278.489 185.542L255.485 175.068L261.476 192.854ZM256.902 170.726L257.012 170.781L274.876 161.129L270.906 144.631L256.902 170.726ZM274.519 137.923L290.068 127.466L288.01 112.733L274.519 137.923ZM291.623 126.443L304.145 118.034L289.51 111.371L291.623 126.443ZM304.895 81.346L291.669 106.024L305.27 94.5716L304.895 81.346ZM307.419 112.084L317.023 86.83L306.962 95.3119L307.419 112.084ZM306.88 93.1823L317.682 84.088L306.477 78.9879L306.88 93.1823ZM305.334 96.6464L292.245 107.614L305.828 113.802L305.334 96.6464ZM304.483 119.807L291.87 128.271L294.413 146.359L304.483 119.807ZM290.352 129.294L275.196 139.467L292.913 147.529L290.352 129.294ZM272.269 143.105L276.403 160.297L291.779 151.971L272.269 143.105ZM291.477 154.018L276.787 161.952L281.315 180.78L291.477 154.018ZM275.287 162.765L258.906 171.613L279.714 181.063L275.287 162.765ZM278.946 187.096L262.015 194.408L268.665 214.178L278.946 187.096ZM260.497 195.057L241.518 203.283L267.192 214.964L260.497 195.057ZM266.205 220.649L246.997 227.339L255.741 248.206L266.205 220.649ZM245.433 227.888L224.651 235.127L254.085 248.517L245.433 227.888ZM253.536 254.019L232.152 259.923L243.018 281.713L253.536 254.019ZM230.496 260.362L207.254 266.76L241.463 282.298L230.496 260.362ZM238.728 290.524L215.422 296.502L224.194 313.612L238.728 290.524ZM213.785 296.922L194.824 301.785L222.923 314.581L213.785 296.922ZM204.84 344.359L217.288 324.58L199.69 331.097L204.84 344.359ZM199.096 329.561L218.724 322.249L219.209 321.49L191.769 309.014L191.485 309.928L199.096 329.561ZM197.55 330.128L190.781 312.588L183.94 335.2L197.55 330.128Z" fill="#263238"/>
<path d="M337.192 167.527C337.192 167.527 337.192 166.979 337.192 165.9C337.192 164.822 337.192 163.231 337.192 161.147C337.192 156.97 337.192 150.828 337.247 142.959C337.247 127.211 337.292 104.571 337.329 76.8766V76.7029H337.155L308.243 73.641H308.142L308.069 73.7233L232.655 157.948L122.895 280.717L89.6373 317.944L80.6187 328.089L78.2864 330.731C77.765 331.325 77.4997 331.645 77.4997 331.645C77.4997 331.645 77.7833 331.352 78.3229 330.731C78.8626 330.109 79.6583 329.268 80.6919 328.117C82.7773 325.814 85.8323 322.413 89.7746 318.063L123.105 280.918L233.002 158.259L308.371 74.034L308.197 74.1071L337.174 77.1051L337.009 76.9223C337.009 104.598 337.064 127.256 337.091 143.004C337.091 150.874 337.091 157.016 337.091 161.193C337.091 163.277 337.091 164.849 337.091 165.946C337.091 167.043 337.192 167.527 337.192 167.527Z" fill="#263238"/>
<path d="M335.527 141.707H339.46C339.652 141.707 339.808 141.862 339.808 142.054V151.276C339.808 151.468 339.652 151.623 339.46 151.623H335.527C335.335 151.623 335.18 151.468 335.18 151.276V142.054C335.18 141.862 335.335 141.707 335.527 141.707Z" fill="#263238"/>
<path d="M329.637 153.159H344.829C345.278 153.159 345.708 152.981 346.026 152.664C346.343 152.347 346.521 151.917 346.521 151.468V151.468C346.521 151.02 346.343 150.59 346.026 150.272C345.708 149.955 345.278 149.777 344.829 149.777H329.628C329.179 149.777 328.748 149.955 328.431 150.272C328.114 150.59 327.935 151.02 327.935 151.468V151.468C327.935 151.691 327.98 151.912 328.065 152.117C328.151 152.323 328.276 152.51 328.434 152.667C328.592 152.824 328.78 152.948 328.986 153.033C329.193 153.117 329.414 153.16 329.637 153.159V153.159Z" fill="#263238"/>
<path d="M336.131 180.323L336.186 178.157L338.427 179.144C338.504 179.943 338.504 180.748 338.427 181.548C338.423 181.677 338.395 181.804 338.344 181.923C338.205 182.102 338.013 182.233 337.796 182.297C336.814 182.671 335.999 183.384 335.5 184.308C335.335 184.644 335.244 185.011 335.233 185.384C335.221 185.758 335.288 186.13 335.431 186.476C335.574 186.821 335.788 187.133 336.06 187.389C336.332 187.646 336.656 187.842 337.009 187.964C337.705 188.175 338.457 188.101 339.098 187.758C339.74 187.415 340.219 186.832 340.43 186.136C340.43 185.761 340.43 185.222 340.942 185.222C341.683 185.149 342.003 186.228 341.985 186.794C341.866 190.075 338.774 191.117 337.466 191.163C336.578 191.223 335.691 191.033 334.905 190.615C334.284 190.256 333.748 189.768 333.334 189.182C332.921 188.597 332.639 187.929 332.509 187.224C331.795 182.91 336.36 180.597 336.131 180.323Z" fill="#263238"/>
<path d="M334.219 179.245L324.505 155.892C324.304 155.405 324.226 154.876 324.278 154.351C324.33 153.827 324.51 153.323 324.803 152.885C325.096 152.447 325.493 152.087 325.958 151.839C326.423 151.59 326.942 151.46 327.469 151.459H346.887C347.416 151.457 347.936 151.586 348.402 151.834C348.868 152.083 349.266 152.442 349.559 152.881C349.853 153.32 350.033 153.824 350.084 154.35C350.135 154.875 350.055 155.405 349.851 155.892L340.146 179.245C339.902 179.829 339.491 180.329 338.964 180.68C338.436 181.031 337.817 181.219 337.183 181.219C336.549 181.219 335.929 181.031 335.402 180.68C334.874 180.329 334.463 179.829 334.219 179.245Z" fill="#E0E0E0"/>
<path d="M345.899 153.113L348.415 155.618C348.415 155.709 348.415 155.81 348.369 155.901L347.546 157.875L342.78 153.113H345.899Z" fill="#F29F33"/>
<path d="M336.524 153.113H339.652L346.631 160.087L345.707 162.29L336.524 153.113Z" fill="#F29F33"/>
<path d="M329.847 165.178L327.634 159.84L341.125 173.322L340.21 175.525L329.847 165.178Z" fill="#F29F33"/>
<path d="M332.024 170.525L339.241 177.736L339.003 178.321C338.899 178.583 338.739 178.818 338.536 179.012C338.332 179.206 338.089 179.354 337.823 179.446L334.247 175.863L332.024 170.525Z" fill="#F29F33"/>
<path d="M330.277 153.113H333.396L344.793 164.493L343.878 166.704L330.277 153.113Z" fill="#F29F33"/>
<path d="M325.85 154.932C325.881 154.536 326.037 154.161 326.295 153.858C326.553 153.556 326.9 153.344 327.286 153.25L343 168.907L342.085 171.119L325.85 154.932Z" fill="#F29F33"/>
<path d="M87.1036 326.609H70.786C70.1455 326.609 69.5313 326.863 69.0785 327.316C68.6256 327.768 68.3712 328.382 68.3712 329.022V336.462H89.5184V329.04C89.5208 328.722 89.4601 328.406 89.3398 328.111C89.2196 327.816 89.0421 327.548 88.8176 327.322C88.5932 327.096 88.3261 326.917 88.032 326.794C87.7378 326.672 87.4223 326.609 87.1036 326.609V326.609Z" fill="#263238"/>
<path d="M126.471 334.012H129.938V313.411C129.936 312.499 129.794 311.592 129.517 310.723L127.77 305.331C127.759 305.31 127.743 305.292 127.722 305.28C127.702 305.267 127.679 305.261 127.655 305.261C127.632 305.261 127.608 305.267 127.588 305.28C127.568 305.292 127.552 305.31 127.541 305.331L125.501 308.987L126.041 310.659C126.324 311.546 126.469 312.471 126.471 313.401V334.012Z" fill="#263238"/>
<path d="M41.0318 337.76C41.5134 336.583 42.2851 335.546 43.275 334.747C44.2649 333.948 45.4408 333.413 46.6936 333.19L133.404 333.144V318.748C133.404 318.288 133.495 317.832 133.672 317.407C133.848 316.981 134.107 316.595 134.433 316.27C134.76 315.945 135.147 315.687 135.573 315.512C135.999 315.336 136.456 315.247 136.916 315.248H178.817C179.56 315.247 180.283 315.482 180.883 315.919C181.483 316.356 181.929 316.973 182.156 317.679L183.409 321.646H178.744C178.211 321.645 177.685 321.761 177.201 321.985C176.718 322.21 176.289 322.537 175.945 322.944C175.609 323.344 175.368 323.815 175.241 324.322C175.115 324.828 175.105 325.357 175.214 325.868L179.695 347.119C179.886 347.915 180.338 348.624 180.98 349.133C181.622 349.642 182.416 349.921 183.235 349.925H192.135C192.253 351.279 192.172 352.643 191.897 353.974L191.403 356.104L214.343 360.61C214.526 360.646 214.693 360.734 214.827 360.864C214.96 360.994 215.052 361.159 215.093 361.341L217.252 367.136C217.39 367.399 217.495 367.678 217.563 367.967C218.02 369.878 217.682 373.077 216.529 373.077H191.952L192.995 374.32L194.385 378.634H38.2604C38.2238 364.686 38.5897 343.664 41.0318 337.76ZM149.246 324.58L151.551 345.492C151.551 345.757 151.624 346.022 151.67 346.278C152.133 348.345 153.296 350.189 154.963 351.498C156.63 352.807 158.697 353.501 160.817 353.462H171.116C171.589 353.462 172.056 353.356 172.483 353.152C172.91 352.947 173.286 352.651 173.583 352.283C173.881 351.914 174.092 351.485 174.201 351.025C174.311 350.564 174.316 350.086 174.217 349.623L169.369 324.525C169.205 323.731 168.773 323.018 168.145 322.506C167.517 321.993 166.731 321.712 165.921 321.71H151.835C151.463 321.71 151.096 321.789 150.756 321.94C150.417 322.092 150.114 322.314 149.866 322.591C149.618 322.867 149.432 323.193 149.319 323.547C149.206 323.901 149.168 324.275 149.21 324.644L149.246 324.58Z" fill="#F7C475"/>
<path d="M110.848 389.035L177.299 389.949C177.729 389.949 178.497 388.669 178.497 388.24V380.827C178.497 380.619 178.414 380.419 178.267 380.271C178.119 380.124 177.919 380.041 177.711 380.041H110.848C110.746 380.041 110.644 380.062 110.549 380.101C110.454 380.141 110.368 380.199 110.295 380.272C110.223 380.345 110.166 380.432 110.127 380.527C110.089 380.622 110.07 380.724 110.071 380.827V388.24C110.069 388.343 110.087 388.446 110.125 388.543C110.163 388.639 110.22 388.727 110.292 388.801C110.365 388.875 110.451 388.934 110.547 388.974C110.642 389.014 110.745 389.035 110.848 389.035V389.035Z" fill="#455A64"/>
<path d="M149.246 324.58L151.551 345.492C151.551 345.757 151.624 346.013 151.67 346.278C152.125 348.348 153.287 350.196 154.955 351.505C156.624 352.814 158.696 353.502 160.817 353.453H171.098C171.571 353.451 172.039 353.344 172.465 353.139C172.892 352.934 173.268 352.636 173.565 352.267C173.862 351.898 174.073 351.468 174.183 351.007C174.292 350.547 174.298 350.068 174.198 349.605L169.351 324.507C169.185 323.714 168.752 323.002 168.125 322.489C167.497 321.977 166.713 321.695 165.902 321.691H151.835C151.463 321.693 151.095 321.773 150.756 321.926C150.416 322.078 150.113 322.301 149.866 322.578C149.618 322.856 149.432 323.182 149.319 323.537C149.206 323.891 149.168 324.265 149.209 324.635L149.246 324.58Z" fill="#65CBE3"/>
<g style="mix-blend-mode:screen">
<path d="M38.2056 380.443C38.1372 379.877 38.2094 379.303 38.4159 378.771H194.193C194.399 379.303 194.474 379.876 194.412 380.443H38.2056Z" fill="#65CBE3"/>
</g>
<path d="M182.156 317.67L191.531 346.781C192.282 349.105 192.408 351.586 191.897 353.974L187.882 372.583H133.404V318.748C133.404 317.818 133.774 316.925 134.433 316.267C135.092 315.608 135.985 315.239 136.917 315.239H178.817C179.559 315.241 180.281 315.477 180.881 315.914C181.48 316.35 181.927 316.965 182.156 317.67Z" fill="#FFC162"/>
<path d="M171.098 353.398C171.571 353.398 172.038 353.292 172.465 353.088C172.892 352.883 173.268 352.587 173.565 352.219C173.862 351.85 174.074 351.421 174.183 350.961C174.293 350.5 174.298 350.022 174.198 349.559L169.351 324.461C169.187 323.667 168.754 322.954 168.126 322.442C167.499 321.929 166.713 321.648 165.902 321.646H151.835C151.461 321.65 151.092 321.734 150.753 321.891C150.414 322.049 150.112 322.277 149.868 322.56C149.621 322.837 149.434 323.164 149.321 323.518C149.207 323.872 149.169 324.246 149.21 324.616L151.551 345.492C151.551 345.757 151.624 346.022 151.67 346.278C152.133 348.345 153.296 350.189 154.963 351.498C156.63 352.807 158.697 353.501 160.817 353.462L171.098 353.398Z" fill="#455A64"/>
<path d="M192.135 349.971C192.047 348.944 191.838 347.932 191.513 346.954L183.372 321.691H178.717C178.184 321.69 177.658 321.804 177.175 322.027C176.691 322.25 176.262 322.575 175.918 322.98C175.58 323.381 175.337 323.853 175.209 324.362C175.08 324.87 175.07 325.401 175.177 325.914L179.668 347.156C179.856 347.952 180.306 348.662 180.947 349.172C181.587 349.683 182.38 349.964 183.199 349.971H192.135Z" fill="#455A64"/>
<path d="M38.1324 382.756H194.211C195.4 382.756 195.4 378.442 194.211 378.442H38.1324C36.9342 378.442 36.9342 382.756 38.1324 382.756Z" fill="#263238"/>
<path d="M133.267 334.286C133.267 334.286 133.267 334.369 133.267 334.524V335.2C133.267 335.831 133.267 336.699 133.322 337.796C133.395 340.09 133.496 343.344 133.614 347.347C133.733 351.351 133.925 356.195 134.108 361.514C134.163 362.849 134.209 364.256 134.264 365.609C134.241 367.074 134.554 368.525 135.179 369.85C135.564 370.524 136.081 371.113 136.698 371.584C137.316 372.055 138.021 372.398 138.773 372.592C140.263 372.993 141.804 373.178 143.346 373.14L174.912 372.546L184.47 372.309L187.068 372.217H187.744C187.82 372.229 187.897 372.229 187.973 372.217C187.898 372.203 187.82 372.203 187.744 372.217H184.47L174.903 372.309L143.346 372.757C141.848 372.801 140.351 372.629 138.901 372.245C138.212 372.074 137.563 371.768 136.993 371.345C136.423 370.921 135.943 370.388 135.581 369.777C134.971 368.518 134.658 367.136 134.666 365.737C134.602 364.348 134.547 362.995 134.493 361.642C134.273 356.323 134.072 351.524 133.898 347.485C133.724 343.445 133.56 340.227 133.45 337.933C133.395 336.836 133.34 335.968 133.313 335.337C133.313 335.063 133.313 334.844 133.258 334.67C133.3 334.546 133.303 334.412 133.267 334.286Z" fill="#263238"/>
<path d="M177.747 372.802C177.884 372.802 177.985 368.232 177.985 362.593C177.985 356.954 177.884 352.374 177.747 352.374C177.61 352.374 177.509 356.944 177.509 362.593C177.509 368.241 177.619 372.802 177.747 372.802Z" fill="#263238"/>
<path d="M169.579 315.412C169.603 315.906 169.661 316.398 169.753 316.884C169.89 317.798 170.119 319.196 170.421 320.878C171.015 324.242 171.921 328.875 173.055 333.957C174.189 339.039 175.36 343.627 176.256 346.918C176.704 348.572 177.079 349.897 177.363 350.811C177.478 351.294 177.637 351.765 177.839 352.219C177.774 351.728 177.673 351.242 177.537 350.766C177.29 349.76 176.97 348.435 176.576 346.836C175.771 343.518 174.665 338.939 173.521 333.857C172.378 328.775 171.427 324.159 170.777 320.814L169.963 316.856C169.885 316.363 169.756 315.879 169.579 315.412V315.412Z" fill="#263238"/>
<path d="M151.515 361.706C151.215 361.636 150.928 361.518 150.664 361.359C150.382 361.147 150.176 360.848 150.079 360.509C149.967 360.065 150.025 359.596 150.243 359.193C150.381 358.961 150.58 358.771 150.819 358.646C151.058 358.52 151.327 358.462 151.597 358.48H153.673H158.42C158.773 358.486 159.111 358.623 159.369 358.865C159.626 359.106 159.783 359.435 159.811 359.787C159.864 360.116 159.802 360.452 159.635 360.74C159.468 361.029 159.207 361.25 158.896 361.368C158.75 361.423 158.595 361.451 158.439 361.45H156.911H155.082C153.975 361.45 153.079 361.496 152.466 361.524C152.143 361.51 151.82 361.541 151.505 361.615C151.82 361.689 152.143 361.72 152.466 361.706C153.079 361.706 153.975 361.761 155.082 361.78H156.911H158.42C158.625 361.781 158.829 361.75 159.024 361.688C159.434 361.542 159.781 361.26 160.009 360.889C160.237 360.519 160.332 360.081 160.277 359.65C160.256 359.179 160.054 358.735 159.713 358.41C159.372 358.085 158.919 357.904 158.448 357.904H153.701H151.624C151.293 357.893 150.964 357.972 150.674 358.133C150.384 358.294 150.144 358.531 149.978 358.818C149.842 359.075 149.766 359.359 149.758 359.65C149.742 359.9 149.773 360.151 149.85 360.39C149.983 360.772 150.245 361.095 150.591 361.304C150.799 361.439 151.038 361.517 151.286 361.533C151.432 361.743 151.515 361.716 151.515 361.706Z" fill="#65CBE3"/>
<path d="M48.3949 339.277C48.3949 339.414 54.7976 339.514 62.6454 339.514C70.4933 339.514 76.896 339.414 76.896 339.277C76.896 339.14 70.4933 339.039 62.6454 339.039C54.7976 339.039 48.3949 339.149 48.3949 339.277Z" fill="#263238"/>
<path d="M48.3949 342.11C48.3949 342.247 54.7976 342.357 62.6454 342.357C70.4933 342.357 76.896 342.247 76.896 342.11C76.896 341.973 70.4933 341.873 62.6454 341.873C54.7976 341.873 48.3949 341.982 48.3949 342.11Z" fill="#263238"/>
<path d="M48.3949 344.953C48.3949 345.081 54.7976 345.19 62.6454 345.19C70.4933 345.19 76.896 345.081 76.896 344.953C76.896 344.825 70.4933 344.715 62.6454 344.715C54.7976 344.715 48.3949 344.816 48.3949 344.953Z" fill="#263238"/>
<path d="M48.3949 347.786C48.3949 347.914 54.7976 348.024 62.6454 348.024C70.4933 348.024 76.896 347.914 76.896 347.786C76.896 347.658 70.4933 347.549 62.6454 347.549C54.7976 347.549 48.3949 347.649 48.3949 347.786Z" fill="#263238"/>
<path d="M48.3949 350.62C48.3949 350.748 54.7976 350.857 62.6454 350.857C70.4933 350.857 76.896 350.748 76.896 350.62C76.896 350.492 70.4933 350.382 62.6454 350.382C54.7976 350.382 48.3949 350.482 48.3949 350.62Z" fill="#263238"/>
<path d="M48.3949 353.453C48.3949 353.581 54.7976 353.691 62.6454 353.691C70.4933 353.691 76.896 353.581 76.896 353.453C76.896 353.325 70.4933 353.215 62.6454 353.215C54.7976 353.215 48.3949 353.316 48.3949 353.453Z" fill="#263238"/>
<path d="M48.3949 356.286C48.3949 356.414 54.7976 356.524 62.6454 356.524C70.4933 356.524 76.896 356.414 76.896 356.286C76.896 356.158 70.4933 356.049 62.6454 356.049C54.7976 356.049 48.3949 356.149 48.3949 356.286Z" fill="#263238"/>
<path d="M210.19 423.602C218.742 423.602 225.941 415.376 225.941 406.803C225.941 398.23 218.413 391.046 209.861 391.046L72.0849 384.794C68.5879 384.602 65.1083 385.406 62.0499 387.111C58.9916 388.816 56.48 391.353 54.8068 394.428C52.7683 398.352 52.2224 402.882 53.2702 407.178C56.9289 423.813 70.7495 423.63 76.1369 423.255C81.5242 422.88 210.19 423.602 210.19 423.602Z" fill="#263238"/>
<path d="M210.19 419.563C203.083 419.563 197.321 413.805 197.321 406.703C197.321 399.6 203.083 393.843 210.19 393.843C217.298 393.843 223.06 399.6 223.06 406.703C223.06 413.805 217.298 419.563 210.19 419.563Z" fill="#455A64"/>
<path d="M72.9539 420.723C63.76 420.723 56.3069 413.276 56.3069 404.089C56.3069 394.901 63.76 387.454 72.9539 387.454C82.1477 387.454 89.6008 394.901 89.6008 404.089C89.6008 413.276 82.1477 420.723 72.9539 420.723Z" fill="#455A64"/>
<path d="M71.097 387.984L71.4537 388.039L72.5056 388.158L76.5484 388.56C80.0699 388.907 85.1554 389.364 91.4575 389.876C104.043 390.909 121.459 392.106 140.712 392.956C159.966 393.806 177.436 394.144 190.104 394.217C196.425 394.217 201.528 394.217 205.068 394.217L209.129 394.163H210.19C210.309 394.177 210.429 394.177 210.547 394.163H210.19H209.129H205.068L190.104 394.016C177.482 393.852 160.03 393.459 140.776 392.618C121.523 391.777 104.107 390.625 91.5215 389.675L76.6033 388.514L72.5513 388.194L71.4903 388.13C71.3667 388.063 71.2343 388.014 71.097 387.984V387.984Z" fill="#455A64"/>
<path d="M76.3929 419.151C76.3929 419.279 106.348 419.389 143.301 419.389C180.253 419.389 210.209 419.279 210.209 419.151C210.209 419.023 180.262 418.914 143.301 418.914C106.339 418.914 76.3929 419.014 76.3929 419.151Z" fill="#455A64"/>
<path d="M187.241 372.354C187.604 371.293 187.91 370.213 188.156 369.119C188.714 367.117 189.528 364.357 190.351 361.277C191.094 358.659 191.668 355.997 192.071 353.307C192.176 352.485 192.225 351.658 192.217 350.83C192.224 350.521 192.184 350.213 192.098 349.916C192.025 349.916 192.098 351.205 191.741 353.243C191.385 355.281 190.717 358.087 189.912 361.149C189.107 364.211 188.321 366.989 187.845 369.028C187.607 370.042 187.424 370.856 187.333 371.44C187.258 371.739 187.227 372.047 187.241 372.354V372.354Z" fill="#65CBE3"/>
<path d="M82.1188 414.362C82.4654 414.195 82.7883 413.983 83.0792 413.731C83.8913 413.079 84.6113 412.319 85.2195 411.474C86.1343 410.214 86.813 408.799 87.2226 407.297C87.7561 405.455 87.8436 403.514 87.4778 401.632C87.112 399.75 86.3034 397.983 85.1189 396.475C84.1741 395.24 83.0155 394.184 81.6981 393.358C80.8123 392.802 79.8555 392.369 78.8535 392.069C78.4928 391.946 78.1178 391.869 77.7375 391.841C79.0615 392.306 80.3287 392.92 81.5151 393.669C82.7666 394.512 83.8674 395.56 84.7713 396.767C85.8935 398.234 86.6607 399.94 87.013 401.753C87.3653 403.565 87.293 405.435 86.8019 407.214C86.4344 408.672 85.8153 410.055 84.9726 411.3C84.1452 412.429 83.1874 413.457 82.1188 414.362Z" fill="#FAFAFA"/>
<path d="M154.432 336.206C156.722 338.153 159.11 339.983 161.585 341.69C163.968 343.512 166.447 345.206 169.012 346.762C166.722 344.815 164.335 342.985 161.859 341.278C159.476 339.456 156.997 337.762 154.432 336.206V336.206Z" fill="white"/>
<path d="M153.335 332.321C155.315 333.993 157.396 335.543 159.564 336.964C161.642 338.513 163.814 339.932 166.067 341.214C164.083 339.546 162.003 337.996 159.838 336.571C157.758 335.024 155.586 333.605 153.335 332.321V332.321Z" fill="white"/>
<path d="M180.189 338.317C181.136 339.271 182.195 340.106 183.345 340.803C184.405 341.636 185.559 342.341 186.784 342.905C185.828 341.959 184.766 341.124 183.619 340.419C182.563 339.586 181.412 338.88 180.189 338.317V338.317Z" fill="white"/>
<path d="M178.314 334.679C180.619 336.863 183.134 338.813 185.824 340.502C183.524 338.312 181.008 336.362 178.314 334.679Z" fill="white"/>
<path d="M149.594 356.917C152.995 357.234 156.418 357.234 159.82 356.917C156.418 356.6 152.995 356.6 149.594 356.917V356.917Z" fill="#65CBE3"/>
<path d="M212.751 417.616C213.133 417.592 213.509 417.512 213.867 417.378C214.869 417.059 215.819 416.594 216.685 415.998C217.971 415.108 219.074 413.979 219.932 412.671C221.016 411.073 221.659 409.217 221.795 407.291C221.932 405.366 221.557 403.438 220.709 401.703C220.049 400.286 219.116 399.013 217.965 397.956C217.193 397.241 216.317 396.646 215.367 396.192C215.028 396.016 214.669 395.884 214.297 395.799C215.54 396.448 216.693 397.256 217.727 398.202C218.81 399.25 219.688 400.49 220.316 401.858C221.111 403.533 221.461 405.385 221.331 407.234C221.202 409.083 220.597 410.868 219.575 412.415C218.763 413.695 217.717 414.811 216.492 415.705C215.336 416.505 214.078 417.147 212.751 417.616Z" fill="#FAFAFA"/>
<path d="M193.232 366.88C193.232 367.008 198.19 367.117 204.309 367.117C210.428 367.117 215.395 367.008 215.395 366.88C215.395 366.752 210.437 366.642 204.309 366.642C198.181 366.642 193.232 366.752 193.232 366.88Z" fill="white"/>
<path d="M293.132 96.0614L301.474 78.1562C302.088 76.8393 302.955 75.6561 304.026 74.6743C305.098 73.6924 306.352 72.931 307.718 72.4336C309.084 71.9363 310.534 71.7126 311.986 71.7755C313.439 71.8384 314.864 72.1866 316.182 72.8001V72.8001C317.5 73.4133 318.684 74.2799 319.666 75.3504C320.649 76.4209 321.411 77.6744 321.909 79.0392C322.406 80.404 322.63 81.8534 322.567 83.3047C322.504 84.7559 322.156 86.1806 321.542 87.4972L313.191 105.393C313.155 105.477 313.102 105.552 313.035 105.614C312.969 105.676 312.89 105.724 312.805 105.755C312.719 105.786 312.628 105.799 312.537 105.793C312.446 105.788 312.358 105.764 312.276 105.722L293.434 96.948C293.277 96.8694 293.158 96.7324 293.101 96.5665C293.045 96.4006 293.056 96.2192 293.132 96.0614V96.0614Z" fill="#65CBE3"/>
<path d="M612.918 336.891H617.62V423.255H612.918V336.891Z" fill="#E0E0E0"/>
<path d="M610.513 333.93C610.513 334.866 610.79 335.782 611.311 336.56C611.832 337.339 612.572 337.946 613.437 338.304C614.303 338.662 615.256 338.756 616.175 338.573C617.094 338.391 617.938 337.94 618.601 337.278C619.263 336.616 619.715 335.772 619.897 334.854C620.08 333.935 619.986 332.983 619.628 332.118C619.269 331.253 618.662 330.514 617.883 329.993C617.104 329.473 616.188 329.195 615.251 329.195C613.994 329.195 612.789 329.694 611.9 330.582C611.012 331.47 610.513 332.674 610.513 333.93V333.93Z" fill="#F9B245"/>
<path d="M519.494 336.891H524.195V423.255H519.494V336.891Z" fill="#E0E0E0"/>
<path d="M517.089 333.93C517.089 334.866 517.366 335.782 517.887 336.56C518.408 337.339 519.148 337.946 520.013 338.304C520.879 338.662 521.832 338.756 522.751 338.573C523.67 338.391 524.514 337.94 525.177 337.278C525.839 336.616 526.291 335.772 526.473 334.854C526.656 333.935 526.562 332.983 526.204 332.118C525.845 331.253 525.238 330.514 524.459 329.993C523.68 329.473 522.764 329.195 521.826 329.195C520.57 329.195 519.365 329.694 518.476 330.582C517.588 331.47 517.089 332.674 517.089 333.93Z" fill="#F9B245"/>
<path d="M510.585 345.227H631.038V366.761H510.585V345.227Z" fill="#F9B245"/>
<path d="M617.409 345.218L617.62 345.583L629.995 366.761H631.038V345.218H617.409Z" fill="#F5F5F5"/>
<path d="M586.96 345.218L599.564 366.761H616.019L611.016 358.206L603.424 345.218H586.96Z" fill="#F5F5F5"/>
<path d="M556.529 345.218L569.124 366.761H585.588L572.993 345.218H556.529Z" fill="#F5F5F5"/>
<path d="M526.107 345.227L538.702 366.761H555.157L542.562 345.227H526.107Z" fill="#F5F5F5"/>
<path d="M510.585 345.227V366.761H524.726L512.122 345.227H510.585Z" fill="#F5F5F5"/>
<path d="M510.585 378.487H631.038V400.021H510.585V378.487Z" fill="#F9B245"/>
<path d="M617.409 378.496L617.62 378.853L629.995 400.03H631.038V378.496H617.409Z" fill="#F5F5F5"/>
<path d="M586.96 378.496L599.564 400.03H616.019L611.016 391.475L603.424 378.496H586.96Z" fill="#F5F5F5"/>
<path d="M556.529 378.496L569.124 400.03H585.588L572.993 378.496H556.529Z" fill="#F5F5F5"/>
<path d="M526.107 378.496L538.702 400.03H555.157L542.562 378.496H526.107Z" fill="#F5F5F5"/>
<path d="M510.585 378.496V400.03H524.726L512.122 378.496H510.585Z" fill="#F5F5F5"/>
<path d="M510.585 366.761C510.585 366.761 510.585 366.633 510.585 366.386C510.585 366.139 510.585 365.774 510.585 365.308C510.585 364.348 510.585 362.949 510.585 361.121C510.585 357.465 510.631 352.091 510.658 345.227L510.53 345.346L631.029 345.492L630.791 345.254V366.788L631.029 366.551L545.279 366.651L519.851 366.724H512.982H511.198H510.576H511.171H512.927H519.741L545.114 366.788L631.029 366.889H631.266V344.98H631.019L510.576 345.099H510.457V345.227C510.457 352.118 510.512 357.511 510.521 361.195C510.521 363.023 510.521 364.403 510.521 365.353C510.521 365.81 510.521 366.158 510.521 366.413C510.521 366.669 510.585 366.761 510.585 366.761Z" fill="#263238"/>
<path d="M510.585 400.03C510.585 400.03 510.585 399.893 510.585 399.656C510.585 399.418 510.585 399.043 510.585 398.577C510.585 397.617 510.585 396.219 510.585 394.391C510.585 390.735 510.631 385.361 510.658 378.487L510.53 378.615L630.974 378.725L630.736 378.487V400.03L630.974 399.793L545.224 399.893L519.796 399.966H512.927H511.143C510.741 399.966 510.521 399.966 510.521 399.966H511.116H512.872H519.686L545.059 400.039L630.974 400.14H631.211V378.25H630.965L510.521 378.369H510.402V378.487C510.402 385.388 510.457 390.781 510.466 394.464C510.466 396.292 510.466 397.672 510.466 398.623C510.466 399.08 510.466 399.427 510.466 399.683C510.466 399.939 510.585 400.03 510.585 400.03Z" fill="#263238"/>
<path d="M44.1052 423.602C44.1052 423.73 177.116 423.84 341.152 423.84C505.189 423.84 638.236 423.73 638.236 423.602C638.236 423.474 505.253 423.365 341.152 423.365C177.052 423.365 44.1052 423.465 44.1052 423.602Z" fill="#263238"/>
<path opacity="0.1" d="M631.394 -3.70485H625.475C626.575 -3.70485 627.63 -4.14182 628.407 -4.91964C629.185 -5.69746 629.622 -6.75241 629.622 -7.85242C629.622 -8.95242 629.185 -10.0074 628.407 -10.7852C627.63 -11.563 626.575 -12 625.475 -12H577.514C576.414 -12 575.359 -11.563 574.581 -10.7852C573.803 -10.0074 573.366 -8.95242 573.366 -7.85242C573.366 -6.75241 573.803 -5.69746 574.581 -4.91964C575.359 -4.14182 576.414 -3.70485 577.514 -3.70485H583.433C582.369 -3.65406 581.365 -3.1954 580.629 -2.42402C579.894 -1.65265 579.483 -0.62777 579.483 0.438013C579.483 1.5038 579.894 2.52868 580.629 3.30005C581.365 4.07142 582.369 4.53008 583.433 4.58088H575.148C574.048 4.58088 572.993 5.01785 572.215 5.79567C571.437 6.57349 571 7.62844 571 8.72844C571 9.82845 571.437 10.8834 572.215 11.6612C572.993 12.439 574.048 12.876 575.148 12.876H623.109C624.209 12.876 625.264 12.439 626.041 11.6612C626.819 10.8834 627.256 9.82845 627.256 8.72844C627.256 7.62844 626.819 6.57349 626.041 5.79567C625.264 5.01785 624.209 4.58088 623.109 4.58088H631.394C631.955 4.60763 632.515 4.52029 633.041 4.32416C633.567 4.12803 634.048 3.82719 634.454 3.43986C634.86 3.05252 635.184 2.58676 635.405 2.07077C635.626 1.55479 635.74 0.999324 635.74 0.438013C635.74 -0.123298 635.626 -0.678775 635.405 -1.19476C635.184 -1.71075 634.86 -2.17651 634.454 -2.56385C634.048 -2.95118 633.567 -3.25201 633.041 -3.44814C632.515 -3.64426 631.955 -3.7316 631.394 -3.70485V-3.70485Z" fill="#00B0FF"/>
<path opacity="0.1" d="M221.394 2.29515H215.475C216.575 2.29515 217.63 1.85818 218.407 1.08036C219.185 0.302535 219.622 -0.752414 219.622 -1.85242C219.622 -2.95242 219.185 -4.00739 218.407 -4.78521C217.63 -5.56303 216.575 -6 215.475 -6H167.514C166.414 -6 165.359 -5.56303 164.581 -4.78521C163.803 -4.00739 163.366 -2.95242 163.366 -1.85242C163.366 -0.752414 163.803 0.302535 164.581 1.08036C165.359 1.85818 166.414 2.29515 167.514 2.29515H173.433C172.369 2.34594 171.365 2.8046 170.629 3.57598C169.894 4.34735 169.483 5.37223 169.483 6.43801C169.483 7.5038 169.894 8.52868 170.629 9.30005C171.365 10.0714 172.369 10.5301 173.433 10.5809H165.148C164.048 10.5809 162.993 11.0178 162.215 11.7957C161.437 12.5735 161 13.6284 161 14.7284C161 15.8284 161.437 16.8834 162.215 17.6612C162.993 18.439 164.048 18.876 165.148 18.876H213.109C214.209 18.876 215.264 18.439 216.041 17.6612C216.819 16.8834 217.256 15.8284 217.256 14.7284C217.256 13.6284 216.819 12.5735 216.041 11.7957C215.264 11.0178 214.209 10.5809 213.109 10.5809H221.394C221.955 10.6076 222.515 10.5203 223.041 10.3242C223.567 10.128 224.048 9.82719 224.454 9.43986C224.86 9.05252 225.184 8.58676 225.405 8.07077C225.626 7.55479 225.74 6.99932 225.74 6.43801C225.74 5.8767 225.626 5.32122 225.405 4.80524C225.184 4.28925 224.86 3.82349 224.454 3.43615C224.048 3.04882 223.567 2.74799 223.041 2.55186C222.515 2.35574 221.955 2.2684 221.394 2.29515V2.29515Z" fill="#00B0FF"/>
<path opacity="0.1" d="M400.909 111.928H394.989C396.089 111.928 397.144 111.491 397.922 110.713C398.7 109.935 399.137 108.88 399.137 107.78C399.137 106.68 398.7 105.625 397.922 104.848C397.144 104.07 396.089 103.633 394.989 103.633H347.028C345.928 103.633 344.873 104.07 344.096 104.848C343.318 105.625 342.881 106.68 342.881 107.78C342.881 108.88 343.318 109.935 344.096 110.713C344.873 111.491 345.928 111.928 347.028 111.928H352.948C351.884 111.979 350.879 112.437 350.144 113.209C349.409 113.98 348.998 115.005 348.998 116.071C348.998 117.137 349.409 118.161 350.144 118.933C350.879 119.704 351.884 120.163 352.948 120.214H344.662C343.562 120.214 342.508 120.651 341.73 121.428C340.952 122.206 340.515 123.261 340.515 124.361C340.515 125.461 340.952 126.516 341.73 127.294C342.508 128.072 343.562 128.509 344.662 128.509H392.624C393.724 128.509 394.778 128.072 395.556 127.294C396.334 126.516 396.771 125.461 396.771 124.361C396.771 123.261 396.334 122.206 395.556 121.428C394.778 120.651 393.724 120.214 392.624 120.214H400.909C401.47 120.24 402.03 120.153 402.556 119.957C403.082 119.761 403.563 119.46 403.969 119.073C404.375 118.685 404.699 118.22 404.92 117.704C405.141 117.188 405.254 116.632 405.254 116.071C405.254 115.51 405.141 114.954 404.92 114.438C404.699 113.922 404.375 113.456 403.969 113.069C403.563 112.682 403.082 112.381 402.556 112.185C402.03 111.989 401.47 111.901 400.909 111.928V111.928Z" fill="#00B0FF"/>
<path opacity="0.1" d="M126.394 87.2951H120.475C121.575 87.2951 122.63 86.8582 123.407 86.0804C124.185 85.3025 124.622 84.2476 124.622 83.1476C124.622 82.0476 124.185 80.9926 123.407 80.2148C122.63 79.437 121.575 79 120.475 79H72.5135C71.4135 79 70.3586 79.437 69.5808 80.2148C68.803 80.9926 68.366 82.0476 68.366 83.1476C68.366 84.2476 68.803 85.3025 69.5808 86.0804C70.3586 86.8582 71.4135 87.2951 72.5135 87.2951H78.4333C77.3687 87.3459 76.3646 87.8046 75.6291 88.576C74.8937 89.3473 74.4834 90.3722 74.4834 91.438C74.4834 92.5038 74.8937 93.5287 75.6291 94.3C76.3646 95.0714 77.3687 95.5301 78.4333 95.5809H70.1476C69.0476 95.5809 67.9926 96.0178 67.2148 96.7957C66.437 97.5735 66 98.6284 66 99.7284C66 100.828 66.437 101.883 67.2148 102.661C67.9926 103.439 69.0476 103.876 70.1476 103.876H118.109C119.209 103.876 120.264 103.439 121.041 102.661C121.819 101.883 122.256 100.828 122.256 99.7284C122.256 98.6284 121.819 97.5735 121.041 96.7957C120.264 96.0178 119.209 95.5809 118.109 95.5809H126.394C126.955 95.6076 127.515 95.5203 128.041 95.3242C128.567 95.128 129.048 94.8272 129.454 94.4399C129.86 94.0525 130.184 93.5868 130.405 93.0708C130.626 92.5548 130.74 91.9993 130.74 91.438C130.74 90.8767 130.626 90.3212 130.405 89.8052C130.184 89.2893 129.86 88.8235 129.454 88.4362C129.048 88.0488 128.567 87.748 128.041 87.5519C127.515 87.3557 126.955 87.2684 126.394 87.2951V87.2951Z" fill="#00B0FF"/>
<path opacity="0.1" d="M595.394 55.2951H589.475C590.575 55.2951 591.63 54.8582 592.407 54.0804C593.185 53.3025 593.622 52.2476 593.622 51.1476C593.622 50.0476 593.185 48.9926 592.407 48.2148C591.63 47.437 590.575 47 589.475 47H541.514C540.414 47 539.359 47.437 538.581 48.2148C537.803 48.9926 537.366 50.0476 537.366 51.1476C537.366 52.2476 537.803 53.3025 538.581 54.0804C539.359 54.8582 540.414 55.2951 541.514 55.2951H547.433C546.369 55.3459 545.365 55.8046 544.629 56.576C543.894 57.3473 543.483 58.3722 543.483 59.438C543.483 60.5038 543.894 61.5287 544.629 62.3C545.365 63.0714 546.369 63.5301 547.433 63.5809H539.148C538.048 63.5809 536.993 64.0178 536.215 64.7957C535.437 65.5735 535 66.6284 535 67.7284C535 68.8284 535.437 69.8834 536.215 70.6612C536.993 71.439 538.048 71.876 539.148 71.876H587.109C588.209 71.876 589.264 71.439 590.041 70.6612C590.819 69.8834 591.256 68.8284 591.256 67.7284C591.256 66.6284 590.819 65.5735 590.041 64.7957C589.264 64.0178 588.209 63.5809 587.109 63.5809H595.394C595.955 63.6076 596.515 63.5203 597.041 63.3242C597.567 63.128 598.048 62.8272 598.454 62.4399C598.86 62.0525 599.184 61.5868 599.405 61.0708C599.626 60.5548 599.74 59.9993 599.74 59.438C599.74 58.8767 599.626 58.3212 599.405 57.8052C599.184 57.2893 598.86 56.8235 598.454 56.4362C598.048 56.0488 597.567 55.748 597.041 55.5519C596.515 55.3557 595.955 55.2684 595.394 55.2951V55.2951Z" fill="#00B0FF"/>
</g>
<defs>
<clipPath id="clip0_602_3121">
<rect width="686" height="457" fill="white" transform="matrix(-1 0 0 1 686 0)"/>
</clipPath>
</defs>
</svg>
