<svg width="294" height="66" viewBox="0 0 294 66" fill="none" xmlns="http://www.w3.org/2000/svg">
<path d="M24.366 57.8769C37.823 57.8769 48.7321 46.9664 48.7321 33.5077C48.7321 20.0489 37.823 9.13846 24.366 9.13846C10.909 9.13846 0 20.0489 0 33.5077C0 46.9664 10.909 57.8769 24.366 57.8769Z" fill="#6FCDE3"/>
<path d="M80.2399 29.1261C81.5158 29.9362 82.5395 31.0918 83.1936 32.4607C83.9247 33.9552 84.2918 35.6035 84.2645 37.2693C84.2857 38.9374 83.919 40.5873 83.1936 42.087C82.5356 43.47 81.5141 44.645 80.2399 45.4845C78.9969 46.3029 77.5395 46.7286 76.0546 46.7069C74.7557 46.7122 73.4793 46.3644 72.3602 45.7002C71.2438 45.0349 70.3014 44.1104 69.6117 43.0038V45.3317C69.618 45.621 69.5124 45.9014 69.3172 46.1137C69.1188 46.3202 68.844 46.4342 68.5587 46.4283C68.2759 46.435 68.0035 46.3207 67.8091 46.1137C67.6139 45.9014 67.5083 45.621 67.5146 45.3317V21.3693C67.5072 21.0852 67.6133 20.81 67.8091 20.6053C68.0078 20.4068 68.279 20.2995 68.5587 20.3087C68.8417 20.2958 69.1171 20.4034 69.3174 20.6052C69.5177 20.8069 69.6245 21.0843 69.6117 21.3693V31.7686C70.2463 30.6197 71.1695 29.6588 72.2888 28.9823C73.4151 28.2828 74.7136 27.9153 76.0368 27.9217C77.5237 27.907 78.9833 28.3252 80.2399 29.1261ZM79.1333 43.7588C80.1212 43.0851 80.9079 42.1529 81.4089 41.0623C81.9711 39.879 82.2551 38.5811 82.2388 37.2693C82.26 35.9571 81.9758 34.6581 81.4089 33.4763C80.9032 32.4082 80.1161 31.5003 79.1333 30.8518C78.1601 30.213 77.0198 29.8813 75.8583 29.8991C73.4475 29.8636 71.2473 31.2774 70.2631 33.4943C69.7113 34.6869 69.4337 35.9896 69.4511 37.3053C69.4318 38.6289 69.7158 39.9391 70.281 41.1342C70.7772 42.2278 71.565 43.1612 72.5565 43.8307C73.5351 44.4815 74.6858 44.8198 75.8583 44.8014C77.0241 44.7957 78.1604 44.432 79.1155 43.7588H79.1333Z" fill="#231F20"/>
<path d="M91.0872 45.9051C90.8948 46.1021 90.6324 46.2085 90.3617 46.1994C90.0884 46.2089 89.8232 46.1026 89.6277 45.9051C89.4369 45.7065 89.3338 45.4355 89.3427 45.1559V21.3607C89.3355 21.0787 89.4382 20.8056 89.6277 20.6026C89.8232 20.4051 90.0884 20.2988 90.3617 20.3083C90.6324 20.2991 90.8948 20.4056 91.0872 20.6026C91.2767 20.8056 91.3793 21.0787 91.3721 21.3607V45.1559C91.381 45.4355 91.2779 45.7065 91.0872 45.9051Z" fill="#231F20"/>
<path d="M110.869 36.7985C110.68 36.9848 110.427 37.0884 110.164 37.0871H97.4046C97.395 38.3696 97.6899 39.6354 98.2644 40.7771C98.7958 41.8427 99.6124 42.7339 100.62 43.3479C101.72 43.998 102.976 44.3249 104.248 44.2923C105.258 44.3108 106.257 44.0734 107.154 43.6015C107.961 43.1848 108.664 42.5867 109.209 41.8527C109.403 41.6724 109.652 41.5645 109.914 41.5466C110.378 41.5726 110.748 41.9493 110.774 42.421C110.764 42.6967 110.643 42.9559 110.439 43.138C109.691 44.0495 108.766 44.7938 107.722 45.3241C106.662 45.8949 105.482 46.195 104.283 46.1985C102.682 46.2274 101.1 45.8359 99.6916 45.0618C98.3691 44.335 97.2776 43.2401 96.5449 41.9051C95.7835 40.4569 95.4016 38.8338 95.4358 37.192C95.4059 35.4837 95.7866 33.7937 96.5449 32.269C97.2073 30.9394 98.2191 29.8225 99.4681 29.0424C100.634 28.3109 101.976 27.9234 103.346 27.9231C104.669 27.9177 105.972 28.2484 107.137 28.8851C108.333 29.5401 109.332 30.5133 110.026 31.7007C110.791 33.0254 111.186 34.5368 111.17 36.0728C111.176 36.3473 111.066 36.6114 110.869 36.7985ZM99.6916 31.2897C98.5317 32.297 97.771 33.6984 97.5508 35.2333H109.055V34.9622C108.966 33.9868 108.615 33.055 108.04 32.269C107.497 31.5123 106.771 30.9102 105.934 30.5202C105.128 30.1289 104.247 29.9229 103.354 29.9169C102.015 29.9357 100.726 30.4377 99.7174 31.3334L99.6916 31.2897Z" fill="#231F20"/>
<path d="M128.427 29.3453C129.499 30.8021 130.034 32.5832 129.942 34.3879V44.6511C129.954 44.9338 129.839 45.2071 129.63 45.3982C129.435 45.5876 129.172 45.6929 128.9 45.6916C128.618 45.7011 128.344 45.5951 128.142 45.3982C127.946 45.2001 127.839 44.9299 127.848 44.6511V34.468C127.907 33.1458 127.504 31.8443 126.708 30.786C125.827 29.7883 124.525 29.2641 123.197 29.372C121.206 29.3838 119.338 30.3374 118.163 31.9422C117.618 32.6718 117.324 33.5579 117.326 34.468V44.6511C117.335 44.9299 117.228 45.2001 117.032 45.3982C116.829 45.5933 116.556 45.6991 116.274 45.6916C115.995 45.7017 115.724 45.5953 115.526 45.398C115.328 45.2006 115.222 44.93 115.232 44.6511V29.0162C115.223 28.7374 115.329 28.4672 115.526 28.2692C115.721 28.0667 115.993 27.9567 116.274 27.9668C116.555 27.9594 116.827 28.0675 117.026 28.266C117.225 28.4644 117.333 28.7357 117.326 29.0162V30.9105C117.994 29.8684 118.913 29.0095 119.999 28.4115C121.097 27.7711 122.344 27.4278 123.616 27.4154C125.817 27.4421 127.412 28.0824 128.427 29.3453Z" fill="#231F20"/>
<path d="M150.978 20.6044C151.173 20.8088 151.279 21.0837 151.272 21.3674V45.3158C151.281 45.5972 151.175 45.8699 150.978 46.0698C150.775 46.2668 150.502 46.3735 150.22 46.366C149.94 46.3762 149.669 46.2688 149.471 46.0696C149.274 45.8704 149.167 45.5973 149.177 45.3158V42.8474C148.549 43.9693 147.651 44.9139 146.565 45.5941C145.427 46.3373 144.097 46.7246 142.741 46.7071C141.258 46.7212 139.804 46.2968 138.559 45.4864C137.289 44.6545 136.266 43.4912 135.6 42.1203C134.161 39.0826 134.161 35.5535 135.6 32.5158C136.266 31.1449 137.289 29.9816 138.559 29.1497C139.793 28.3432 141.234 27.9187 142.705 27.929C144.044 27.9206 145.36 28.2806 146.511 28.9702C147.63 29.6055 148.555 30.5367 149.186 31.6631V21.3674C149.178 21.0837 149.284 20.8088 149.48 20.6044C149.679 20.4062 149.949 20.299 150.229 20.3082C150.508 20.3032 150.777 20.4097 150.978 20.6044ZM146.217 43.7988C147.212 43.1346 148 42.2012 148.491 41.106C149.052 39.9117 149.333 38.6033 149.311 37.2821C149.331 35.9785 149.05 34.6879 148.491 33.5122C147.992 32.4218 147.206 31.4903 146.217 30.8193C144.225 29.5277 141.666 29.5277 139.674 30.8193C138.69 31.4954 137.905 32.4255 137.401 33.5122C136.307 35.9175 136.307 38.6827 137.401 41.088C137.905 42.1747 138.69 43.1048 139.674 43.7809C140.643 44.4272 141.783 44.7649 142.946 44.7503C144.105 44.7637 145.243 44.4328 146.217 43.7988Z" fill="#231F20"/>
<path d="M170.725 36.7984C170.537 36.9855 170.283 37.0892 170.02 37.087H157.256C157.246 38.3695 157.541 39.6353 158.116 40.777C158.652 41.8429 159.472 42.7339 160.483 43.3478C161.585 43.9978 162.842 44.3247 164.115 44.2922C165.124 44.3122 166.121 44.0747 167.016 43.6014C167.823 43.1847 168.527 42.5866 169.073 41.8525C169.269 41.6704 169.522 41.5624 169.787 41.5465C170.015 41.5521 170.232 41.6496 170.39 41.8176C170.56 41.9782 170.66 42.2021 170.665 42.4384C170.655 42.7159 170.53 42.9762 170.321 43.1554C169.564 44.0642 168.629 44.8027 167.575 45.324C166.514 45.8944 165.333 46.1945 164.133 46.1984C162.532 46.2285 160.952 45.8369 159.545 45.0616C158.233 44.3259 157.155 43.2247 156.438 41.8875C155.682 40.4437 155.302 38.8271 155.336 37.1919C155.297 35.4846 155.672 33.7936 156.429 32.269C157.089 30.9399 158.099 29.8229 159.347 29.0424C160.517 28.3119 161.864 27.9245 163.237 27.9231C164.562 27.9188 165.866 28.2494 167.033 28.885C168.226 29.5427 169.222 30.5155 169.916 31.7006C170.684 33.0246 171.083 34.536 171.07 36.0727C171.069 36.355 170.942 36.6217 170.725 36.7984ZM159.537 31.2896C158.37 32.2922 157.607 33.696 157.393 35.2332H168.935V34.9622C168.846 33.9884 168.498 33.0576 167.928 32.269C167.382 31.5142 166.657 30.9124 165.819 30.5202C165.012 30.1304 164.131 29.9245 163.237 29.9168C161.888 29.9278 160.587 30.4305 159.571 31.3334L159.537 31.2896Z" fill="#231F20"/>
<path d="M191.08 20.6044C191.276 20.8088 191.382 21.0837 191.374 21.3674V45.3159C191.384 45.5973 191.277 45.87 191.08 46.0699C190.877 46.2669 190.603 46.3736 190.321 46.3661C190.041 46.3763 189.77 46.2689 189.572 46.0697C189.374 45.8705 189.267 45.5974 189.277 45.3159V42.8475C188.649 43.9694 187.75 44.914 186.662 45.5942C185.526 46.3357 184.197 46.723 182.843 46.7072C181.359 46.7213 179.904 46.2969 178.657 45.4865C177.393 44.6559 176.373 43.4998 175.703 42.1383C174.263 39.1007 174.263 35.5715 175.703 32.5338C176.373 31.1647 177.396 30.002 178.666 29.1677C179.909 28.3561 181.361 27.9314 182.843 27.947C184.184 27.9386 185.501 28.2986 186.653 28.9882C187.773 29.6235 188.699 30.5547 189.331 31.6811V21.3674C189.323 21.0837 189.429 20.8088 189.625 20.6044C189.824 20.4062 190.095 20.299 190.375 20.3082C190.638 20.3147 190.89 20.4204 191.08 20.6044ZM186.314 43.7989C187.31 43.1347 188.099 42.2013 188.59 41.1061C189.152 39.9118 189.433 38.6033 189.411 37.2822C189.431 35.9786 189.15 34.688 188.59 33.5122C188.091 32.4219 187.304 31.4904 186.314 30.8194C184.323 29.5271 181.764 29.5271 179.773 30.8194C178.783 31.4904 177.996 32.4219 177.497 33.5122C176.386 35.9138 176.386 38.6865 177.497 41.0881C177.996 42.1784 178.783 43.1099 179.773 43.781C180.739 44.4281 181.878 44.766 183.039 44.7504C184.2 44.7638 185.339 44.4329 186.314 43.7989Z" fill="#231F20"/>
<path d="M201.528 41.8068C201.597 40.766 202.429 39.95 203.449 39.9242C203.985 39.9434 204.489 40.1867 204.845 40.5972C205.464 41.2777 206.203 41.833 207.023 42.2343C207.886 42.6168 208.821 42.8 209.762 42.7709C211.576 42.6981 212.482 41.9978 212.482 40.67C212.503 40.015 212.159 39.4048 211.593 39.0966C210.677 38.6268 209.71 38.2696 208.712 38.0325C207.591 37.7293 206.492 37.3464 205.423 36.8865C204.563 36.499 203.807 35.9065 203.218 35.1585C202.576 34.2525 202.262 33.1466 202.328 32.0299C202.308 30.9556 202.647 29.9065 203.289 29.0559C203.95 28.1922 204.816 27.5159 205.805 27.0914C206.842 26.6284 207.963 26.3929 209.095 26.4C210.31 26.4038 211.515 26.6318 212.651 27.0732C213.744 27.4594 214.709 28.1528 215.434 29.074C215.729 29.4332 215.89 29.8876 215.888 30.3564C215.896 30.8906 215.651 31.3958 215.23 31.7115C214.911 31.969 214.516 32.107 214.11 32.1026C213.642 32.1196 213.189 31.9386 212.856 31.6024C212.416 31.0667 211.863 30.6405 211.238 30.3564C210.53 30.0367 209.762 29.8784 208.988 29.8926C207.21 29.8926 206.321 30.5474 206.321 31.8571C206.3 32.3305 206.478 32.7903 206.81 33.1212C207.163 33.4624 207.585 33.7201 208.046 33.8761C208.544 34.0459 209.246 34.2642 210.153 34.5309C211.224 34.8216 212.273 35.1924 213.292 35.6405C214.115 36.0438 214.824 36.654 215.354 37.414C215.981 38.3175 216.293 39.4091 216.243 40.5154C216.262 41.6233 215.904 42.7034 215.23 43.5712C214.556 44.429 213.682 45.0986 212.687 45.5175C211.655 45.9653 210.545 46.1973 209.424 46.1996C207.957 46.2113 206.502 45.9461 205.129 45.4175C203.813 44.9164 202.669 44.0309 201.839 42.8709C201.626 42.5597 201.517 42.1865 201.528 41.8068Z" fill="#231F20"/>
<path d="M235.879 37.2671C235.474 37.6227 234.956 37.8137 234.423 37.8037H222.935C223.161 39.0988 223.843 40.2639 224.853 41.0774C225.81 41.86 227.001 42.2807 228.226 42.2687C228.978 42.2981 229.729 42.2092 230.455 42.005C230.901 41.8646 231.33 41.6724 231.733 41.4321L232.372 41.0229C232.74 40.8256 233.147 40.7168 233.562 40.7046C234.542 40.7046 235.337 41.5189 235.337 42.5233C235.303 43.2318 234.94 43.8807 234.361 44.2694C233.576 44.8751 232.692 45.3338 231.751 45.6243C230.685 46.0012 229.566 46.1948 228.439 46.1972C226.661 46.2388 224.903 45.8097 223.335 44.9514C221.919 44.1529 220.755 42.9573 219.979 41.5048C219.174 39.9913 218.764 38.2904 218.789 36.5669C218.749 34.6893 219.18 32.8325 220.041 31.1743C220.81 29.706 221.955 28.48 223.352 27.6277C224.679 26.8209 226.195 26.3967 227.738 26.4C229.274 26.3998 230.779 26.8443 232.079 27.6823C233.432 28.5346 234.553 29.7233 235.337 31.1379C236.14 32.571 236.56 34.196 236.554 35.8485C236.551 36.4019 236.303 36.924 235.879 37.2671ZM222.962 34.2389H232.088V33.9843C231.987 32.9609 231.468 32.0292 230.659 31.4198C229.837 30.7175 228.799 30.3371 227.729 30.3467C225.048 30.3467 223.462 31.6441 222.971 34.2389H222.962Z" fill="#231F20"/>
<path d="M254.52 28.9786C255.484 30.7413 255.938 32.7492 255.827 34.7666V43.5763C255.842 44.136 255.638 44.6784 255.26 45.0828C254.453 45.8955 253.16 45.8955 252.353 45.0828C251.975 44.6784 251.771 44.136 251.785 43.5763V34.7666C251.846 33.7107 251.571 32.6632 251.003 31.7801C250.348 30.9879 249.353 30.5789 248.346 30.6877C247.207 30.6229 246.092 31.0438 245.267 31.8506C244.524 32.6267 244.124 33.6802 244.158 34.7666V43.5763C244.173 44.1378 243.965 44.6815 243.582 45.0828C242.778 45.8944 241.487 45.8944 240.684 45.0828C240.303 44.6793 240.096 44.1371 240.108 43.5763V29.3398C240.096 28.7791 240.303 28.2368 240.684 27.8333C241.493 27.0356 242.773 27.0356 243.582 27.8333C243.965 28.2346 244.173 28.7784 244.158 29.3398V29.93C244.808 29.0645 245.617 28.3373 246.54 27.7893C247.512 27.1969 248.625 26.892 249.756 26.9083C252.055 26.8966 253.643 27.5867 254.52 28.9786Z" fill="#231F20"/>
<path d="M258.891 41.8069C258.894 41.1609 259.232 40.5655 259.779 40.2425C260.074 40.0352 260.424 39.9243 260.782 39.9242C261.317 39.9434 261.821 40.1867 262.176 40.5972C262.797 41.2756 263.535 41.8306 264.352 42.2343C265.214 42.6168 266.148 42.8 267.087 42.7709C268.899 42.6982 269.805 41.9978 269.805 40.67C269.828 40.0145 269.483 39.4032 268.917 39.0966C268.005 38.6281 267.042 38.271 266.048 38.0325C264.926 37.7293 263.825 37.3464 262.754 36.8865C261.898 36.499 261.145 35.9063 260.56 35.1585C259.919 34.2525 259.605 33.1466 259.672 32.0299C259.652 30.9556 259.99 29.9065 260.631 29.0559C261.29 28.1946 262.152 27.5186 263.136 27.0914C264.175 26.6284 265.297 26.393 266.43 26.4C267.644 26.4028 268.848 26.6308 269.983 27.0732C271.076 27.4614 272.042 28.1543 272.771 29.074C273.065 29.4332 273.226 29.8876 273.224 30.3564C273.229 30.8919 272.981 31.3968 272.558 31.7116C272.244 31.971 271.851 32.1094 271.448 32.1026C270.981 32.1229 270.526 31.9414 270.196 31.6024C269.755 31.0641 269.199 30.6377 268.571 30.3564C267.863 30.0367 267.097 29.8784 266.324 29.8926C264.548 29.8926 263.66 30.5474 263.66 31.8571C263.639 32.3305 263.817 32.7903 264.148 33.1213C264.503 33.4585 264.924 33.7157 265.382 33.8761C265.88 34.0489 266.59 34.2672 267.496 34.531C268.566 34.823 269.613 35.1938 270.631 35.6405C271.463 36.0399 272.181 36.6504 272.718 37.414C273.34 38.3193 273.652 39.4096 273.606 40.5154C273.616 41.6151 273.255 42.6847 272.585 43.544C271.9 44.4192 271.007 45.099 269.991 45.5176C268.961 45.967 267.852 46.199 266.732 46.1997C265.271 46.2106 263.82 45.9454 262.452 45.4175C261.15 44.9102 260.02 44.0253 259.201 42.871C258.985 42.5616 258.876 42.1871 258.891 41.8069Z" fill="#231F20"/>
<path d="M293.224 37.2053C292.817 37.5443 292.296 37.7258 291.761 37.7149H280.291C280.516 38.9432 281.194 40.049 282.197 40.8248C283.155 41.5701 284.348 41.9699 285.574 41.9565C286.324 41.9837 287.075 41.8993 287.799 41.706C288.241 41.5728 288.667 41.3902 289.066 41.1617L289.713 40.773C290.077 40.5846 290.481 40.4811 290.892 40.4707C291.364 40.4615 291.818 40.6465 292.142 40.9803C292.479 41.2858 292.669 41.7153 292.665 42.1638C292.635 42.838 292.272 43.4563 291.69 43.8224C290.909 44.4101 290.026 44.8577 289.084 45.1442C288.023 45.5022 286.909 45.6861 285.787 45.6884C284.014 45.7366 282.258 45.3379 280.69 44.5308C279.273 43.7724 278.108 42.6368 277.33 41.2568C276.529 39.8182 276.123 38.2024 276.151 36.566C276.111 34.7823 276.541 33.0185 277.401 31.4433C278.165 30.0462 279.309 28.8807 280.707 28.0742C282.043 27.3018 283.569 26.8986 285.122 26.9078C286.653 26.9078 288.152 27.3303 289.448 28.126C290.801 28.9331 291.92 30.0629 292.701 31.4087C293.507 32.7685 293.926 34.3132 293.915 35.8835C293.9 36.403 293.646 36.8884 293.224 37.2053ZM280.326 34.3286H289.43V34.0867C289.331 33.116 288.816 32.2311 288.012 31.6506C287.201 30.9911 286.178 30.6303 285.122 30.6312C282.4 30.6312 280.805 31.8666 280.326 34.3286Z" fill="#231F20"/>
<path d="M23.2313 13.5052L23.0963 26.2499C18.855 27.0315 15.9058 30.852 16.2752 35.086C16.6447 39.3199 20.2126 42.5888 24.5271 42.6461H24.6441C29.2163 42.6177 32.9267 38.9949 32.9951 34.4923C33.0432 30.3435 29.9652 26.8006 25.796 26.2056L25.9759 13.5406C25.9759 12.7917 25.3595 12.1846 24.5991 12.1846C23.8387 12.1846 23.2223 12.7917 23.2223 13.5406L23.2313 13.5052ZM25.715 33.2427L25.796 28.5631C28.6388 29.1255 30.6726 31.6013 30.6374 34.4569C30.6294 36.027 29.9809 37.5281 28.8376 38.6224C27.0354 40.3603 24.3243 40.8076 22.0454 39.7429C19.7666 38.6782 18.4032 36.3273 18.6297 33.8533C18.8563 31.3792 20.6248 29.3065 23.0603 28.6606L22.9973 33.1984C22.9893 33.6828 23.2442 34.1347 23.6662 34.3838C24.0882 34.6329 24.6131 34.6413 25.0431 34.4059C25.4731 34.1706 25.7429 33.7271 25.751 33.2427H25.715Z" fill="#231F20"/>
<path d="M30.5487 19.4431C35.021 21.3101 38.4232 25.0472 39.8339 29.6424C39.9894 30.1305 40.4472 30.4621 40.9645 30.4615C41.334 30.4567 41.6801 30.2815 41.9001 29.9877C42.1202 29.694 42.189 29.3154 42.0862 28.9642C40.4691 23.7132 36.5781 19.4441 31.4657 17.3116C30.8865 17.1382 30.2688 17.4283 30.0385 17.9819C29.8082 18.5356 30.0406 19.1718 30.5754 19.4519L30.5487 19.4431Z" fill="#231F20"/>
<path d="M38.3812 48.422C37.7447 48.0379 36.924 48.2505 36.5436 48.898L28.1029 63.9418C27.9221 64.2569 27.8724 64.6328 27.965 64.9855C28.0575 65.3383 28.2845 65.6384 28.5953 65.8189C29.2394 66.1931 30.0582 65.969 30.4329 65.316L38.9175 50.2991C39.0924 49.978 39.1341 49.5988 39.0333 49.2461C38.9325 48.8934 38.6977 48.5966 38.3812 48.422Z" fill="#231F20"/>
<path d="M39.7964 43.1849C38.9755 43.3534 38.445 44.1537 38.6095 44.9756C38.7739 45.7975 39.5715 46.332 40.394 46.1715C41.2165 46.0111 41.7547 45.2159 41.5983 44.3925C41.5222 43.9919 41.2886 43.6385 40.95 43.4116C40.6113 43.1846 40.1957 43.103 39.7964 43.1849Z" fill="#231F20"/>
<path d="M43.0631 39.099C42.8801 38.5734 42.425 38.1895 41.8761 38.0978C41.3272 38.0061 40.772 38.2211 40.4281 38.6587C40.0841 39.0962 40.0063 39.6866 40.225 40.1984C40.5475 40.953 41.4099 41.3164 42.1751 41.02C42.9403 40.7236 43.333 39.874 43.0631 39.099Z" fill="#231F20"/>
<path d="M28.517 51.9548C29.1305 51.8218 29.5304 51.2354 29.4256 50.6224C29.3208 50.0094 28.7483 49.5859 28.1247 49.6601C27.6343 49.7396 24.291 49.766 23.6669 49.7396C17.1531 49.4622 11.4204 45.4008 9.05398 39.3869C8.64023 38.3329 8.34135 37.2382 8.16241 36.1214C8.16241 35.9713 8.16241 35.8213 8.16241 35.6713C8.16688 35.6037 8.16688 35.5359 8.16241 35.4683C8.16241 35.3535 8.16241 35.2565 8.16241 35.1417C8.09519 29.9439 10.3459 24.981 14.3143 21.5765C15.6111 20.6305 17.0034 19.8201 18.469 19.1583C19.0746 18.9145 19.366 18.2309 19.1198 17.6314C18.8736 17.0318 18.1831 16.7434 17.5774 16.9871C15.8955 17.7195 14.2991 18.631 12.8164 19.7055C14.1996 18.0054 15.6696 16.3764 17.2208 14.8248C21.117 10.8179 24.7902 7.02281 25.1112 1.23311C25.1481 0.589695 24.6512 0.03847 24.0012 0.00191243C23.3512 -0.0346451 22.7944 0.457308 22.7574 1.10072C22.4811 6.03433 19.2625 9.36165 15.5268 13.2185C11.0244 17.905 5.98697 23.1563 5.68384 32.344C5.63508 32.4587 5.60789 32.5814 5.6036 32.7058C5.54511 33.9454 5.61682 35.1877 5.81757 36.4126C5.81757 36.598 5.81757 36.7921 5.87107 36.9775C5.88968 37.1075 5.93197 37.2331 5.99589 37.3482C6.21625 38.3318 6.51436 39.2968 6.88746 40.2342C9.508 46.8809 15.7408 51.456 22.9268 52.0078C22.8699 52.1605 22.8398 52.3216 22.8377 52.4844V56.5266C22.8377 57.2723 23.4484 57.8769 24.2018 57.8769C24.9552 57.8769 25.5659 57.2723 25.5659 56.5266V52.4844C25.5603 52.3436 25.5363 52.2042 25.4946 52.0696C26.5033 52.0808 27.5121 52.0425 28.517 51.9548Z" fill="#231F20"/>
</svg>
