<svg width="732" height="477" viewBox="0 0 732 477" fill="none" xmlns="http://www.w3.org/2000/svg">
<g clip-path="url(#clip0_608_354)">
<path d="M661.854 127.275C661.854 127.275 672.501 131.305 660.839 153.963C649.177 176.621 641.1 187.827 641.1 187.827C641.1 187.827 639.033 193.092 643.469 193.923C647.906 194.755 657.683 193.229 659.641 198.667C661.671 204.306 657.564 209.635 649.25 214.205C640.936 218.775 623.1 229.643 621.49 230.657C619.88 231.672 618.325 234.066 621.252 235.117C624.179 236.168 646.159 238.554 644.412 248.891C642.664 259.229 617.383 268.341 614.639 269.383C611.895 270.425 611.237 271.595 611.456 273.094C611.676 274.593 619.139 274.703 625.359 275.635C631.579 276.567 638.631 278.724 637.122 284.62C635.612 290.515 620.658 302.836 584.29 306.272L567.36 306.757L558.213 292.48C540.46 260.627 542.133 241.296 546.14 236.726C550.146 232.156 555.917 236.726 560.207 241.296C564.497 245.866 568.814 251.981 570.177 251.35C571.54 250.719 572.125 249.476 571.43 246.625C570.735 243.773 563.921 217.797 571.43 210.494C578.94 203.191 593.382 219.945 595.907 221.764C598.431 223.583 599.565 220.85 599.456 219.022C599.346 217.194 598.166 196.327 597.27 186.858C596.373 177.389 598.422 171 604.221 169.492C609.81 168.03 614.09 176.941 617.292 180.122C620.493 183.303 623.694 178.614 623.694 178.614C623.694 178.614 628.368 165.626 640.442 143.178C652.515 120.73 662.083 127.43 662.083 127.43" fill="#76CADB"/>
<path d="M566.445 310.76C575.244 294.235 590.4 264.621 603.535 239.258C616.67 213.894 628.643 190.944 637.341 174.391C641.695 166.165 645.235 159.438 647.686 154.786C648.893 152.483 649.835 150.691 650.494 149.457C650.805 148.854 651.043 148.397 651.207 148.059C651.292 147.904 651.368 147.746 651.436 147.584C651.436 147.584 651.336 147.73 651.162 148.041L650.403 149.402L647.503 154.694C644.997 159.264 641.411 165.955 637.012 174.218C628.204 190.734 616.24 213.647 603.096 239.002C589.952 264.356 574.86 294.006 566.143 310.568" fill="#E0E0E0"/>
<path d="M646.021 201.345C645.616 201.417 645.217 201.527 644.832 201.674C644.082 201.912 643.003 202.286 641.686 202.762C639.042 203.731 635.42 205.147 631.451 206.783L621.325 211.015L618.252 212.277C617.863 212.404 617.489 212.573 617.136 212.779C617.541 212.724 617.937 212.62 618.316 212.468C619.066 212.231 620.145 211.847 621.463 211.363C624.097 210.375 627.701 208.904 631.67 207.268L641.841 203.109L644.924 201.866C645.308 201.735 645.676 201.56 646.021 201.345Z" fill="#E0E0E0"/>
<path d="M615.993 211.701C616.121 211.646 613.523 204.06 610.185 194.746C606.846 185.432 604.02 177.928 603.883 177.974C603.745 178.02 606.343 185.615 609.691 194.929C613.038 204.242 615.837 211.746 615.993 211.701Z" fill="#E0E0E0"/>
<path d="M597.544 251.551C597.356 251.176 597.126 250.823 596.858 250.5L594.855 247.758C593.181 245.436 590.867 242.219 588.452 238.572C586.037 234.925 583.943 231.562 582.452 229.112L580.687 226.206C580.487 225.838 580.254 225.49 579.992 225.164C580.114 225.566 580.289 225.95 580.513 226.306C580.879 227.019 581.428 228.043 582.132 229.295C583.54 231.8 585.58 235.209 588.013 238.865C590.446 242.521 592.797 245.711 594.562 248.005C595.477 249.129 596.172 250.043 596.693 250.655C596.944 250.983 597.229 251.284 597.544 251.551Z" fill="#E0E0E0"/>
<path d="M626.813 248.169C626.431 248.12 626.043 248.12 625.661 248.169L622.524 248.407C619.88 248.635 616.231 248.983 612.206 249.394C608.182 249.805 604.532 250.208 601.898 250.527L598.779 250.93C598.393 250.958 598.013 251.032 597.645 251.149C598.028 251.193 598.414 251.193 598.797 251.149L601.934 250.911C604.578 250.683 608.227 250.335 612.261 249.924C616.295 249.513 619.926 249.111 622.56 248.791L625.679 248.389C626.065 248.361 626.445 248.288 626.813 248.169Z" fill="#E0E0E0"/>
<path d="M615.023 285.406C614.533 285.362 614.041 285.362 613.551 285.406L609.526 285.698C606.142 285.963 601.459 286.374 596.291 286.85C591.123 287.325 586.449 287.764 583.065 288.157L579.059 288.614C578.565 288.648 578.075 288.728 577.595 288.851C578.088 288.899 578.584 288.899 579.077 288.851L583.101 288.559C586.486 288.294 591.169 287.883 596.337 287.398C601.504 286.914 606.178 286.484 609.563 286.091L613.569 285.643C614.06 285.609 614.547 285.529 615.023 285.406Z" fill="#E0E0E0"/>
<path d="M578.473 288.559C578.233 288.086 577.955 287.634 577.641 287.206L575.235 283.632C573.205 280.607 570.415 276.421 567.47 271.75C564.525 267.08 561.982 262.72 560.152 259.576C559.238 258.068 558.543 256.834 557.976 255.847C557.733 255.379 557.451 254.933 557.134 254.512C557.308 255.012 557.531 255.493 557.802 255.947C558.259 256.861 558.945 258.159 559.823 259.759C561.579 262.949 564.085 267.318 567.049 272.034C570.013 276.75 572.839 280.909 574.943 283.916C576.004 285.397 576.873 286.585 577.485 287.398C577.782 287.812 578.112 288.2 578.473 288.559Z" fill="#E0E0E0"/>
<path d="M252.98 341.671C277.383 325.74 283.768 294.957 283.685 267.107C283.685 262.464 284.335 257.583 282.258 253.443C280.182 249.303 275.096 246.35 270.88 248.178C267.377 249.696 265.749 253.662 263.709 256.916C260.994 261.26 257.103 264.746 252.486 266.97C249.486 268.414 245.791 269.237 242.919 267.537C238.985 265.206 238.684 259.658 238.857 255.033L239.772 229.222C239.946 224.597 240.111 219.89 238.803 215.457C237.495 211.024 234.458 206.856 230.095 205.495C225.732 204.133 220.226 206.491 219.119 210.979C218.671 212.807 218.991 214.817 218.808 216.728C218.625 218.638 217.655 220.731 215.817 221.215C213.979 221.7 212.158 220.301 210.814 218.93C206.186 214.123 203.14 208.017 200.295 201.948C197.451 195.879 194.707 189.673 190.545 184.454C186.383 179.235 180.483 175.013 173.898 174.4C167.312 173.788 160.114 177.682 158.239 184.116C156.364 190.551 159.958 197.305 163.928 202.707C169.823 210.713 176.844 217.828 184.773 223.829C186.2 224.908 187.737 226.078 188.24 227.805C189.155 230.913 186.136 233.883 183.063 234.797C179.587 235.839 175.855 235.364 172.242 235.711C168.629 236.059 164.669 237.539 163.196 240.857C161.157 245.519 164.952 250.582 168.739 253.946C176.326 260.682 185.017 266.062 194.432 269.849C197.789 271.193 201.338 272.399 204 274.867C206.661 277.335 208.198 281.549 206.433 284.748C204.667 287.947 200.396 288.861 196.856 288.093C193.316 287.325 190.188 285.287 186.795 283.907C180.52 281.311 172.306 281.494 168.062 286.85C165.273 290.378 164.888 295.387 166.105 299.728C167.321 304.07 169.947 307.853 172.755 311.354C182.56 323.611 195.292 333.619 209.872 339.185C224.451 344.752 238.053 346.552 252.861 341.662" fill="#76CADB"/>
<path d="M246.312 324.004C242.653 309.837 237.348 294.646 231.257 278.944C229.72 275.02 228.195 271.147 226.683 267.327C225.174 263.524 223.683 259.75 222 256.139C218.75 249.241 215.119 242.528 211.125 236.031C207.356 229.789 203.551 224.003 199.957 218.665C196.362 213.328 192.886 208.337 189.539 203.959C184.294 197.025 178.508 190.519 172.233 184.5C170.01 182.37 168.245 180.78 167.029 179.711L165.638 178.504C165.484 178.363 165.319 178.235 165.144 178.12C165.275 178.284 165.419 178.437 165.574 178.577L166.91 179.839C168.09 180.945 169.828 182.581 172.004 184.747C178.174 190.839 183.876 197.387 189.063 204.334C192.365 208.721 195.795 213.675 199.371 219.068C202.948 224.46 206.689 230.255 210.457 236.488C214.416 242.991 218.019 249.704 221.25 256.596C222.915 260.179 224.387 263.908 225.897 267.738C227.406 271.568 228.906 275.425 230.47 279.346C236.553 295.039 241.867 310.184 245.553 324.296" fill="#E0E0E0"/>
<path d="M221.817 256.103C222.052 255.469 222.224 254.814 222.33 254.147C222.613 252.876 222.961 251.03 223.354 248.736C224.15 244.166 225.037 237.768 225.979 230.785C226.921 223.802 227.9 217.441 228.769 212.889C229.189 210.604 229.555 208.767 229.82 207.496C230.007 206.847 230.115 206.178 230.141 205.504C229.862 206.12 229.647 206.763 229.5 207.423C229.134 208.666 228.677 210.494 228.183 212.761C227.159 217.331 226.089 223.647 225.137 230.666C224.186 237.686 223.391 243.855 222.759 248.645C222.455 250.814 222.201 252.642 222 254.129C221.864 254.777 221.802 255.44 221.817 256.103Z" fill="#E0E0E0"/>
<path d="M162.739 243.124C163.513 243.314 164.303 243.433 165.099 243.48C166.617 243.663 168.821 243.919 171.501 244.312C176.925 245.071 184.38 246.378 192.539 248.178C200.698 249.979 208.015 251.953 213.265 253.525C215.899 254.293 218.012 254.969 219.476 255.426C220.222 255.713 220.994 255.927 221.781 256.066C221.079 255.682 220.344 255.361 219.585 255.107C218.149 254.549 216.064 253.781 213.448 252.94C208.225 251.222 200.908 249.166 192.722 247.338C185.736 245.761 178.675 244.541 171.565 243.682C168.821 243.362 166.626 243.197 165.09 243.115C164.307 243.044 163.52 243.048 162.739 243.124Z" fill="#E0E0E0"/>
<path d="M245.644 322.889C245.823 322.674 245.968 322.434 246.074 322.176L247.154 320.065C248.068 318.237 249.367 315.495 250.904 312.158C253.986 305.45 257.947 296.045 262.172 285.652C266.398 275.26 270.276 265.773 273.212 259.009L276.706 251.003L277.621 248.818C277.745 248.569 277.837 248.305 277.895 248.032C277.717 248.247 277.572 248.487 277.466 248.745C277.173 249.312 276.816 250.016 276.377 250.856C275.462 252.684 274.173 255.426 272.636 258.753C269.554 265.471 265.593 274.876 261.358 285.323C257.123 295.77 253.264 305.194 250.327 311.957L246.861 319.9L245.946 322.084C245.806 322.336 245.704 322.607 245.644 322.889Z" fill="#E0E0E0"/>
<path d="M167.477 295.003C167.717 295.152 167.975 295.268 168.245 295.35L170.514 296.191L178.883 299.189C185.953 301.73 195.676 305.34 206.414 309.352C217.152 313.365 226.912 316.893 234.037 319.278C237.595 320.476 240.44 321.417 242.498 322.02L244.821 322.706C245.086 322.803 245.363 322.864 245.644 322.889C245.402 322.739 245.14 322.622 244.867 322.541L242.599 321.701L234.229 318.703C227.168 316.171 217.445 312.551 206.707 308.548C195.969 304.545 186.2 301.008 179.084 298.622C175.526 297.425 172.681 296.483 170.623 295.88L168.3 295.195C168.035 295.095 167.759 295.03 167.477 295.003Z" fill="#E0E0E0"/>
<path d="M272.142 204.361H569.82C577.181 204.361 583.147 210.324 583.147 217.678V405.368C583.147 412.723 577.181 418.685 569.82 418.685H272.142C264.782 418.685 258.815 412.723 258.815 405.368V217.678C258.815 210.324 264.782 204.361 272.142 204.361Z" fill="#455A64"/>
<path d="M595.824 404.847H244.437V407.333C244.437 411.648 246.152 415.786 249.206 418.837C252.259 421.888 256.4 423.602 260.718 423.602H579.543C583.861 423.602 588.003 421.888 591.056 418.837C594.109 415.786 595.824 411.648 595.824 407.333V404.847Z" fill="#455A64"/>
<path d="M268.429 212.88H574.44V393.87H268.429V212.88Z" fill="#263238"/>
<path d="M452.953 402.836L448.591 409.764H387.235L383.183 402.836H452.953Z" fill="#263238"/>
<path d="M277.091 219.004H565.147C566.798 219.004 568.137 220.342 568.137 221.992V390.296C568.137 391.947 566.798 393.285 565.147 393.285H277.091C275.439 393.285 274.1 391.947 274.1 390.296V221.992C274.1 220.342 275.439 219.004 277.091 219.004Z" fill="#EBEBEB"/>
<path d="M274.42 393.55H568.448L568.137 232.037H274.42V393.55Z" fill="#FAFAFA"/>
<path d="M544.027 225.758C544.027 226.223 544.165 226.677 544.424 227.064C544.682 227.45 545.05 227.752 545.48 227.929C545.91 228.107 546.383 228.153 546.84 228.061C547.296 227.97 547.715 227.745 548.043 227.416C548.371 227.086 548.595 226.667 548.684 226.211C548.774 225.754 548.726 225.282 548.547 224.853C548.367 224.424 548.065 224.057 547.677 223.8C547.289 223.543 546.834 223.407 546.368 223.409C546.06 223.409 545.755 223.47 545.47 223.588C545.186 223.706 544.927 223.879 544.709 224.098C544.492 224.316 544.32 224.575 544.202 224.86C544.085 225.145 544.026 225.45 544.027 225.758Z" fill="#263238"/>
<path d="M558.213 225.758C558.213 226.223 558.351 226.677 558.61 227.064C558.869 227.45 559.237 227.752 559.667 227.929C560.097 228.107 560.57 228.153 561.026 228.061C561.482 227.97 561.901 227.745 562.229 227.416C562.558 227.086 562.781 226.667 562.871 226.211C562.96 225.754 562.912 225.282 562.733 224.853C562.554 224.424 562.251 224.057 561.863 223.8C561.476 223.543 561.02 223.407 560.555 223.409C560.247 223.409 559.941 223.47 559.657 223.588C559.372 223.706 559.113 223.879 558.896 224.098C558.678 224.316 558.506 224.575 558.389 224.86C558.272 225.145 558.212 225.45 558.213 225.758Z" fill="#263238"/>
<path d="M551.427 225.758C551.427 226.223 551.565 226.677 551.823 227.064C552.082 227.45 552.45 227.752 552.88 227.929C553.31 228.107 553.783 228.153 554.239 228.061C554.695 227.97 555.114 227.745 555.443 227.416C555.771 227.086 555.994 226.667 556.084 226.211C556.174 225.754 556.126 225.282 555.946 224.853C555.767 224.424 555.464 224.057 555.077 223.8C554.689 223.543 554.233 223.407 553.768 223.409C553.146 223.411 552.551 223.66 552.112 224.1C551.673 224.541 551.427 225.137 551.427 225.758Z" fill="#263238"/>
<path d="M261.605 402.836C261.605 402.955 333.589 403.047 422.367 403.047C511.145 403.047 583.147 402.955 583.147 402.836C583.147 402.718 511.172 402.626 422.367 402.626C333.562 402.626 261.605 402.718 261.605 402.836Z" fill="#263238"/>
<path d="M383.585 362.026C383.585 362.154 401.22 362.264 422.971 362.264C444.722 362.264 462.356 362.154 462.356 362.026C462.356 361.898 444.722 361.789 422.971 361.789C401.22 361.789 383.585 361.944 383.585 362.026Z" fill="#E0E0E0"/>
<path d="M473.598 320.631H561.341V386.531H473.598V320.631Z" fill="#F5F5F5"/>
<path d="M561.305 386.576L530.7 345.583L511.693 371.194L498.824 357.484L473.561 386.494L561.305 386.576Z" fill="#E0E0E0"/>
<path d="M503.663 340.538C503.661 341.903 504.064 343.238 504.821 344.373C505.579 345.509 506.656 346.395 507.917 346.919C509.178 347.443 510.567 347.582 511.907 347.317C513.247 347.053 514.478 346.397 515.445 345.433C516.412 344.469 517.071 343.241 517.34 341.902C517.608 340.564 517.473 339.177 516.952 337.915C516.431 336.653 515.547 335.574 514.413 334.815C513.278 334.055 511.943 333.648 510.577 333.647C509.67 333.644 508.772 333.821 507.933 334.166C507.094 334.511 506.331 335.018 505.689 335.659C505.047 336.299 504.537 337.059 504.189 337.897C503.842 338.734 503.663 339.632 503.663 340.538Z" fill="#E0E0E0"/>
<path d="M284.271 320.732H372.015V386.631H284.271V320.732Z" fill="#F5F5F5"/>
<path d="M371.987 386.677L341.373 345.684L322.367 371.294L309.506 357.584L284.243 386.595L371.987 386.677Z" fill="#E0E0E0"/>
<path d="M314.336 340.639C314.334 342.006 314.738 343.343 315.497 344.48C316.255 345.618 317.335 346.505 318.598 347.029C319.861 347.553 321.252 347.692 322.594 347.426C323.936 347.16 325.169 346.503 326.137 345.537C327.105 344.571 327.764 343.34 328.032 341.999C328.3 340.659 328.163 339.269 327.64 338.006C327.117 336.743 326.231 335.663 325.093 334.903C323.956 334.143 322.619 333.738 321.251 333.738C319.418 333.738 317.661 334.465 316.364 335.759C315.068 337.052 314.338 338.808 314.336 340.639Z" fill="#E0E0E0"/>
<path d="M298.155 307.634C297.343 307.498 296.518 307.443 295.695 307.47C294.177 307.47 292.036 307.396 289.759 307.396H287.179L287.408 307.625C287.408 305.934 287.362 304.481 287.316 303.448C287.337 302.899 287.291 302.35 287.179 301.812C287.067 302.35 287.018 302.899 287.033 303.448C287.033 304.481 286.969 305.934 286.951 307.625V307.853H289.759C292.073 307.853 294.177 307.853 295.695 307.78C296.518 307.813 297.342 307.764 298.155 307.634Z" fill="#E0E0E0"/>
<path d="M320.107 307.634C316.455 307.317 312.783 307.317 309.131 307.634C312.783 307.951 316.455 307.951 320.107 307.634Z" fill="#E0E0E0"/>
<path d="M342.059 307.634C338.408 307.317 334.735 307.317 331.083 307.634C334.735 307.951 338.408 307.951 342.059 307.634Z" fill="#E0E0E0"/>
<path d="M364.011 307.634C360.36 307.317 356.687 307.317 353.035 307.634C356.687 307.951 360.36 307.951 364.011 307.634Z" fill="#E0E0E0"/>
<path d="M385.963 307.634C382.312 307.317 378.639 307.317 374.987 307.634C378.639 307.951 382.312 307.951 385.963 307.634Z" fill="#E0E0E0"/>
<path d="M407.915 307.634C404.263 307.317 400.591 307.317 396.939 307.634C400.591 307.951 404.263 307.951 407.915 307.634Z" fill="#E0E0E0"/>
<path d="M429.867 307.634C426.216 307.317 422.543 307.317 418.891 307.634C422.543 307.951 426.216 307.951 429.867 307.634Z" fill="#E0E0E0"/>
<path d="M451.819 307.634C448.168 307.317 444.495 307.317 440.843 307.634C444.495 307.951 448.168 307.951 451.819 307.634Z" fill="#E0E0E0"/>
<path d="M473.771 307.634C471.952 307.399 470.116 307.32 468.283 307.396C466.451 307.319 464.615 307.399 462.795 307.634C464.615 307.869 466.451 307.949 468.283 307.872C470.116 307.948 471.952 307.869 473.771 307.634Z" fill="#E0E0E0"/>
<path d="M495.723 307.634C493.904 307.399 492.068 307.32 490.235 307.396C488.403 307.319 486.567 307.399 484.747 307.634C486.567 307.869 488.403 307.949 490.235 307.872C492.068 307.948 493.904 307.869 495.723 307.634Z" fill="#E0E0E0"/>
<path d="M517.675 307.634C515.856 307.399 514.02 307.32 512.187 307.396C510.355 307.319 508.519 307.399 506.699 307.634C508.519 307.869 510.355 307.949 512.187 307.872C514.02 307.948 515.856 307.869 517.675 307.634Z" fill="#E0E0E0"/>
<path d="M539.627 307.634C537.808 307.399 535.972 307.32 534.139 307.396C532.307 307.319 530.471 307.399 528.651 307.634C530.471 307.869 532.307 307.949 534.139 307.872C535.972 307.948 537.808 307.869 539.627 307.634Z" fill="#E0E0E0"/>
<path d="M561.561 307.625C559.741 307.399 557.906 307.323 556.073 307.396C554.24 307.319 552.404 307.399 550.585 307.634C552.404 307.869 554.24 307.949 556.073 307.872C557.906 307.945 559.741 307.869 561.561 307.643V307.625Z" fill="#E0E0E0"/>
<path d="M561.561 285.689C561.244 289.338 561.244 293.008 561.561 296.657C561.878 293.008 561.878 289.338 561.561 285.689Z" fill="#E0E0E0"/>
<path d="M561.561 263.753C561.326 265.571 561.246 267.406 561.323 269.237C561.247 271.068 561.326 272.903 561.561 274.721C561.801 272.904 561.881 271.068 561.799 269.237C561.882 267.406 561.802 265.57 561.561 263.753Z" fill="#E0E0E0"/>
<path d="M561.561 241.817C561.326 243.635 561.246 245.47 561.323 247.301C561.247 249.132 561.326 250.967 561.561 252.785C561.801 250.968 561.881 249.132 561.799 247.301C561.882 245.47 561.802 243.634 561.561 241.817Z" fill="#E0E0E0"/>
<path d="M542.518 238.91C544.337 239.145 546.173 239.225 548.006 239.148C549.838 239.225 551.674 239.146 553.494 238.91C551.675 238.67 549.838 238.59 548.006 238.673C546.173 238.591 544.336 238.67 542.518 238.91Z" fill="#E0E0E0"/>
<path d="M520.566 238.91C522.385 239.145 524.221 239.225 526.054 239.148C527.886 239.225 529.722 239.146 531.542 238.91C529.723 238.67 527.886 238.59 526.054 238.673C524.221 238.591 522.384 238.67 520.566 238.91Z" fill="#E0E0E0"/>
<path d="M498.614 238.91C500.433 239.145 502.269 239.225 504.102 239.148C505.934 239.225 507.77 239.146 509.59 238.91C507.771 238.67 505.934 238.59 504.102 238.673C502.269 238.591 500.432 238.67 498.614 238.91Z" fill="#E0E0E0"/>
<path d="M476.662 238.91C478.481 239.145 480.317 239.225 482.15 239.148C483.982 239.225 485.818 239.146 487.638 238.91C485.819 238.67 483.982 238.59 482.15 238.673C480.317 238.591 478.48 238.67 476.662 238.91Z" fill="#E0E0E0"/>
<path d="M454.71 238.91C458.361 239.227 462.034 239.227 465.686 238.91C463.867 238.67 462.03 238.59 460.198 238.673C458.365 238.591 456.528 238.67 454.71 238.91Z" fill="#E0E0E0"/>
<path d="M432.758 238.91C436.409 239.227 440.082 239.227 443.734 238.91C440.082 238.594 436.409 238.594 432.758 238.91Z" fill="#E0E0E0"/>
<path d="M410.806 238.91C414.457 239.227 418.13 239.227 421.782 238.91C418.13 238.594 414.457 238.594 410.806 238.91Z" fill="#E0E0E0"/>
<path d="M388.854 238.91C392.505 239.227 396.178 239.227 399.83 238.91C396.178 238.594 392.505 238.594 388.854 238.91Z" fill="#E0E0E0"/>
<path d="M366.902 238.91C370.553 239.227 374.226 239.227 377.878 238.91C374.226 238.594 370.553 238.594 366.902 238.91Z" fill="#E0E0E0"/>
<path d="M344.95 238.91C348.601 239.227 352.274 239.227 355.926 238.91C352.274 238.594 348.601 238.594 344.95 238.91Z" fill="#E0E0E0"/>
<path d="M322.998 238.91C326.649 239.227 330.322 239.227 333.974 238.91C330.322 238.594 326.649 238.594 322.998 238.91Z" fill="#E0E0E0"/>
<path d="M301.046 238.91C304.697 239.227 308.37 239.227 312.022 238.91C308.37 238.594 304.697 238.594 301.046 238.91Z" fill="#E0E0E0"/>
<path d="M287.179 246.981C287.414 245.163 287.494 243.329 287.417 241.497C287.417 240.583 287.417 239.724 287.417 238.91L287.207 239.121C288.175 239.157 289.144 239.087 290.097 238.91C289.145 238.729 288.175 238.658 287.207 238.7H286.996V238.92C286.996 239.733 286.996 240.592 286.996 241.506C286.896 243.333 286.958 245.165 287.179 246.981Z" fill="#E0E0E0"/>
<path d="M287.179 268.917C287.414 267.099 287.494 265.265 287.417 263.433C287.494 261.602 287.414 259.767 287.179 257.949C286.939 259.767 286.859 261.602 286.942 263.433C286.859 265.265 286.939 267.1 287.179 268.917Z" fill="#E0E0E0"/>
<path d="M287.179 290.853C287.496 287.204 287.496 283.534 287.179 279.885C286.862 283.534 286.862 287.204 287.179 290.853Z" fill="#E0E0E0"/>
<path d="M383.585 384.246C383.585 384.383 401.22 384.483 422.971 384.483C444.722 384.483 462.356 384.383 462.356 384.246C462.356 384.108 444.722 384.008 422.971 384.008C401.22 384.008 383.585 384.118 383.585 384.246Z" fill="#E0E0E0"/>
<path d="M383.585 374.082C383.585 374.21 401.22 374.32 422.971 374.32C444.722 374.32 462.356 374.21 462.356 374.082C462.356 373.954 444.722 373.844 422.971 373.844C401.22 373.844 383.585 373.954 383.585 374.082Z" fill="#E0E0E0"/>
<path d="M624.838 295.706H629.576V423.42H624.838V295.706Z" fill="#263238"/>
<path d="M627.207 300.258C611.991 300.258 599.657 287.933 599.657 272.728C599.657 257.524 611.991 245.199 627.207 245.199C642.422 245.199 654.756 257.524 654.756 272.728C654.756 287.933 642.422 300.258 627.207 300.258Z" fill="#D52727"/>
<path d="M602.401 272.372C602.43 272.24 602.445 272.105 602.447 271.97C602.447 271.686 602.447 271.293 602.529 270.8C602.529 270.535 602.529 270.251 602.584 269.932C602.639 269.612 602.694 269.274 602.748 268.899C602.857 268.037 603.031 267.184 603.27 266.349C603.847 264.035 604.772 261.822 606.014 259.786C607.642 257.084 609.772 254.717 612.288 252.812C615.563 250.324 619.411 248.698 623.479 248.085C627.546 247.472 631.703 247.89 635.567 249.303C636.665 249.698 637.735 250.168 638.768 250.71C639.289 250.994 639.792 251.323 640.305 251.624C640.821 251.932 641.316 252.274 641.786 252.648C642.751 253.377 643.668 254.168 644.53 255.015C645.401 255.909 646.207 256.861 646.945 257.867C648.469 259.918 649.652 262.202 650.448 264.63C651.276 267.13 651.72 269.74 651.765 272.372C651.733 275.001 651.307 277.61 650.503 280.114C649.704 282.545 648.518 284.832 646.991 286.886C646.251 287.888 645.448 288.84 644.585 289.738C643.707 290.586 642.776 291.377 641.796 292.105C641.325 292.479 640.83 292.821 640.314 293.129C639.802 293.431 639.299 293.76 638.777 294.043C637.746 294.589 636.676 295.059 635.576 295.45C630.198 297.404 624.307 297.426 618.915 295.513C613.523 293.6 608.965 289.871 606.023 284.967C604.78 282.935 603.855 280.725 603.279 278.414C603.041 277.575 602.866 276.719 602.758 275.854C602.694 275.489 602.63 275.141 602.593 274.822C602.556 274.502 602.593 274.218 602.538 273.962C602.502 273.457 602.474 273.064 602.456 272.783C602.454 272.648 602.439 272.513 602.41 272.381C602.398 272.515 602.398 272.65 602.41 272.783C602.41 273.076 602.41 273.469 602.41 273.962C602.41 274.23 602.41 274.535 602.41 274.876C602.41 275.196 602.502 275.534 602.547 275.918C602.647 276.788 602.809 277.649 603.032 278.496C603.602 280.838 604.528 283.078 605.776 285.141C607.576 288.188 610.004 290.818 612.9 292.856C615.795 294.893 619.091 296.292 622.569 296.959C626.964 297.785 631.499 297.418 635.704 295.898C636.827 295.499 637.921 295.023 638.978 294.473C639.5 294.189 640.012 293.86 640.533 293.559C641.068 293.236 641.578 292.876 642.061 292.48C643.063 291.745 644.014 290.942 644.905 290.076C645.789 289.166 646.611 288.198 647.366 287.179C648.921 285.087 650.131 282.761 650.951 280.287C652.671 275.163 652.671 269.618 650.951 264.493C650.131 262.02 648.921 259.694 647.366 257.602C646.61 256.586 645.788 255.621 644.905 254.714C644.015 253.833 643.064 253.014 642.061 252.264C641.585 251.882 641.08 251.536 640.552 251.231C640.03 250.92 639.518 250.582 638.997 250.317C637.938 249.77 636.844 249.294 635.722 248.891C631.517 247.373 626.981 247.01 622.588 247.84C619.105 248.503 615.803 249.901 612.904 251.94C610.005 253.98 607.575 256.614 605.776 259.667C604.526 261.732 603.6 263.976 603.032 266.321C602.808 267.168 602.646 268.029 602.547 268.899C602.502 269.274 602.437 269.621 602.41 269.941C602.383 270.261 602.41 270.544 602.41 270.855C602.41 271.357 602.41 271.769 602.41 272.034C602.398 272.146 602.395 272.259 602.401 272.372Z" fill="white"/>
<path d="M612.856 269.292H641.549V275.269H612.856V269.292Z" fill="#FAFAFA"/>
<path d="M257.835 237.431L526.194 258.96L519.94 336.811L251.58 315.282L257.835 237.431Z" fill="white"/>
<path d="M251.562 315.248C251.654 314.124 253.931 286.466 257.965 237.412L257.809 237.549L526.145 259.183L525.935 258.927C523.776 285.799 521.672 311.939 519.678 336.772L519.925 336.562L328.12 321.271L251.562 315.248L252.87 315.367L256.748 315.696L271.795 316.93L327.946 321.5L519.898 337.038H520.127V336.8C522.13 311.985 524.233 285.826 526.392 258.955V258.717H526.154L257.837 237.247H257.681V237.393C253.821 286.457 251.645 314.124 251.562 315.248Z" fill="#263238"/>
<path d="M434.087 260.954L518.831 266.882L514.372 330.533L429.628 324.605L434.087 260.954Z" fill="#5483DE"/>
<path d="M328.797 315.22C330.603 315.607 332.439 315.84 334.285 315.915L334.541 315.696V315.431V315.156C334.541 314.964 334.541 314.791 334.541 314.608C334.541 314.261 334.596 313.922 334.614 313.584C334.614 312.981 334.678 312.405 334.715 311.839C334.792 311.305 334.792 310.763 334.715 310.23C334.537 310.739 334.435 311.272 334.413 311.811C334.349 312.369 334.285 312.944 334.211 313.548C334.211 313.877 334.147 314.224 334.12 314.571L334.065 315.111V315.394V315.65L334.321 315.431C332.489 315.205 330.641 315.135 328.797 315.22Z" fill="#E0E0E0"/>
<path d="M303.936 313.127C305.976 313.532 308.042 313.785 310.119 313.886C312.185 314.145 314.267 314.24 316.348 314.169C314.308 313.765 312.242 313.511 310.165 313.411C308.099 313.152 306.017 313.057 303.936 313.127Z" fill="#E0E0E0"/>
<path d="M279.148 311.034C281.188 311.439 283.255 311.692 285.332 311.793C287.398 312.046 289.48 312.141 291.561 312.076C289.521 311.672 287.454 311.418 285.377 311.318C283.312 311.058 281.229 310.964 279.148 311.034Z" fill="#E0E0E0"/>
<path d="M261.733 304.06C261.336 305.848 261.101 307.669 261.029 309.499C261.468 310.02 261.157 309.645 261.249 309.764H261.532H261.806H262.355L263.38 309.837L265.118 309.937C265.654 310.015 266.2 310.015 266.736 309.937C266.223 309.761 265.687 309.659 265.145 309.636L263.416 309.435L262.392 309.334L261.843 309.288H261.569H261.294C261.386 309.398 261.075 309.033 261.505 309.544C261.736 307.726 261.813 305.892 261.733 304.06Z" fill="#E0E0E0"/>
<path d="M263.462 283.596C262.835 286.969 262.529 290.393 262.547 293.824C262.925 292.151 263.149 290.446 263.215 288.733C263.451 287.031 263.534 285.312 263.462 283.596Z" fill="#E0E0E0"/>
<path d="M265.191 263.141C264.807 264.813 264.58 266.517 264.514 268.232C264.293 269.934 264.229 271.654 264.322 273.368C264.705 271.693 264.928 269.985 264.99 268.268C265.21 266.568 265.277 264.852 265.191 263.141Z" fill="#E0E0E0"/>
<path d="M271.987 247.904C270.18 247.518 268.344 247.286 266.499 247.21L266.243 247.429V247.694V247.968C266.243 248.16 266.243 248.334 266.243 248.517C266.243 248.864 266.197 249.202 266.169 249.54C266.169 250.144 266.105 250.719 266.078 251.286C265.998 251.819 265.998 252.361 266.078 252.895C266.256 252.385 266.358 251.852 266.38 251.313C266.444 250.756 266.508 250.18 266.581 249.577C266.581 249.248 266.645 248.9 266.682 248.553L266.727 248.014V247.731V247.475L266.462 247.694C268.294 247.919 270.142 247.989 271.987 247.904Z" fill="#E0E0E0"/>
<path d="M296.802 249.997C294.762 249.591 292.696 249.337 290.618 249.239C288.556 248.98 286.476 248.885 284.399 248.955C286.438 249.362 288.505 249.615 290.582 249.714C292.644 249.973 294.724 250.068 296.802 249.997Z" fill="#E0E0E0"/>
<path d="M321.626 252.09C319.586 251.684 317.52 251.431 315.442 251.332C313.377 251.078 311.294 250.983 309.214 251.048C311.256 251.453 313.326 251.707 315.406 251.807C317.468 252.066 319.548 252.161 321.626 252.09Z" fill="#E0E0E0"/>
<path d="M339.05 259.064C339.436 257.274 339.668 255.455 339.745 253.626C339.315 253.105 339.626 253.48 339.526 253.37H339.251H338.968L338.428 253.324L337.404 253.251L335.657 253.151C335.12 253.073 334.575 253.073 334.038 253.151C334.551 253.325 335.087 253.427 335.629 253.452L337.367 253.653L338.392 253.754L338.931 253.8H339.206H339.489L339.27 253.544C339.03 255.373 338.957 257.221 339.05 259.064Z" fill="#E0E0E0"/>
<path d="M337.321 279.529C337.698 277.852 337.922 276.145 337.989 274.428C338.215 272.729 338.28 271.012 338.181 269.301C337.803 270.974 337.58 272.678 337.513 274.392C337.287 276.094 337.223 277.814 337.321 279.529Z" fill="#E0E0E0"/>
<path d="M335.593 299.984C335.971 298.311 336.194 296.607 336.26 294.893C336.486 293.191 336.551 291.471 336.452 289.756C336.075 291.432 335.851 293.14 335.785 294.856C335.559 296.556 335.494 298.273 335.593 299.984Z" fill="#E0E0E0"/>
<path d="M514.602 329.506L487.885 287.947L467.835 311.336L456.374 297.251L430.069 323.501L514.602 329.506Z" fill="white"/>
<path d="M462.173 281.256C462.079 282.572 462.377 283.887 463.031 285.034C463.684 286.181 464.664 287.108 465.845 287.699C467.026 288.29 468.355 288.517 469.666 288.353C470.976 288.188 472.208 287.639 473.206 286.775C474.204 285.911 474.923 284.77 475.273 283.497C475.622 282.224 475.586 280.877 475.168 279.624C474.751 278.372 473.971 277.272 472.928 276.463C471.885 275.653 470.625 275.171 469.308 275.077C467.542 274.954 465.8 275.535 464.463 276.694C463.125 277.852 462.302 279.492 462.173 281.256Z" fill="#F5F5F5"/>
<g opacity="0.2">
<path opacity="0.2" d="M514.602 329.506L487.885 287.947L467.835 311.336L456.374 297.251L430.069 323.501L514.602 329.506Z" fill="black"/>
</g>
<g opacity="0.2">
<path opacity="0.2" d="M462.173 281.256C462.079 282.572 462.377 283.887 463.031 285.034C463.684 286.181 464.664 287.108 465.845 287.699C467.026 288.29 468.355 288.517 469.666 288.353C470.976 288.188 472.208 287.639 473.206 286.775C474.204 285.911 474.923 284.77 475.273 283.497C475.622 282.224 475.586 280.877 475.168 279.624C474.751 278.372 473.971 277.272 472.928 276.463C471.885 275.653 470.625 275.171 469.308 275.077C467.542 274.954 465.8 275.535 464.463 276.694C463.125 277.852 462.302 279.492 462.173 281.256Z" fill="black"/>
</g>
<path d="M346.459 270.946C346.459 271.083 362.877 272.701 383.155 274.602C403.433 276.503 419.888 277.883 419.907 277.746C419.925 277.609 403.443 276.001 383.201 274.09C362.959 272.18 346.468 270.818 346.459 270.946Z" fill="#263238"/>
<path d="M344.328 283.157C344.328 283.294 360.938 284.93 381.436 286.813C401.933 288.696 418.58 290.131 418.599 290.003C418.617 289.875 401.997 288.23 381.481 286.347C360.966 284.464 344.346 283.029 344.328 283.157Z" fill="#263238"/>
<path d="M342.206 295.377C342.206 295.505 358.99 297.16 379.707 299.033C400.424 300.907 417.208 302.388 417.208 302.26C417.208 302.132 400.433 300.477 379.707 298.558C358.981 296.639 342.215 295.222 342.206 295.377Z" fill="#263238"/>
<path d="M341.767 307.479C341.767 307.616 358.569 309.307 379.314 311.19C400.058 313.072 416.906 314.544 416.916 314.416C416.925 314.288 400.113 312.588 379.359 310.714C358.606 308.841 341.776 307.351 341.767 307.479Z" fill="#263238"/>
<path d="M382.894 262.885L421.561 265.987L421.315 269.049L382.648 265.947L382.894 262.885Z" fill="#5483DE"/>
<path d="M299.527 291.118C299.655 291.118 300.158 286.621 300.643 281.064C301.128 275.507 301.412 270.964 301.274 270.955C301.137 270.946 300.652 275.452 300.168 281.009C299.683 286.566 299.363 291.109 299.527 291.118Z" fill="#E0E0E0"/>
<path d="M291.076 280.543C291.076 280.671 295.411 281.055 300.771 281.393C306.131 281.731 310.494 281.905 310.494 281.777C307.279 281.326 304.043 281.039 300.799 280.918C295.439 280.598 291.085 280.415 291.076 280.543Z" fill="#E0E0E0"/>
<path d="M257.818 237.393C257.818 237.393 258.038 237.329 258.468 237.165L260.297 236.452L267.505 233.655L294.149 223.226L383.128 188.183H382.936L394.195 193.768L487.491 239.952L515.773 253.891L523.456 257.657L525.468 258.625C525.916 258.845 526.154 258.945 526.154 258.945L525.487 258.58L523.502 257.574L515.837 253.726L487.61 239.642L394.387 193.329L383.128 187.745H383.036H382.936L294.012 222.925L267.486 233.49L260.315 236.37L258.486 237.128L257.818 237.393Z" fill="#263238"/>
<path d="M312.461 109.68C312.943 108.616 313.721 107.712 314.702 107.076C315.682 106.439 316.825 106.097 317.994 106.09C319.163 106.082 320.31 106.409 321.299 107.032C322.288 107.656 323.077 108.549 323.574 109.607L333.132 110.393L323.473 129.432L317.418 118.299C316.753 118.237 316.103 118.06 315.497 117.778C314.766 117.446 314.107 116.972 313.559 116.386C313.01 115.799 312.583 115.11 312.301 114.358C312.019 113.606 311.888 112.805 311.915 112.003C311.943 111.2 312.128 110.411 312.461 109.68Z" fill="#263238"/>
<path d="M367.633 82.1138L361.395 79.454L376.442 75.6701C377.107 74.633 378.07 73.8208 379.205 73.34C380.34 72.8591 381.594 72.7321 382.802 72.9755C384.011 73.2188 385.118 73.8213 385.978 74.7038C386.838 75.5864 387.411 76.708 387.622 77.9216C387.833 79.1353 387.673 80.3844 387.162 81.5053C386.65 82.6263 385.812 83.5668 384.757 84.2037C383.702 84.8405 382.479 85.1441 381.248 85.0745C380.017 85.0049 378.836 84.5655 377.859 83.8138L363.572 92.5517L367.633 82.1138Z" fill="#263238"/>
<path d="M247.227 268.99V268.862L350.483 76.5201L351.069 75.4324L367.332 82.845L289.466 287.91L289.42 288.038L243.047 361.697L242.132 361.56L241.062 361.405L240.22 361.277L249.815 346.04L244.208 331.608L229.363 337.092L222.823 358.708L222.046 358.599L221.058 358.453L220.143 358.325L247.227 268.99ZM240.55 300.149L259.081 295.396L248.333 274.419L240.55 300.149ZM260.718 294.975L283.512 289.126L249.87 273.807L260.718 294.975ZM252.111 265.398L275.792 258.854L266.078 239.377L252.111 265.398ZM277.411 258.415L298.256 252.657L267.569 238.682L277.411 258.415ZM268.968 233.984L290.792 226.38L283.008 207.825L268.968 233.984ZM292.347 225.84L311.555 219.159L284.399 206.802L292.347 225.84ZM286.1 202.076L305.957 193.503L300.076 176.027L286.1 202.076ZM307.476 192.854L324.489 185.542L301.485 175.068L307.476 192.854ZM302.902 170.726L303.012 170.781L320.876 161.129L316.906 144.631L302.902 170.726ZM320.519 137.923L336.068 127.466L334.01 112.733L320.519 137.923ZM337.623 126.443L350.145 118.034L335.51 111.371L337.623 126.443ZM350.895 81.346L337.669 106.024L351.27 94.5716L350.895 81.346ZM353.419 112.084L363.023 86.83L352.962 95.3119L353.419 112.084ZM352.88 93.1823L363.682 84.088L352.477 78.9879L352.88 93.1823ZM351.334 96.6464L338.245 107.614L351.828 113.802L351.334 96.6464ZM350.483 119.807L337.87 128.271L340.413 146.359L350.483 119.807ZM336.352 129.294L321.196 139.467L338.913 147.529L336.352 129.294ZM318.269 143.105L322.403 160.297L337.779 151.971L318.269 143.105ZM337.477 154.018L322.787 161.952L327.315 180.78L337.477 154.018ZM321.287 162.765L304.906 171.613L325.714 181.063L321.287 162.765ZM324.946 187.096L308.015 194.408L314.665 214.178L324.946 187.096ZM306.497 195.057L287.518 203.283L313.192 214.964L306.497 195.057ZM312.205 220.649L292.997 227.339L301.741 248.206L312.205 220.649ZM291.433 227.888L270.651 235.127L300.085 248.517L291.433 227.888ZM299.536 254.019L278.152 259.923L289.018 281.713L299.536 254.019ZM276.496 260.362L253.254 266.76L287.463 282.298L276.496 260.362ZM284.728 290.524L261.422 296.502L270.194 313.612L284.728 290.524ZM259.785 296.922L240.824 301.785L268.923 314.581L259.785 296.922ZM250.84 344.359L263.288 324.58L245.69 331.097L250.84 344.359ZM245.096 329.561L264.724 322.249L265.209 321.49L237.769 309.014L237.486 309.928L245.096 329.561ZM243.55 330.128L236.781 312.588L229.939 335.2L243.55 330.128Z" fill="#263238"/>
<path d="M383.192 167.527C383.192 167.527 383.192 166.979 383.192 165.9C383.192 164.822 383.192 163.231 383.192 161.147C383.192 156.97 383.192 150.828 383.247 142.959C383.247 127.211 383.292 104.571 383.329 76.8766V76.7029H383.155L354.243 73.641H354.142L354.069 73.7233L278.655 157.948L168.895 280.717L135.637 317.944L126.619 328.089L124.286 330.731C123.765 331.325 123.5 331.645 123.5 331.645C123.5 331.645 123.783 331.352 124.323 330.731C124.863 330.109 125.658 329.268 126.692 328.117C128.777 325.814 131.832 322.413 135.775 318.063L169.105 280.918L279.002 158.259L354.371 74.034L354.197 74.1071L383.174 77.1051L383.009 76.9223C383.009 104.598 383.064 127.256 383.091 143.004C383.091 150.874 383.091 157.016 383.091 161.193C383.091 163.277 383.091 164.849 383.091 165.946C383.091 167.043 383.192 167.527 383.192 167.527Z" fill="#263238"/>
<path d="M381.527 141.707H385.46C385.652 141.707 385.808 141.862 385.808 142.054V151.276C385.808 151.468 385.652 151.623 385.46 151.623H381.527C381.335 151.623 381.18 151.468 381.18 151.276V142.054C381.18 141.862 381.335 141.707 381.527 141.707Z" fill="#263238"/>
<path d="M375.637 153.159H390.829C391.278 153.159 391.708 152.981 392.026 152.664C392.343 152.347 392.521 151.917 392.521 151.468C392.521 151.02 392.343 150.59 392.026 150.272C391.708 149.955 391.278 149.777 390.829 149.777H375.628C375.179 149.777 374.748 149.955 374.431 150.272C374.114 150.59 373.935 151.02 373.935 151.468C373.935 151.691 373.98 151.912 374.065 152.117C374.151 152.323 374.276 152.51 374.434 152.667C374.592 152.824 374.78 152.948 374.986 153.033C375.193 153.117 375.414 153.16 375.637 153.159Z" fill="#263238"/>
<path d="M382.131 180.323L382.186 178.157L384.427 179.144C384.504 179.943 384.504 180.748 384.427 181.548C384.423 181.677 384.395 181.804 384.344 181.923C384.205 182.102 384.013 182.233 383.796 182.297C382.814 182.671 381.999 183.384 381.5 184.308C381.335 184.644 381.244 185.011 381.233 185.384C381.221 185.758 381.288 186.13 381.431 186.476C381.574 186.821 381.788 187.133 382.06 187.389C382.332 187.646 382.656 187.842 383.009 187.964C383.705 188.175 384.457 188.101 385.098 187.758C385.74 187.415 386.219 186.832 386.43 186.136C386.43 185.761 386.43 185.222 386.942 185.222C387.683 185.149 388.003 186.228 387.985 186.794C387.866 190.075 384.774 191.117 383.466 191.163C382.578 191.223 381.691 191.033 380.905 190.615C380.284 190.256 379.748 189.768 379.334 189.182C378.921 188.597 378.639 187.929 378.509 187.224C377.795 182.91 382.36 180.597 382.131 180.323Z" fill="#263238"/>
<path d="M380.219 179.245L370.505 155.892C370.304 155.405 370.226 154.876 370.278 154.351C370.33 153.827 370.51 153.323 370.803 152.885C371.096 152.447 371.493 152.087 371.958 151.839C372.423 151.59 372.942 151.46 373.469 151.459H392.887C393.416 151.457 393.936 151.586 394.402 151.834C394.868 152.083 395.266 152.442 395.559 152.881C395.853 153.32 396.033 153.824 396.084 154.35C396.135 154.875 396.055 155.405 395.851 155.892L386.146 179.245C385.902 179.829 385.491 180.329 384.964 180.68C384.436 181.031 383.817 181.219 383.183 181.219C382.549 181.219 381.929 181.031 381.402 180.68C380.874 180.329 380.463 179.829 380.219 179.245Z" fill="#E0E0E0"/>
<path d="M391.899 153.113L394.415 155.618C394.415 155.709 394.415 155.81 394.369 155.901L393.546 157.875L388.78 153.113H391.899Z" fill="#F29F33"/>
<path d="M382.524 153.113H385.652L392.631 160.087L391.707 162.29L382.524 153.113Z" fill="#F29F33"/>
<path d="M375.847 165.178L373.634 159.84L387.125 173.322L386.21 175.525L375.847 165.178Z" fill="#F29F33"/>
<path d="M378.024 170.525L385.241 177.736L385.003 178.321C384.899 178.583 384.739 178.818 384.536 179.012C384.332 179.206 384.089 179.354 383.823 179.446L380.247 175.863L378.024 170.525Z" fill="#F29F33"/>
<path d="M376.277 153.113H379.396L390.793 164.493L389.878 166.704L376.277 153.113Z" fill="#F29F33"/>
<path d="M371.85 154.932C371.881 154.536 372.037 154.161 372.295 153.858C372.553 153.556 372.9 153.344 373.286 153.25L389 168.907L388.085 171.119L371.85 154.932Z" fill="#F29F33"/>
<path d="M133.104 326.609H116.786C116.146 326.609 115.531 326.863 115.078 327.316C114.626 327.768 114.371 328.382 114.371 329.022V336.462H135.518V329.04C135.521 328.722 135.46 328.406 135.34 328.111C135.22 327.816 135.042 327.548 134.818 327.322C134.593 327.096 134.326 326.917 134.032 326.794C133.738 326.672 133.422 326.609 133.104 326.609Z" fill="#263238"/>
<path d="M172.471 334.012H175.938V313.411C175.936 312.499 175.794 311.592 175.517 310.723L173.77 305.331C173.759 305.31 173.743 305.292 173.722 305.28C173.702 305.267 173.679 305.261 173.655 305.261C173.632 305.261 173.608 305.267 173.588 305.28C173.568 305.292 173.552 305.31 173.541 305.331L171.501 308.987L172.041 310.659C172.324 311.546 172.469 312.471 172.471 313.401V334.012Z" fill="#263238"/>
<path d="M87.0318 337.76C87.5134 336.583 88.2851 335.546 89.275 334.747C90.2648 333.948 91.4408 333.413 92.6936 333.19L179.404 333.144V318.748C179.404 318.288 179.495 317.832 179.672 317.407C179.848 316.981 180.107 316.595 180.433 316.27C180.76 315.945 181.147 315.687 181.573 315.512C181.999 315.336 182.456 315.247 182.916 315.248H224.817C225.56 315.247 226.283 315.482 226.883 315.919C227.483 316.356 227.929 316.973 228.156 317.679L229.409 321.646H224.744C224.211 321.645 223.685 321.761 223.201 321.985C222.718 322.21 222.289 322.537 221.945 322.944C221.609 323.344 221.368 323.815 221.241 324.322C221.115 324.828 221.105 325.357 221.214 325.868L225.695 347.119C225.886 347.915 226.338 348.624 226.98 349.133C227.622 349.642 228.416 349.921 229.235 349.925H238.135C238.253 351.279 238.172 352.643 237.897 353.974L237.403 356.104L260.343 360.61C260.526 360.646 260.693 360.734 260.827 360.864C260.96 360.994 261.052 361.159 261.093 361.341L263.252 367.136C263.39 367.399 263.495 367.678 263.563 367.967C264.02 369.878 263.682 373.077 262.529 373.077H237.952L238.995 374.32L240.385 378.634H84.2604C84.2238 364.686 84.5897 343.664 87.0318 337.76ZM195.246 324.58L197.551 345.492C197.551 345.757 197.624 346.022 197.67 346.278C198.133 348.345 199.296 350.189 200.963 351.498C202.63 352.807 204.697 353.501 206.817 353.462H217.116C217.589 353.462 218.056 353.356 218.483 353.152C218.91 352.947 219.286 352.651 219.583 352.283C219.881 351.914 220.092 351.485 220.201 351.025C220.311 350.564 220.316 350.086 220.217 349.623L215.369 324.525C215.205 323.731 214.773 323.018 214.145 322.506C213.517 321.993 212.731 321.712 211.921 321.71H197.835C197.463 321.71 197.096 321.789 196.756 321.94C196.417 322.092 196.114 322.314 195.866 322.591C195.618 322.867 195.432 323.193 195.319 323.547C195.206 323.901 195.168 324.275 195.21 324.644L195.246 324.58Z" fill="#F7C475"/>
<path d="M156.848 389.035L223.299 389.949C223.729 389.949 224.497 388.669 224.497 388.24V380.827C224.497 380.619 224.414 380.419 224.267 380.271C224.119 380.124 223.919 380.041 223.711 380.041H156.848C156.746 380.041 156.644 380.062 156.549 380.101C156.454 380.141 156.368 380.199 156.295 380.272C156.223 380.345 156.166 380.432 156.127 380.527C156.089 380.622 156.07 380.724 156.071 380.827V388.24C156.069 388.343 156.087 388.446 156.125 388.543C156.163 388.639 156.22 388.727 156.292 388.801C156.365 388.875 156.451 388.934 156.547 388.974C156.642 389.014 156.745 389.035 156.848 389.035Z" fill="#455A64"/>
<path d="M195.246 324.58L197.551 345.492C197.551 345.757 197.624 346.013 197.67 346.278C198.125 348.348 199.287 350.196 200.955 351.505C202.624 352.814 204.696 353.502 206.817 353.453H217.098C217.571 353.451 218.039 353.344 218.465 353.139C218.892 352.934 219.268 352.636 219.565 352.267C219.862 351.898 220.073 351.468 220.183 351.007C220.292 350.547 220.298 350.068 220.198 349.605L215.351 324.507C215.185 323.714 214.752 323.002 214.125 322.489C213.497 321.977 212.713 321.695 211.902 321.691H197.835C197.463 321.693 197.095 321.773 196.756 321.926C196.416 322.078 196.113 322.301 195.866 322.578C195.618 322.856 195.432 323.182 195.319 323.537C195.206 323.891 195.168 324.265 195.209 324.635L195.246 324.58Z" fill="#65CBE3"/>
<g style="mix-blend-mode:screen">
<path d="M84.2056 380.443C84.1372 379.877 84.2094 379.303 84.416 378.771H240.193C240.399 379.303 240.474 379.876 240.412 380.443H84.2056Z" fill="#65CBE3"/>
</g>
<path d="M228.156 317.67L237.531 346.781C238.282 349.105 238.408 351.586 237.897 353.974L233.882 372.583H179.404V318.748C179.404 317.818 179.774 316.925 180.433 316.267C181.092 315.608 181.985 315.239 182.917 315.239H224.817C225.559 315.241 226.281 315.477 226.881 315.914C227.48 316.35 227.927 316.965 228.156 317.67Z" fill="#FFC162"/>
<path d="M217.098 353.398C217.571 353.398 218.038 353.292 218.465 353.088C218.892 352.883 219.268 352.587 219.565 352.219C219.862 351.85 220.074 351.421 220.183 350.961C220.293 350.5 220.298 350.022 220.198 349.559L215.351 324.461C215.187 323.667 214.754 322.954 214.126 322.442C213.499 321.929 212.713 321.648 211.902 321.646H197.835C197.461 321.65 197.092 321.734 196.753 321.891C196.414 322.049 196.112 322.277 195.868 322.56C195.621 322.837 195.434 323.164 195.321 323.518C195.207 323.872 195.169 324.246 195.21 324.616L197.551 345.492C197.551 345.757 197.624 346.022 197.67 346.278C198.133 348.345 199.296 350.189 200.963 351.498C202.63 352.807 204.697 353.501 206.817 353.462L217.098 353.398Z" fill="#455A64"/>
<path d="M238.135 349.971C238.047 348.944 237.838 347.932 237.513 346.954L229.372 321.691H224.717C224.184 321.69 223.658 321.804 223.175 322.027C222.691 322.25 222.262 322.575 221.918 322.98C221.58 323.381 221.337 323.853 221.209 324.362C221.08 324.87 221.07 325.401 221.177 325.914L225.668 347.156C225.856 347.952 226.306 348.662 226.947 349.172C227.587 349.683 228.38 349.964 229.199 349.971H238.135Z" fill="#455A64"/>
<path d="M84.1324 382.756H240.211C241.4 382.756 241.4 378.442 240.211 378.442H84.1324C82.9342 378.442 82.9342 382.756 84.1324 382.756Z" fill="#263238"/>
<path d="M179.267 334.286C179.267 334.286 179.267 334.369 179.267 334.524V335.2C179.267 335.831 179.267 336.699 179.322 337.796C179.395 340.09 179.496 343.344 179.614 347.347C179.733 351.351 179.925 356.195 180.108 361.514C180.163 362.849 180.209 364.256 180.264 365.609C180.241 367.074 180.554 368.525 181.179 369.85C181.564 370.524 182.081 371.113 182.698 371.584C183.316 372.055 184.021 372.398 184.773 372.592C186.263 372.993 187.804 373.178 189.347 373.14L220.912 372.546L230.47 372.309L233.068 372.217H233.744C233.82 372.229 233.897 372.229 233.973 372.217C233.898 372.203 233.82 372.203 233.744 372.217H230.47L220.903 372.309L189.347 372.757C187.848 372.801 186.351 372.629 184.901 372.245C184.212 372.074 183.563 371.768 182.993 371.345C182.423 370.921 181.943 370.388 181.581 369.777C180.971 368.518 180.658 367.136 180.666 365.737C180.602 364.348 180.547 362.995 180.493 361.642C180.273 356.323 180.072 351.524 179.898 347.485C179.724 343.445 179.56 340.227 179.45 337.933C179.395 336.836 179.34 335.968 179.313 335.337C179.313 335.063 179.313 334.844 179.258 334.67C179.3 334.546 179.303 334.412 179.267 334.286Z" fill="#263238"/>
<path d="M223.747 372.802C223.884 372.802 223.985 368.232 223.985 362.593C223.985 356.954 223.884 352.374 223.747 352.374C223.61 352.374 223.509 356.944 223.509 362.593C223.509 368.241 223.619 372.802 223.747 372.802Z" fill="#263238"/>
<path d="M215.579 315.412C215.603 315.906 215.661 316.398 215.753 316.884C215.89 317.798 216.119 319.196 216.421 320.878C217.015 324.242 217.921 328.875 219.055 333.957C220.189 339.039 221.36 343.627 222.256 346.918C222.704 348.572 223.079 349.897 223.363 350.812C223.478 351.294 223.637 351.765 223.839 352.219C223.774 351.728 223.673 351.242 223.537 350.766C223.29 349.76 222.97 348.435 222.576 346.836C221.771 343.518 220.665 338.939 219.521 333.857C218.378 328.775 217.427 324.159 216.777 320.814L215.963 316.856C215.885 316.363 215.756 315.879 215.579 315.412Z" fill="#263238"/>
<path d="M197.515 361.706C197.215 361.636 196.928 361.518 196.664 361.359C196.382 361.147 196.176 360.848 196.079 360.509C195.967 360.065 196.025 359.596 196.243 359.193C196.381 358.961 196.58 358.771 196.819 358.646C197.058 358.52 197.327 358.462 197.597 358.48H199.673H204.42C204.773 358.486 205.111 358.623 205.369 358.865C205.626 359.106 205.783 359.435 205.811 359.787C205.864 360.116 205.802 360.452 205.635 360.74C205.468 361.029 205.207 361.25 204.896 361.368C204.75 361.423 204.595 361.451 204.439 361.45H202.911H201.082C199.975 361.45 199.079 361.496 198.466 361.524C198.143 361.51 197.82 361.541 197.505 361.615C197.82 361.689 198.143 361.72 198.466 361.706C199.079 361.706 199.975 361.761 201.082 361.78H202.911H204.42C204.625 361.781 204.829 361.75 205.024 361.688C205.434 361.542 205.781 361.26 206.009 360.889C206.237 360.519 206.332 360.081 206.277 359.65C206.256 359.179 206.054 358.735 205.713 358.41C205.372 358.085 204.919 357.904 204.448 357.904H199.701H197.624C197.293 357.893 196.964 357.972 196.674 358.133C196.384 358.294 196.144 358.531 195.978 358.818C195.842 359.075 195.766 359.359 195.758 359.65C195.742 359.9 195.773 360.151 195.85 360.39C195.983 360.772 196.245 361.095 196.591 361.304C196.799 361.439 197.038 361.517 197.286 361.533C197.432 361.743 197.515 361.716 197.515 361.706Z" fill="#65CBE3"/>
<path d="M94.3949 339.277C94.3949 339.414 100.798 339.514 108.645 339.514C116.493 339.514 122.896 339.414 122.896 339.277C122.896 339.14 116.493 339.039 108.645 339.039C100.798 339.039 94.3949 339.149 94.3949 339.277Z" fill="#263238"/>
<path d="M94.3949 342.11C94.3949 342.247 100.798 342.357 108.645 342.357C116.493 342.357 122.896 342.247 122.896 342.11C122.896 341.973 116.493 341.873 108.645 341.873C100.798 341.873 94.3949 341.982 94.3949 342.11Z" fill="#263238"/>
<path d="M94.3949 344.953C94.3949 345.081 100.798 345.19 108.645 345.19C116.493 345.19 122.896 345.081 122.896 344.953C122.896 344.825 116.493 344.715 108.645 344.715C100.798 344.715 94.3949 344.816 94.3949 344.953Z" fill="#263238"/>
<path d="M94.3949 347.786C94.3949 347.914 100.798 348.024 108.645 348.024C116.493 348.024 122.896 347.914 122.896 347.786C122.896 347.658 116.493 347.549 108.645 347.549C100.798 347.549 94.3949 347.649 94.3949 347.786Z" fill="#263238"/>
<path d="M94.3949 350.62C94.3949 350.748 100.798 350.857 108.645 350.857C116.493 350.857 122.896 350.748 122.896 350.62C122.896 350.492 116.493 350.382 108.645 350.382C100.798 350.382 94.3949 350.482 94.3949 350.62Z" fill="#263238"/>
<path d="M94.3949 353.453C94.3949 353.581 100.798 353.691 108.645 353.691C116.493 353.691 122.896 353.581 122.896 353.453C122.896 353.325 116.493 353.215 108.645 353.215C100.798 353.215 94.3949 353.316 94.3949 353.453Z" fill="#263238"/>
<path d="M94.3949 356.286C94.3949 356.414 100.798 356.524 108.645 356.524C116.493 356.524 122.896 356.414 122.896 356.286C122.896 356.158 116.493 356.049 108.645 356.049C100.798 356.049 94.3949 356.149 94.3949 356.286Z" fill="#263238"/>
<path d="M256.19 423.602C264.742 423.602 271.941 415.376 271.941 406.803C271.941 398.23 264.413 391.046 255.861 391.046L118.085 384.794C114.588 384.602 111.108 385.406 108.05 387.111C104.992 388.816 102.48 391.353 100.807 394.428C98.7683 398.352 98.2224 402.882 99.2702 407.178C102.929 423.813 116.749 423.63 122.137 423.255C127.524 422.88 256.19 423.602 256.19 423.602Z" fill="#263238"/>
<path d="M256.19 419.563C249.083 419.563 243.321 413.805 243.321 406.703C243.321 399.6 249.083 393.843 256.19 393.843C263.298 393.843 269.06 399.6 269.06 406.703C269.06 413.805 263.298 419.563 256.19 419.563Z" fill="#455A64"/>
<path d="M118.954 420.723C109.76 420.723 102.307 413.276 102.307 404.089C102.307 394.901 109.76 387.454 118.954 387.454C128.148 387.454 135.601 394.901 135.601 404.089C135.601 413.276 128.148 420.723 118.954 420.723Z" fill="#455A64"/>
<path d="M117.097 387.984L117.454 388.039L118.506 388.158L122.548 388.56C126.07 388.907 131.155 389.364 137.457 389.876C150.043 390.909 167.459 392.106 186.712 392.956C205.966 393.806 223.436 394.144 236.104 394.217C242.425 394.217 247.528 394.217 251.068 394.217L255.129 394.163H256.19C256.309 394.177 256.429 394.177 256.547 394.163H256.19H255.129H251.068L236.104 394.016C223.482 393.852 206.03 393.459 186.776 392.618C167.523 391.777 150.107 390.625 137.522 389.675L122.603 388.514L118.551 388.194L117.49 388.13C117.367 388.063 117.234 388.014 117.097 387.984Z" fill="#455A64"/>
<path d="M122.393 419.151C122.393 419.279 152.348 419.389 189.301 419.389C226.253 419.389 256.209 419.279 256.209 419.151C256.209 419.023 226.262 418.914 189.301 418.914C152.339 418.914 122.393 419.014 122.393 419.151Z" fill="#455A64"/>
<path d="M233.241 372.354C233.604 371.293 233.91 370.213 234.156 369.119C234.714 367.117 235.528 364.357 236.351 361.277C237.094 358.659 237.668 355.997 238.071 353.307C238.176 352.485 238.225 351.658 238.217 350.83C238.224 350.521 238.184 350.213 238.098 349.916C238.025 349.916 238.098 351.205 237.741 353.243C237.385 355.281 236.717 358.087 235.912 361.149C235.107 364.211 234.321 366.989 233.845 369.028C233.607 370.042 233.424 370.856 233.333 371.44C233.258 371.739 233.227 372.047 233.241 372.354Z" fill="#65CBE3"/>
<path d="M128.119 414.362C128.465 414.195 128.788 413.983 129.079 413.731C129.891 413.079 130.611 412.319 131.219 411.474C132.134 410.214 132.813 408.799 133.223 407.297C133.756 405.455 133.844 403.514 133.478 401.632C133.112 399.75 132.303 397.983 131.119 396.475C130.174 395.24 129.016 394.184 127.698 393.358C126.812 392.802 125.855 392.369 124.853 392.069C124.493 391.946 124.118 391.869 123.738 391.841C125.062 392.306 126.329 392.92 127.515 393.669C128.767 394.512 129.867 395.56 130.771 396.767C131.893 398.234 132.661 399.94 133.013 401.753C133.365 403.565 133.293 405.435 132.802 407.214C132.434 408.672 131.815 410.055 130.973 411.3C130.145 412.429 129.187 413.457 128.119 414.362Z" fill="#FAFAFA"/>
<path d="M200.432 336.206C202.722 338.153 205.11 339.983 207.585 341.69C209.968 343.512 212.447 345.206 215.012 346.762C212.722 344.815 210.335 342.985 207.859 341.278C205.476 339.456 202.997 337.762 200.432 336.206Z" fill="white"/>
<path d="M199.335 332.321C201.315 333.993 203.396 335.543 205.564 336.964C207.642 338.513 209.814 339.932 212.067 341.214C210.083 339.546 208.003 337.996 205.838 336.571C203.758 335.024 201.586 333.605 199.335 332.321Z" fill="white"/>
<path d="M226.189 338.317C227.136 339.271 228.195 340.106 229.345 340.803C230.405 341.636 231.559 342.341 232.784 342.905C231.828 341.959 230.766 341.124 229.619 340.419C228.563 339.586 227.412 338.88 226.189 338.317Z" fill="white"/>
<path d="M224.314 334.679C226.619 336.863 229.134 338.813 231.824 340.502C229.524 338.312 227.008 336.362 224.314 334.679Z" fill="white"/>
<path d="M195.594 356.917C198.995 357.234 202.418 357.234 205.82 356.917C202.418 356.6 198.995 356.6 195.594 356.917Z" fill="#65CBE3"/>
<path d="M258.751 417.616C259.133 417.592 259.509 417.512 259.867 417.378C260.869 417.059 261.819 416.594 262.685 415.998C263.971 415.108 265.074 413.979 265.932 412.671C267.016 411.073 267.659 409.217 267.795 407.291C267.932 405.366 267.557 403.438 266.709 401.703C266.049 400.286 265.116 399.013 263.965 397.956C263.193 397.241 262.317 396.646 261.367 396.192C261.028 396.016 260.669 395.884 260.297 395.799C261.54 396.448 262.693 397.256 263.727 398.202C264.81 399.25 265.688 400.49 266.316 401.858C267.111 403.533 267.461 405.385 267.331 407.234C267.202 409.083 266.597 410.868 265.575 412.415C264.763 413.695 263.717 414.811 262.492 415.705C261.336 416.505 260.078 417.147 258.751 417.616Z" fill="#FAFAFA"/>
<path d="M239.232 366.88C239.232 367.008 244.19 367.117 250.309 367.117C256.428 367.117 261.395 367.008 261.395 366.88C261.395 366.752 256.437 366.642 250.309 366.642C244.181 366.642 239.232 366.752 239.232 366.88Z" fill="white"/>
<path d="M339.132 96.0614L347.474 78.1562C348.088 76.8393 348.955 75.6561 350.026 74.6743C351.098 73.6924 352.352 72.931 353.718 72.4336C355.084 71.9363 356.534 71.7126 357.986 71.7755C359.439 71.8384 360.864 72.1866 362.182 72.8001C363.5 73.4133 364.684 74.2799 365.666 75.3504C366.649 76.4209 367.411 77.6744 367.909 79.0392C368.406 80.404 368.63 81.8534 368.567 83.3047C368.504 84.7559 368.156 86.1806 367.542 87.4972L359.191 105.393C359.155 105.477 359.102 105.552 359.035 105.614C358.969 105.676 358.89 105.724 358.805 105.755C358.719 105.786 358.628 105.799 358.537 105.793C358.446 105.788 358.358 105.764 358.276 105.722L339.434 96.948C339.277 96.8694 339.158 96.7324 339.101 96.5665C339.045 96.4006 339.056 96.2192 339.132 96.0614Z" fill="#65CBE3"/>
<path d="M658.918 336.891H663.62V423.255H658.918V336.891Z" fill="#E0E0E0"/>
<path d="M656.513 333.93C656.513 334.866 656.79 335.782 657.311 336.56C657.832 337.339 658.572 337.946 659.437 338.304C660.303 338.662 661.256 338.756 662.175 338.573C663.094 338.391 663.938 337.94 664.601 337.278C665.263 336.616 665.715 335.772 665.897 334.854C666.08 333.935 665.986 332.983 665.628 332.118C665.269 331.253 664.662 330.514 663.883 329.993C663.104 329.473 662.188 329.195 661.251 329.195C659.994 329.195 658.789 329.694 657.9 330.582C657.012 331.47 656.513 332.674 656.513 333.93Z" fill="#F9B245"/>
<path d="M565.494 336.891H570.195V423.255H565.494V336.891Z" fill="#E0E0E0"/>
<path d="M563.089 333.93C563.089 334.866 563.366 335.782 563.887 336.56C564.408 337.339 565.148 337.946 566.013 338.304C566.879 338.662 567.832 338.756 568.751 338.573C569.67 338.391 570.514 337.94 571.177 337.278C571.839 336.616 572.291 335.772 572.473 334.854C572.656 333.935 572.562 332.983 572.204 332.118C571.845 331.253 571.238 330.514 570.459 329.993C569.68 329.473 568.764 329.195 567.826 329.195C566.57 329.195 565.365 329.694 564.476 330.582C563.588 331.47 563.089 332.674 563.089 333.93Z" fill="#F9B245"/>
<path d="M556.585 345.227H677.038V366.761H556.585V345.227Z" fill="#F9B245"/>
<path d="M663.409 345.218L663.62 345.583L675.995 366.761H677.038V345.218H663.409Z" fill="#F5F5F5"/>
<path d="M632.96 345.218L645.564 366.761H662.019L657.016 358.206L649.424 345.218H632.96Z" fill="#F5F5F5"/>
<path d="M602.529 345.218L615.124 366.761H631.588L618.993 345.218H602.529Z" fill="#F5F5F5"/>
<path d="M572.107 345.227L584.702 366.761H601.157L588.562 345.227H572.107Z" fill="#F5F5F5"/>
<path d="M556.585 345.227V366.761H570.726L558.122 345.227H556.585Z" fill="#F5F5F5"/>
<path d="M556.585 378.487H677.038V400.021H556.585V378.487Z" fill="#F9B245"/>
<path d="M663.409 378.496L663.62 378.853L675.995 400.03H677.038V378.496H663.409Z" fill="#F5F5F5"/>
<path d="M632.96 378.496L645.564 400.03H662.019L657.016 391.475L649.424 378.496H632.96Z" fill="#F5F5F5"/>
<path d="M602.529 378.496L615.124 400.03H631.588L618.993 378.496H602.529Z" fill="#F5F5F5"/>
<path d="M572.107 378.496L584.702 400.03H601.157L588.562 378.496H572.107Z" fill="#F5F5F5"/>
<path d="M556.585 378.496V400.03H570.726L558.122 378.496H556.585Z" fill="#F5F5F5"/>
<path d="M556.585 366.761C556.585 366.761 556.585 366.633 556.585 366.386C556.585 366.139 556.585 365.774 556.585 365.308C556.585 364.348 556.585 362.949 556.585 361.121C556.585 357.465 556.631 352.091 556.658 345.227L556.53 345.346L677.029 345.492L676.791 345.254V366.788L677.029 366.551L591.279 366.651L565.851 366.724H558.982H557.198H556.576H557.171H558.927H565.741L591.114 366.788L677.029 366.889H677.266V344.98H677.019L556.576 345.099H556.457V345.227C556.457 352.118 556.512 357.511 556.521 361.195C556.521 363.023 556.521 364.403 556.521 365.353C556.521 365.81 556.521 366.158 556.521 366.413C556.521 366.669 556.585 366.761 556.585 366.761Z" fill="#263238"/>
<path d="M556.585 400.03C556.585 400.03 556.585 399.893 556.585 399.656C556.585 399.418 556.585 399.043 556.585 398.577C556.585 397.617 556.585 396.219 556.585 394.391C556.585 390.735 556.631 385.361 556.658 378.487L556.53 378.615L676.974 378.725L676.736 378.487V400.03L676.974 399.793L591.224 399.893L565.796 399.966H558.927H557.143C556.741 399.966 556.521 399.966 556.521 399.966H557.116H558.872H565.686L591.059 400.039L676.974 400.14H677.211V378.25H676.965L556.521 378.369H556.402V378.487C556.402 385.388 556.457 390.781 556.466 394.464C556.466 396.292 556.466 397.672 556.466 398.623C556.466 399.08 556.466 399.427 556.466 399.683C556.466 399.939 556.585 400.03 556.585 400.03Z" fill="#263238"/>
<path d="M90.1051 423.602C90.1051 423.73 223.116 423.84 387.152 423.84C551.189 423.84 684.236 423.73 684.236 423.602C684.236 423.474 551.253 423.365 387.152 423.365C223.052 423.365 90.1051 423.465 90.1051 423.602Z" fill="#263238"/>
<path opacity="0.1" d="M677.394 -3.70485H671.475C672.575 -3.70485 673.63 -4.14182 674.407 -4.91964C675.185 -5.69746 675.622 -6.75241 675.622 -7.85242C675.622 -8.95242 675.185 -10.0074 674.407 -10.7852C673.63 -11.563 672.575 -12 671.475 -12H623.514C622.414 -12 621.359 -11.563 620.581 -10.7852C619.803 -10.0074 619.366 -8.95242 619.366 -7.85242C619.366 -6.75241 619.803 -5.69746 620.581 -4.91964C621.359 -4.14182 622.414 -3.70485 623.514 -3.70485H629.433C628.369 -3.65406 627.365 -3.1954 626.629 -2.42402C625.894 -1.65265 625.483 -0.62777 625.483 0.438013C625.483 1.5038 625.894 2.52868 626.629 3.30005C627.365 4.07142 628.369 4.53008 629.433 4.58088H621.148C620.048 4.58088 618.993 5.01785 618.215 5.79567C617.437 6.57349 617 7.62844 617 8.72844C617 9.82845 617.437 10.8834 618.215 11.6612C618.993 12.439 620.048 12.876 621.148 12.876H669.109C670.209 12.876 671.264 12.439 672.041 11.6612C672.819 10.8834 673.256 9.82845 673.256 8.72844C673.256 7.62844 672.819 6.57349 672.041 5.79567C671.264 5.01785 670.209 4.58088 669.109 4.58088H677.394C677.955 4.60763 678.515 4.52029 679.041 4.32416C679.567 4.12803 680.048 3.82719 680.454 3.43986C680.86 3.05252 681.184 2.58676 681.405 2.07077C681.626 1.55479 681.74 0.999324 681.74 0.438013C681.74 -0.123298 681.626 -0.678775 681.405 -1.19476C681.184 -1.71075 680.86 -2.17651 680.454 -2.56384C680.048 -2.95118 679.567 -3.25201 679.041 -3.44814C678.515 -3.64426 677.955 -3.7316 677.394 -3.70485Z" fill="#00B0FF"/>
<path opacity="0.1" d="M267.394 2.29515H261.475C262.575 2.29515 263.63 1.85818 264.407 1.08036C265.185 0.302535 265.622 -0.752414 265.622 -1.85242C265.622 -2.95242 265.185 -4.00739 264.407 -4.78521C263.63 -5.56303 262.575 -6 261.475 -6H213.514C212.414 -6 211.359 -5.56303 210.581 -4.78521C209.803 -4.00739 209.366 -2.95242 209.366 -1.85242C209.366 -0.752414 209.803 0.302535 210.581 1.08036C211.359 1.85818 212.414 2.29515 213.514 2.29515H219.433C218.369 2.34594 217.365 2.8046 216.629 3.57598C215.894 4.34735 215.483 5.37223 215.483 6.43801C215.483 7.5038 215.894 8.52868 216.629 9.30005C217.365 10.0714 218.369 10.5301 219.433 10.5809H211.148C210.048 10.5809 208.993 11.0178 208.215 11.7957C207.437 12.5735 207 13.6284 207 14.7284C207 15.8284 207.437 16.8834 208.215 17.6612C208.993 18.439 210.048 18.876 211.148 18.876H259.109C260.209 18.876 261.264 18.439 262.041 17.6612C262.819 16.8834 263.256 15.8284 263.256 14.7284C263.256 13.6284 262.819 12.5735 262.041 11.7957C261.264 11.0178 260.209 10.5809 259.109 10.5809H267.394C267.955 10.6076 268.515 10.5203 269.041 10.3242C269.567 10.128 270.048 9.82719 270.454 9.43986C270.86 9.05252 271.184 8.58676 271.405 8.07077C271.626 7.55479 271.74 6.99932 271.74 6.43801C271.74 5.8767 271.626 5.32123 271.405 4.80524C271.184 4.28925 270.86 3.82349 270.454 3.43616C270.048 3.04882 269.567 2.74799 269.041 2.55186C268.515 2.35574 267.955 2.2684 267.394 2.29515Z" fill="#00B0FF"/>
<path opacity="0.1" d="M446.909 111.928H440.989C442.089 111.928 443.144 111.491 443.922 110.713C444.7 109.935 445.137 108.88 445.137 107.78C445.137 106.68 444.7 105.625 443.922 104.848C443.144 104.07 442.089 103.633 440.989 103.633H393.028C391.928 103.633 390.873 104.07 390.096 104.848C389.318 105.625 388.881 106.68 388.881 107.78C388.881 108.88 389.318 109.935 390.096 110.713C390.873 111.491 391.928 111.928 393.028 111.928H398.948C397.884 111.979 396.879 112.437 396.144 113.209C395.409 113.98 394.998 115.005 394.998 116.071C394.998 117.137 395.409 118.161 396.144 118.933C396.879 119.704 397.884 120.163 398.948 120.214H390.662C389.562 120.214 388.508 120.651 387.73 121.428C386.952 122.206 386.515 123.261 386.515 124.361C386.515 125.461 386.952 126.516 387.73 127.294C388.508 128.072 389.562 128.509 390.662 128.509H438.624C439.724 128.509 440.778 128.072 441.556 127.294C442.334 126.516 442.771 125.461 442.771 124.361C442.771 123.261 442.334 122.206 441.556 121.428C440.778 120.651 439.724 120.214 438.624 120.214H446.909C447.47 120.24 448.03 120.153 448.556 119.957C449.082 119.761 449.563 119.46 449.969 119.073C450.375 118.685 450.699 118.22 450.92 117.704C451.141 117.188 451.254 116.632 451.254 116.071C451.254 115.51 451.141 114.954 450.92 114.438C450.699 113.922 450.375 113.456 449.969 113.069C449.563 112.682 449.082 112.381 448.556 112.185C448.03 111.989 447.47 111.901 446.909 111.928Z" fill="#00B0FF"/>
<path opacity="0.1" d="M172.394 87.2951H166.475C167.575 87.2951 168.63 86.8582 169.407 86.0804C170.185 85.3025 170.622 84.2476 170.622 83.1476C170.622 82.0476 170.185 80.9926 169.407 80.2148C168.63 79.437 167.575 79 166.475 79H118.514C117.414 79 116.359 79.437 115.581 80.2148C114.803 80.9926 114.366 82.0476 114.366 83.1476C114.366 84.2476 114.803 85.3025 115.581 86.0804C116.359 86.8582 117.414 87.2951 118.514 87.2951H124.433C123.369 87.3459 122.365 87.8046 121.629 88.576C120.894 89.3473 120.483 90.3722 120.483 91.438C120.483 92.5038 120.894 93.5287 121.629 94.3C122.365 95.0714 123.369 95.5301 124.433 95.5809H116.148C115.048 95.5809 113.993 96.0178 113.215 96.7957C112.437 97.5735 112 98.6284 112 99.7284C112 100.828 112.437 101.883 113.215 102.661C113.993 103.439 115.048 103.876 116.148 103.876H164.109C165.209 103.876 166.264 103.439 167.041 102.661C167.819 101.883 168.256 100.828 168.256 99.7284C168.256 98.6284 167.819 97.5735 167.041 96.7957C166.264 96.0178 165.209 95.5809 164.109 95.5809H172.394C172.955 95.6076 173.515 95.5203 174.041 95.3242C174.567 95.128 175.048 94.8272 175.454 94.4399C175.86 94.0525 176.184 93.5868 176.405 93.0708C176.626 92.5548 176.74 91.9993 176.74 91.438C176.74 90.8767 176.626 90.3212 176.405 89.8052C176.184 89.2893 175.86 88.8235 175.454 88.4362C175.048 88.0488 174.567 87.748 174.041 87.5519C173.515 87.3557 172.955 87.2684 172.394 87.2951Z" fill="#00B0FF"/>
<path opacity="0.1" d="M641.394 55.2951H635.475C636.575 55.2951 637.63 54.8582 638.407 54.0804C639.185 53.3025 639.622 52.2476 639.622 51.1476C639.622 50.0476 639.185 48.9926 638.407 48.2148C637.63 47.437 636.575 47 635.475 47H587.514C586.414 47 585.359 47.437 584.581 48.2148C583.803 48.9926 583.366 50.0476 583.366 51.1476C583.366 52.2476 583.803 53.3025 584.581 54.0804C585.359 54.8582 586.414 55.2951 587.514 55.2951H593.433C592.369 55.3459 591.365 55.8046 590.629 56.576C589.894 57.3473 589.483 58.3722 589.483 59.438C589.483 60.5038 589.894 61.5287 590.629 62.3C591.365 63.0714 592.369 63.5301 593.433 63.5809H585.148C584.048 63.5809 582.993 64.0178 582.215 64.7957C581.437 65.5735 581 66.6284 581 67.7284C581 68.8284 581.437 69.8834 582.215 70.6612C582.993 71.439 584.048 71.876 585.148 71.876H633.109C634.209 71.876 635.264 71.439 636.041 70.6612C636.819 69.8834 637.256 68.8284 637.256 67.7284C637.256 66.6284 636.819 65.5735 636.041 64.7957C635.264 64.0178 634.209 63.5809 633.109 63.5809H641.394C641.955 63.6076 642.515 63.5203 643.041 63.3242C643.567 63.128 644.048 62.8272 644.454 62.4399C644.86 62.0525 645.184 61.5868 645.405 61.0708C645.626 60.5548 645.74 59.9993 645.74 59.438C645.74 58.8767 645.626 58.3212 645.405 57.8052C645.184 57.2893 644.86 56.8235 644.454 56.4362C644.048 56.0488 643.567 55.748 643.041 55.5519C642.515 55.3557 641.955 55.2684 641.394 55.2951Z" fill="#00B0FF"/>
</g>
<path d="M297.078 463.233L286.515 410.621H282.721L271.898 463.233L264.136 467.988V469.392H304.589V467.988L297.078 463.233Z" fill="#F29F33"/>
<path opacity="0.2" d="M304.841 467.988H264.388V469.759H304.841V467.988Z" fill="black"/>
<path opacity="0.2" d="M286.515 410.934H282.721L272.028 463.385H297.208L286.515 410.934Z" fill="black"/>
<path opacity="0.6" d="M294.888 451.837H274.417L278.103 433.519H291.163L294.819 451.486L294.888 451.837Z" fill="white"/>
<path d="M323.364 469.275L310.86 407H306.37L293.559 469.275L284.371 474.904V476.566H332.254V474.904L323.364 469.275Z" fill="#F29F33"/>
<path opacity="0.2" d="M332.552 474.904H284.669V477H332.552V474.904Z" fill="black"/>
<path opacity="0.2" d="M310.86 407.37H306.37L293.712 469.456H323.517L310.86 407.37Z" fill="black"/>
<path opacity="0.6" d="M320.771 455.787H296.54L300.904 434.104H316.362L320.69 455.371L320.771 455.787Z" fill="white"/>
<path d="M90.3478 236.31L98.3179 239.285C98.9129 238.834 95.9106 211.787 95.9106 211.787L100.743 211.075C100.743 211.075 108.911 239.168 106.153 244.848C102.546 252.205 86.6243 244.848 86.6243 244.848L90.3478 236.31Z" fill="#B97964"/>
<path d="M64.1298 242.891C64.6064 242.844 65.0866 242.844 65.5633 242.891C69.0405 243.284 72.4908 243.886 75.8954 244.695C83.631 246.327 92.124 248.517 92.124 248.517L95.9106 237.482C95.9106 237.482 70.9638 223.057 66.9157 224.238C66.9157 224.238 60.1448 243.496 64.1298 242.891Z" fill="#263238"/>
<path d="M6.87899 254.116C6.87899 254.116 0.189243 261.825 0.946575 271.742C1.70391 281.66 26.8852 296.987 26.8852 296.987L30.0948 292.028C30.0948 292.028 10.0345 275.123 9.58375 271.742C9.13296 268.361 13.7491 260.923 13.7491 260.923L6.87899 254.116Z" fill="#B97964"/>
<path d="M29.1934 290.297C29.1934 290.297 25.0912 295.797 25.2895 296.5C25.4879 297.203 28.8057 299.268 28.8057 299.268C28.8057 299.268 28.2467 302.549 28.2467 303.144C28.2467 304.614 30.8703 306.453 31.5465 306.002C33.9718 304.38 34.8553 299.989 35.3061 297.978C35.7569 295.968 30.3744 289.693 29.1934 290.297Z" fill="#00B0FF"/>
<path opacity="0.7" d="M29.1934 290.297C29.1934 290.297 25.0912 295.797 25.2895 296.5C25.4879 297.203 28.8057 299.268 28.8057 299.268C28.8057 299.268 28.2467 302.549 28.2467 303.144C28.2467 304.614 30.8703 306.453 31.5465 306.002C33.9718 304.38 34.8553 299.989 35.3061 297.978C35.7569 295.968 30.3744 289.693 29.1934 290.297Z" fill="#231F20"/>
<path d="M65.7255 450.283L73.0373 451.05L74.4077 435.281L67.0959 434.505L65.7255 450.283Z" fill="#B97964"/>
<path d="M29.2294 449.751H36.3158L36.9019 433.333H29.8064L29.2294 449.751Z" fill="#B97964"/>
<path d="M37.3076 448.931H28.6975C28.5561 448.93 28.4187 448.978 28.3086 449.067C28.1985 449.155 28.1225 449.279 28.0934 449.418L26.6959 455.729C26.6669 455.882 26.6718 456.039 26.7104 456.19C26.7489 456.341 26.8201 456.482 26.919 456.602C27.0179 456.723 27.1421 456.82 27.2827 456.887C27.4233 456.954 27.5769 456.99 27.7328 456.991C30.5187 456.946 32.5472 456.775 36.0454 456.775C38.2002 456.775 44.7006 457 47.6758 457C50.651 457 51.0387 454.061 49.8216 453.79C44.358 452.6 40.2468 450.95 38.4977 449.382C38.1741 449.083 37.7476 448.922 37.3076 448.931Z" fill="#263238"/>
<path d="M39.6428 450.175C40.1242 450.211 40.6039 450.084 41.0042 449.814C41.1336 449.706 41.2336 449.566 41.295 449.408C41.3565 449.251 41.3773 449.08 41.3558 448.913C41.3594 448.815 41.3339 448.718 41.2826 448.635C41.2312 448.551 41.1563 448.485 41.0673 448.444C40.2829 448.038 37.9929 449.445 37.7404 449.607C37.7104 449.621 37.6859 449.644 37.6711 449.674C37.6564 449.703 37.6522 449.737 37.6593 449.769C37.6635 449.803 37.6778 449.835 37.7003 449.861C37.7228 449.886 37.7525 449.905 37.7855 449.914C38.3931 450.069 39.0159 450.156 39.6428 450.175ZM40.6976 448.705C40.7727 448.697 40.8484 448.713 40.914 448.75C40.9591 448.75 41.0132 448.814 41.0222 448.949C41.0363 449.06 41.0231 449.173 40.9839 449.279C40.9446 449.384 40.8804 449.478 40.7968 449.553C40.0017 449.913 39.0994 449.958 38.2724 449.679C39.0098 449.2 39.8336 448.869 40.6976 448.705Z" fill="#00B0FF"/>
<path d="M37.8305 449.923H37.9116C38.6419 449.526 40.0574 447.966 39.9132 447.218C39.8881 447.093 39.8205 446.981 39.7218 446.9C39.6231 446.819 39.4996 446.776 39.3722 446.776C39.2449 446.759 39.1155 446.77 38.9927 446.807C38.8699 446.845 38.7564 446.908 38.6599 446.992C37.8395 447.66 37.6682 449.697 37.6592 449.796C37.6588 449.827 37.6659 449.857 37.6801 449.883C37.6943 449.91 37.715 449.933 37.7403 449.95C37.7725 449.95 37.804 449.941 37.8305 449.923ZM39.255 447.046H39.3361C39.5525 447.046 39.5705 447.173 39.5796 447.218C39.6697 447.678 38.7681 448.859 38.0378 449.409C38.0835 448.601 38.3762 447.827 38.8763 447.191C38.9796 447.096 39.115 447.045 39.255 447.046Z" fill="#00B0FF"/>
<path d="M73.8128 448.705H65.2026C65.0613 448.704 64.9239 448.752 64.8138 448.841C64.7037 448.93 64.6277 449.054 64.5986 449.192L63.2011 455.503C63.1721 455.656 63.177 455.814 63.2155 455.965C63.2541 456.116 63.3254 456.257 63.4243 456.377C63.5232 456.497 63.6473 456.595 63.7879 456.662C63.9285 456.729 64.0821 456.764 64.2379 456.766C67.0238 456.72 69.0524 456.549 72.5506 456.549C74.7053 456.549 81.2058 456.775 84.181 456.775C87.1562 456.775 87.5439 453.835 86.3268 453.565C80.8632 452.375 76.7519 450.725 75.0029 449.156C74.6793 448.858 74.2528 448.696 73.8128 448.705Z" fill="#263238"/>
<path d="M76.1568 449.95C76.6383 449.986 77.1179 449.859 77.5182 449.589C77.6476 449.48 77.7476 449.341 77.8091 449.183C77.8705 449.026 77.8914 448.855 77.8698 448.687C77.8734 448.589 77.848 448.493 77.7966 448.409C77.7453 448.326 77.6704 448.259 77.5813 448.219C76.797 447.813 74.5069 449.219 74.2545 449.382C74.2244 449.395 74.2 449.419 74.1852 449.448C74.1704 449.478 74.1663 449.512 74.1734 449.544C74.1776 449.578 74.1919 449.61 74.2144 449.635C74.2369 449.661 74.2665 449.679 74.2996 449.688C74.9072 449.843 75.53 449.931 76.1568 449.95ZM77.2117 448.453C77.2868 448.445 77.3624 448.461 77.4281 448.498C77.4731 448.498 77.5272 448.561 77.5363 448.696C77.5503 448.808 77.5372 448.921 77.4979 449.026C77.4587 449.131 77.3945 449.226 77.3109 449.3C76.5158 449.661 75.6135 449.706 74.7864 449.427C75.5238 448.947 76.3476 448.617 77.2117 448.453Z" fill="#00B0FF"/>
<path d="M74.3447 449.697H74.4259C75.1562 449.3 76.5717 447.741 76.4274 446.992C76.4024 446.868 76.3347 446.755 76.2361 446.675C76.1374 446.594 76.0138 446.55 75.8865 446.551C75.7592 446.534 75.6298 446.545 75.507 446.582C75.3841 446.619 75.2707 446.682 75.1742 446.767C74.3538 447.434 74.1825 449.472 74.1734 449.571C74.173 449.601 74.1802 449.631 74.1944 449.658C74.2085 449.685 74.2293 449.708 74.2546 449.724C74.2867 449.725 74.3183 449.715 74.3447 449.697ZM75.7692 446.821H75.8504C76.0668 446.821 76.0848 446.947 76.0938 446.992C76.184 447.452 75.2824 448.633 74.5521 449.183C74.5978 448.376 74.8905 447.601 75.3906 446.965C75.4938 446.871 75.6293 446.819 75.7692 446.821Z" fill="#00B0FF"/>
<path opacity="0.2" d="M67.0959 434.505L74.4077 435.281L73.6955 443.413L66.3836 442.647L67.0959 434.505Z" fill="black"/>
<path opacity="0.2" d="M29.8064 433.342H36.9019L36.5953 441.808H29.4998L29.8064 433.342Z" fill="black"/>
<path d="M32.7365 289.323H70.3507C73.957 308.851 85.1187 377.967 77.0855 439.554L64.3551 437.977C64.3551 437.977 65.5362 356.221 54.2935 326C52.9952 342.174 51.4625 359.358 50.1281 368.536C46.8554 391.076 39.8501 440.339 39.8501 440.339H26.8853C26.8853 440.339 29.5359 393.186 30.7621 371.034C32.1054 346.989 32.6824 294.282 32.7365 289.323Z" fill="#00B0FF"/>
<path opacity="0.2" d="M54.2934 326C56.1444 331.298 57.5498 336.741 58.4948 342.273C59.5496 327.848 55.3392 312.611 55.3392 312.611L54.2934 326Z" fill="black"/>
<path d="M78.5462 442.521L62.7865 440.176L63.2643 435.813L79.6642 437.958L78.5462 442.521Z" fill="#00B0FF"/>
<path opacity="0.6" d="M78.5462 442.521L62.7865 440.176L63.2643 435.813L79.6642 437.958L78.5462 442.521Z" fill="white"/>
<path d="M41.4096 440.447H26.1188V435.876L41.9867 435.578L41.4096 440.447Z" fill="#00B0FF"/>
<path opacity="0.6" d="M41.4096 440.447H26.1188V435.876L41.9867 435.578L41.4096 440.447Z" fill="white"/>
<path d="M70.6662 289.774H32.7996V294.282L71.153 293.813L70.6662 289.774Z" fill="#263238"/>
<path d="M44.971 287.745H46.3234V295.751H44.971V287.745Z" fill="#00B0FF"/>
<path d="M64.1296 287.745H65.482V295.751H64.1296V287.745Z" fill="#00B0FF"/>
<path opacity="0.2" d="M65.5633 242.891C69.0404 243.284 72.4908 243.886 75.8954 244.695C74.498 238.654 67.0599 233.713 67.0599 233.713L65.5633 242.891Z" fill="black"/>
<path d="M53.4008 288.99H60.4061V294.038H53.4008V288.99Z" fill="white"/>
<path d="M25.1633 227.61C25.1633 227.61 26.3083 233.362 27.7058 241.719C28.3369 245.515 29.0221 249.834 29.6803 254.423C31.3752 266.252 32.8719 279.712 32.7366 289.774H70.6663C70.6663 289.774 73.1276 247.499 66.9157 224.238C66.9157 224.238 42.9876 223.111 25.1633 227.61Z" fill="#263238"/>
<path d="M38.7682 225.085C42.2213 228.223 50.6782 227.06 50.6782 227.06C50.6782 227.06 55.9615 225.617 54.8525 223.967C51.742 223.453 50.2364 222.002 49.6143 220.144C49.2736 218.993 49.1664 217.786 49.2987 216.592C49.3504 215.927 49.4377 215.265 49.5602 214.609L39.1108 206.828C40.4722 211.976 42.1492 221.38 38.7682 225.085Z" fill="#B97964"/>
<path opacity="0.2" d="M41.5182 211.787C41.9329 218.098 47.09 219.793 49.6324 220.144C49.2918 218.993 49.1845 217.786 49.3169 216.592L41.5182 211.787Z" fill="black"/>
<path d="M40.3098 221.1L50.3085 225.608L50.8945 222.002L54.5639 223.291C55.2067 223.514 55.7548 223.948 56.1185 224.523C56.4821 225.098 56.6397 225.779 56.5654 226.456L56.1597 230.423L51.0838 227.646L48.5594 231.252L36.5503 225.473L40.3098 221.1Z" fill="#263238"/>
<path opacity="0.2" d="M40.3098 221.1L50.3085 225.608L50.8945 222.002L54.5639 223.291C55.2067 223.514 55.7548 223.948 56.1185 224.523C56.4821 225.098 56.6397 225.779 56.5654 226.456L56.1597 230.423L51.0838 227.646L48.5594 231.252L36.5503 225.473L40.3098 221.1Z" fill="white"/>
<path d="M29.049 226.735C29.049 226.735 37.8936 256.487 30.0859 261.825C30.0859 261.825 31.1678 286.294 32.7275 289.774C45.3645 290.46 58.0293 290.46 70.6662 289.774C71.6886 280.495 72.0892 271.157 71.8653 261.825C71.8653 261.825 69.0163 258.218 69.0163 255.514C69.0163 252.809 67.3664 231.171 61.9569 223.958H58.9456C58.9456 223.958 63.3003 232.821 62.7052 240.638C62.7052 240.638 49.479 242.891 39.859 241.539C39.859 241.539 37.0101 231.018 33.8545 225.761L29.049 226.735Z" fill="#00B0FF"/>
<path opacity="0.2" d="M64.1298 263.628H41.8155C41.8155 263.628 40.4632 281.957 55.8081 280.758C67.5378 279.856 64.1298 263.628 64.1298 263.628Z" fill="black"/>
<path d="M56.7097 190.329C56.7097 190.329 59.694 199.751 55.159 204.268C50.624 208.785 47.7931 190.825 47.7931 190.825L56.7097 190.329Z" fill="#263238"/>
<path d="M40.1205 212.544C40.5152 213.168 40.9745 213.748 41.4909 214.275C42.8155 215.694 44.5694 216.64 46.4833 216.965C48.3971 217.291 50.365 216.98 52.0846 216.078C54.3275 214.954 56.0608 213.021 56.9351 210.669C57.0592 210.341 57.1645 210.007 57.2506 209.668C57.4632 208.838 57.6228 207.994 57.7285 207.144C58.5489 200.896 57.1785 192.574 51.183 190.013C50.0241 189.513 48.7779 189.246 47.5157 189.228C46.2535 189.21 45.0002 189.442 43.8276 189.909C42.655 190.376 41.5862 191.07 40.6824 191.952C39.7786 192.833 39.0576 193.884 38.5608 195.044C37.957 196.432 37.6942 197.943 37.7944 199.453C38.0739 205.431 38.0198 209.298 40.1205 212.544Z" fill="#B97964"/>
<path opacity="0.1" d="M40.1205 212.544C40.5152 213.168 40.9745 213.748 41.4909 214.275C42.8155 215.695 44.5694 216.64 46.4833 216.965C48.3971 217.291 50.365 216.98 52.0845 216.078C54.3275 214.954 56.0607 213.021 56.9351 210.669C57.0591 210.341 57.1645 210.007 57.2506 209.668C57.4632 208.838 57.6228 207.994 57.7285 207.144C56.6837 207.761 55.5182 208.145 54.3114 208.271C53.4862 208.187 52.6609 208.43 52.0124 208.947C49.7404 207.585 46.08 207.513 44.394 207.09C42.708 206.666 42.2663 200.147 42.2663 200.147L40.1205 202.5C39.1919 206.765 39.291 210.074 40.1205 212.544Z" fill="black"/>
<path d="M48.4333 201.599C48.4333 202.158 48.7218 202.636 49.1004 202.636C49.4791 202.636 49.7857 202.176 49.7947 201.608C49.8037 201.04 49.4971 200.571 49.1275 200.571C48.7578 200.571 48.4513 201.013 48.4333 201.599Z" fill="#263238"/>
<path d="M54.8975 201.68C54.8525 202.248 55.195 202.717 55.5647 202.717C55.9343 202.717 56.2409 202.257 56.2589 201.689C56.2769 201.121 55.9614 200.652 55.5917 200.652C55.2221 200.652 54.9065 201.139 54.8975 201.68Z" fill="#263238"/>
<path d="M52.842 201.932C53.5115 203.691 54.4218 205.347 55.5468 206.855C55.1504 207.133 54.6976 207.319 54.2207 207.402C53.7438 207.485 53.2546 207.461 52.7879 207.333L52.842 201.932Z" fill="#A24E3F"/>
<path d="M46.4588 199.48C46.5191 199.488 46.5805 199.481 46.6373 199.459C46.694 199.437 46.7443 199.401 46.7833 199.354C47.0334 199.015 47.3592 198.739 47.7349 198.548C48.1106 198.357 48.5257 198.256 48.9471 198.254C48.9912 198.259 49.0358 198.255 49.0783 198.242C49.1207 198.229 49.16 198.207 49.1938 198.179C49.2276 198.15 49.2551 198.115 49.2748 198.075C49.2944 198.035 49.3056 197.992 49.3078 197.947C49.3153 197.86 49.2884 197.774 49.2328 197.706C49.1771 197.639 49.0972 197.596 49.0103 197.587C48.4846 197.583 47.9655 197.703 47.4953 197.938C47.0252 198.173 46.6174 198.516 46.3055 198.939C46.2494 199.007 46.2227 199.095 46.2312 199.183C46.2396 199.271 46.2825 199.352 46.3506 199.408C46.3828 199.437 46.4193 199.462 46.4588 199.48Z" fill="#263238"/>
<path d="M51.7871 210.281C50.9626 210.403 50.1208 210.321 49.3351 210.043C48.5493 209.765 47.8436 209.299 47.2792 208.685C47.2481 208.651 47.2321 208.605 47.2346 208.559C47.2372 208.512 47.2581 208.468 47.2927 208.437C47.3274 208.406 47.373 208.39 47.4195 208.393C47.466 208.395 47.5096 208.416 47.5407 208.451C48.0734 209.002 48.7273 209.421 49.4504 209.674C50.1736 209.928 50.9459 210.009 51.706 209.911C51.7508 209.908 51.7953 209.921 51.8317 209.947C51.868 209.974 51.8938 210.012 51.9043 210.056C51.9082 210.078 51.9075 210.101 51.9023 210.124C51.8971 210.146 51.8874 210.167 51.874 210.185C51.8606 210.204 51.8436 210.219 51.824 210.231C51.8044 210.243 51.7827 210.251 51.7601 210.254L51.7871 210.281Z" fill="#263238"/>
<path d="M57.7014 199.489C57.7664 199.507 57.8348 199.507 57.8998 199.489C57.9798 199.452 58.0422 199.385 58.0741 199.303C58.106 199.22 58.1049 199.129 58.0711 199.047C57.8566 198.559 57.5275 198.129 57.1116 197.795C56.6956 197.46 56.2052 197.231 55.6819 197.127C55.5937 197.117 55.5049 197.141 55.4343 197.195C55.3636 197.249 55.3166 197.328 55.3032 197.415C55.2951 197.503 55.3202 197.591 55.3736 197.661C55.4271 197.731 55.5049 197.779 55.5917 197.794C56.0012 197.889 56.383 198.077 56.707 198.345C57.0309 198.612 57.2881 198.952 57.458 199.336C57.4859 199.377 57.5219 199.411 57.5638 199.438C57.6057 199.464 57.6525 199.482 57.7014 199.489Z" fill="#263238"/>
<path d="M43.0687 190.807L43.5555 193.881C43.0413 194.15 42.6472 194.603 42.4517 195.149C42.2562 195.695 42.2737 196.295 42.5007 196.829C43.5916 199.39 42.2482 203.483 40.3098 205.16C40.3098 205.16 40.2106 204.033 39.273 204.331C38.3353 204.628 38.7951 210.488 40.7426 213.229C40.7426 213.229 37.8485 210.795 36.0543 204.682C34.3954 199.038 34.0438 194.296 35.1527 192.06L43.0687 190.807Z" fill="#263238"/>
<path d="M35.279 192.944C35.279 192.944 32.1505 188.111 40.5714 185.569C48.9922 183.026 54.8525 186.642 54.8525 186.642C54.8525 186.642 60.3341 193.187 53.0493 194.26C45.8997 195.297 35.279 192.944 35.279 192.944Z" fill="#263238"/>
<path d="M34.0348 205.313C34.7935 206.912 36.1553 208.144 37.8214 208.739C40.0303 209.515 41.2835 207.567 40.7966 205.404C40.3549 203.474 38.6779 200.697 36.3879 200.896C34.0979 201.094 33.1241 203.339 34.0348 205.313Z" fill="#B97964"/>
<path d="M38.7231 193.62C38.7231 193.62 41.1754 216.962 53.0312 215.42L51.6067 216.385C51.6067 216.385 40.95 217.909 37.1813 193.845L38.7231 193.62Z" fill="#263238"/>
<path opacity="0.2" d="M38.7231 193.62C38.7231 193.62 41.1754 216.962 53.0312 215.42L51.6067 216.385C51.6067 216.385 40.95 217.909 37.1813 193.845L38.7231 193.62Z" fill="black"/>
<path d="M33.016 195.585C36.5142 194.684 47.9012 196.586 53.2566 196.352C58.612 196.117 60.3521 195.243 61.2266 194.485C62.1012 193.728 58.8915 192.682 58.8915 192.682C58.8915 192.682 58.4678 184.568 51.8141 180.853C49.7872 179.764 47.5403 179.148 45.2415 179.05C43.4976 178.897 41.7407 179.096 40.0754 179.636C32.0333 182.341 32.6464 193.16 32.6464 193.16C32.6464 193.16 29.5088 196.442 33.016 195.585Z" fill="#00B0FF"/>
<path opacity="0.2" d="M33.016 195.585C36.5142 194.684 47.9012 196.586 53.2566 196.352C58.612 196.117 60.3521 195.243 61.2266 194.485C62.1012 193.728 58.8915 192.682 58.8915 192.682C58.8915 192.682 55.5466 194.972 52.1206 194.323C48.6946 193.674 38.8222 190.978 32.6374 193.16C32.6374 193.205 29.5088 196.442 33.016 195.585Z" fill="black"/>
<path opacity="0.2" d="M40.0666 179.645C43.4836 180.195 46.3777 183.333 47.6759 186.281C49.425 190.185 55.5288 194.548 54.7444 185.92C54.654 184.92 54.3447 183.951 53.8384 183.083C53.332 182.215 52.6409 181.469 51.8142 180.898C49.7874 179.809 47.5405 179.193 45.2417 179.095C43.4972 178.929 41.7371 179.116 40.0666 179.645Z" fill="black"/>
<path d="M89.266 249.419L95.1984 235.625L97.777 237.509L92.9986 250.14L89.266 249.419Z" fill="#263238"/>
<path opacity="0.2" d="M89.266 249.419L95.1984 235.625L97.777 237.509L92.9986 250.14L89.266 249.419Z" fill="white"/>
<path d="M99.9317 203.981C99.9317 203.981 100.265 206.515 99.2195 206.776C97.3495 207.304 95.4457 207.705 93.5215 207.975C92.6199 207.975 92.0068 204.369 92.0068 203.981C92.0068 203.594 99.1473 201.376 99.9317 203.981Z" fill="#00B0FF"/>
<path opacity="0.7" d="M99.9317 203.981C99.9317 203.981 100.265 206.515 99.2195 206.776C97.3495 207.304 95.4457 207.705 93.5215 207.975C92.6199 207.975 92.0068 204.369 92.0068 203.981C92.0068 203.594 99.1473 201.376 99.9317 203.981Z" fill="#184B63"/>
<path opacity="0.2" d="M27.7058 241.719C28.3369 245.515 29.0221 249.834 29.6802 254.423C32.6555 248.95 30.2843 239.844 30.2843 239.844L27.7058 241.719Z" fill="black"/>
<path d="M25.1633 227.61C25.1633 227.61 19.8349 229.368 0.946711 260.319L11.8379 267.009C11.8379 267.009 25.4698 248.301 29.0491 247.399C29.0491 247.399 33.53 231.964 25.1633 227.61Z" fill="#263238"/>
<path d="M1.46965 258.372L13.7492 267.009L11.3871 269.155L6.00815e-05 261.87L1.46965 258.372Z" fill="#263238"/>
<path opacity="0.2" d="M1.46965 258.372L13.7492 267.009L11.3871 269.155L6.00815e-05 261.87L1.46965 258.372Z" fill="white"/>
<path d="M123.503 203.04L103.603 206.469C99.273 206.986 92.3257 207.779 91.8248 207.714C91.0467 207.579 86.5576 205.194 85.4888 204.463C84.0399 203.664 82.5436 202.954 81.0083 202.338L79.3957 213.38L71.2785 211.415L70.9738 212.883C70.9738 212.883 74.8494 219.362 78.6682 220.147C82.487 220.932 86.3605 217.432 87.6123 216.73C88.8642 216.027 92.8663 212.94 102.323 212.205L103.801 212.063L107.516 211.699L124.405 210.005C124.88 209.965 125.341 209.828 125.762 209.605C126.183 209.381 126.553 209.074 126.852 208.703C127.151 208.331 127.371 207.903 127.5 207.445C127.628 206.986 127.663 206.506 127.601 206.033C127.539 205.561 127.381 205.106 127.139 204.696C126.896 204.286 126.572 203.93 126.188 203.648C125.803 203.367 125.366 203.166 124.902 203.059C124.437 202.951 123.956 202.939 123.487 203.022L123.503 203.04Z" fill="#455A64"/>
<path d="M80.2301 207.448L72.1827 206.094L72.3808 205.078C72.3808 205.078 77.326 202.319 80.8646 203.102L80.2301 207.448Z" fill="#455A64"/>
<path d="M87.6912 214.931L87.7036 214.802L87.7327 214.443L87.8483 213.1L88.2501 208.207L88.1371 208.272C88.5214 208.516 88.9194 208.737 89.329 208.935C89.7821 209.177 90.2793 209.326 90.791 209.373C91.8095 209.351 92.8693 209.224 93.9885 209.113C96.2108 208.874 98.6388 208.587 101.172 208.264C101.492 208.193 101.825 208.208 102.137 208.306C102.356 208.389 102.552 208.522 102.709 208.696C102.865 208.87 102.977 209.079 103.035 209.306C103.093 209.533 103.096 209.77 103.043 209.998C102.99 210.225 102.882 210.437 102.73 210.614C102.533 210.834 102.272 210.987 101.983 211.052C101.691 211.103 101.359 211.131 101.06 211.178L99.2253 211.411L92.9339 212.236C92.5022 212.299 92.0819 212.424 91.6865 212.608C91.3122 212.775 90.9741 212.954 90.6533 213.117C90.0212 213.456 89.4869 213.773 89.0582 214.037C88.6296 214.302 88.2965 214.518 88.0735 214.658L87.8223 214.834L87.7752 214.918C87.7752 214.918 87.7752 214.919 87.8642 214.866L88.1278 214.714L89.1277 214.127C89.5694 213.87 90.103 213.57 90.738 213.24C91.0587 213.078 91.4033 212.903 91.7704 212.749C92.1562 212.568 92.5678 212.449 92.9903 212.395L99.2759 211.627L101.107 211.401C101.419 211.361 101.718 211.331 102.034 211.268C102.369 211.185 102.671 211.002 102.898 210.742C103.072 210.54 103.196 210.3 103.257 210.04C103.318 209.781 103.316 209.51 103.251 209.252C103.185 208.993 103.058 208.754 102.88 208.556C102.702 208.357 102.479 208.204 102.229 208.11C101.886 208.002 101.52 207.983 101.167 208.057C98.6454 208.36 96.195 208.703 93.9835 208.923C92.8745 209.031 91.8009 209.167 90.8157 209.19C90.3414 209.149 89.8795 209.016 89.455 208.8C89.0481 208.608 88.6543 208.389 88.2762 208.145L88.1654 208.083L88.1567 208.206L87.8462 213.15L87.7746 214.475L87.7564 214.814L87.6912 214.931Z" fill="#263238"/>
<g opacity="0.3">
<path opacity="0.3" d="M83.9442 213.956L84.705 209.015L82.3979 207.767L81.674 212.779L83.9442 213.956Z" fill="black"/>
</g>
<path d="M81.7755 208.563C82.2296 209.036 82.7749 209.412 83.3784 209.668C83.9209 210.034 84.5316 210.286 85.174 210.411C84.7233 209.934 84.1771 209.557 83.5711 209.306C83.0286 208.94 82.4179 208.688 81.7755 208.563Z" fill="#263238"/>
<path d="M81.5398 210.061C81.9945 210.533 82.5413 210.907 83.1463 211.159C83.6867 211.529 84.2982 211.782 84.9418 211.902C84.4881 211.428 83.941 211.055 83.3353 210.804C82.7949 210.434 82.1834 210.181 81.5398 210.061Z" fill="#263238"/>
<path d="M81.1736 211.409C81.6271 211.883 82.1725 212.259 82.7764 212.514C83.319 212.88 83.9297 213.132 84.572 213.257C84.118 212.784 83.5727 212.408 82.9692 212.152C82.4267 211.786 81.8159 211.534 81.1736 211.409Z" fill="#263238"/>
<path d="M80.9777 202.346L80.9566 202.522L80.8811 203.026L80.5994 204.882L79.7426 211.023L78.8894 217.157L78.6077 219.013L78.5221 219.52C78.5104 219.633 78.4945 219.692 78.488 219.688L78.4989 219.515L78.5513 219.007L78.7439 217.127C78.9538 215.539 79.232 213.382 79.5899 211.006C79.9478 208.63 80.2571 206.448 80.5227 204.882C80.657 204.104 80.768 203.475 80.8572 203.038L80.9559 202.539C80.9525 202.474 80.9598 202.409 80.9777 202.346Z" fill="#263238"/>
<defs>
<clipPath id="clip0_608_354">
<rect width="686" height="457" fill="white" transform="matrix(-1 0 0 1 732 0)"/>
</clipPath>
</defs>
</svg>
